<svg width="36" height="36" viewBox="0 0 36 36" fill="none" xmlns="http://www.w3.org/2000/svg">
<path d="M17.9999 6.74995C19.5532 6.74995 20.8124 5.49075 20.8124 3.93745C20.8124 2.38415 19.5532 1.12495 17.9999 1.12495C16.4466 1.12495 15.1874 2.38415 15.1874 3.93745C15.1874 5.49075 16.4466 6.74995 17.9999 6.74995Z" fill="#1B8354" stroke="#1B8354" stroke-width="1.475" stroke-linejoin="round"/>
<path d="M14.3588 19.2966C14.5627 18.0267 14.6541 16.7991 14.3237 15.9504C14.0424 15.2205 13.4307 14.812 12.6924 14.5336L6.18641 12.4284C5.34266 12.1472 4.55446 11.6761 4.49891 10.7452C4.4286 9.54984 5.48328 8.77641 6.53797 9.05766C6.53797 9.05766 12.7255 11.2472 17.9989 11.2472C23.2723 11.2472 29.3895 9.0675 29.3895 9.0675C30.6551 8.71594 31.4989 9.70031 31.4989 10.7402C31.4989 11.7394 30.7255 12.0909 29.8114 12.4235L23.6239 14.6672C23.0614 14.8781 22.1473 15.3 21.7958 15.9455C21.3739 16.7013 21.4442 18.0218 21.6481 19.2916L22.063 21.375L24.6933 32.8992C24.8902 33.8238 24.2504 34.688 23.3293 34.8497C22.4082 35.0114 21.6551 34.3828 21.3823 33.4884L18.7414 25.3371C18.6144 24.9462 18.5019 24.5508 18.4039 24.1509L17.9989 22.5L17.6262 24.0223C17.5081 24.5074 17.3722 24.9874 17.2184 25.4623L14.6239 33.4814C14.3427 34.3849 13.6044 35.0107 12.6833 34.8497C11.7622 34.6887 11.1083 33.7535 11.315 32.8992L13.944 21.3799L14.3588 19.2966Z" fill="#1B8354" stroke="#1B8354" stroke-width="0.7375" stroke-linejoin="round"/>
</svg>
