<svg width="20" height="20" viewBox="0 0 20 20" fill="none" xmlns="http://www.w3.org/2000/svg">
<path fill-rule="evenodd" clip-rule="evenodd" d="M5.62492 9.99992C5.62492 7.58367 7.58367 5.62492 9.99992 5.62492C12.4162 5.62492 14.3749 7.58367 14.3749 9.99992C14.3749 12.4162 12.4162 14.3749 9.99992 14.3749C7.58367 14.3749 5.62492 12.4162 5.62492 9.99992ZM9.99992 6.87492C8.27403 6.87492 6.87492 8.27403 6.87492 9.99992C6.87492 11.7258 8.27403 13.1249 9.99992 13.1249C11.7258 13.1249 13.1249 11.7258 13.1249 9.99992C13.1249 8.27403 11.7258 6.87492 9.99992 6.87492Z" fill="white"/>
<path d="M14.5898 6.24992C15.05 6.24992 15.4231 5.87682 15.4231 5.41658C15.4231 4.95635 15.05 4.58325 14.5898 4.58325H14.5823C14.122 4.58325 13.7489 4.95635 13.7489 5.41658C13.7489 5.87682 14.122 6.24992 14.5823 6.24992H14.5898Z" fill="white"/>
<path fill-rule="evenodd" clip-rule="evenodd" d="M10.0476 1.45825C11.8731 1.45824 13.3071 1.45823 14.4266 1.60875C15.5738 1.76299 16.484 2.08551 17.1992 2.80068C17.9143 3.51584 18.2369 4.42606 18.3911 5.57327C18.5416 6.69278 18.5416 8.12667 18.5416 9.95225V10.0476C18.5416 11.8731 18.5416 13.3071 18.3911 14.4266C18.2369 15.5738 17.9143 16.484 17.1992 17.1992C16.484 17.9143 15.5738 18.2368 14.4266 18.3911C13.3071 18.5416 11.8732 18.5416 10.0476 18.5416H9.95228C8.1267 18.5416 6.69278 18.5416 5.57327 18.3911C4.42606 18.2368 3.51585 17.9143 2.80068 17.1992C2.08551 16.484 1.76299 15.5738 1.60875 14.4266C1.45823 13.307 1.45824 11.8732 1.45825 10.0476V9.95227C1.45824 8.12668 1.45823 6.69279 1.60875 5.57327C1.76299 4.42606 2.08551 3.51584 2.80068 2.80068C3.51585 2.08551 4.42606 1.76299 5.57327 1.60875C6.69278 1.45823 8.12667 1.45824 9.95224 1.45825H10.0476ZM5.73983 2.8476C4.73123 2.9832 4.12877 3.24036 3.68456 3.68456C3.24036 4.12877 2.9832 4.73123 2.8476 5.73983C2.70958 6.76641 2.70825 8.11627 2.70825 9.99992C2.70825 11.8836 2.70958 13.2334 2.8476 14.26C2.9832 15.2686 3.24036 15.8711 3.68456 16.3153C4.12877 16.7595 4.73123 17.0166 5.73983 17.1522C6.76641 17.2903 8.11627 17.2916 9.99992 17.2916C11.8836 17.2916 13.2334 17.2903 14.26 17.1522C15.2686 17.0166 15.8711 16.7595 16.3153 16.3153C16.7595 15.8711 17.0166 15.2686 17.1522 14.26C17.2903 13.2334 17.2916 11.8836 17.2916 9.99992C17.2916 8.11627 17.2903 6.76641 17.1522 5.73983C17.0166 4.73123 16.7595 4.12877 16.3153 3.68456C15.8711 3.24036 15.2686 2.9832 14.26 2.8476C13.2334 2.70958 11.8836 2.70825 9.99992 2.70825C8.11627 2.70825 6.76641 2.70958 5.73983 2.8476Z" fill="white"/>
</svg>
