<svg width="36" height="36" viewBox="0 0 36 36" fill="none" xmlns="http://www.w3.org/2000/svg">
<path fill-rule="evenodd" clip-rule="evenodd" d="M14.625 5.25C14.625 3.38604 16.136 1.875 18 1.875C19.8639 1.875 21.375 3.38604 21.375 5.25C21.375 6.71949 20.4358 7.96963 19.125 8.43295V10.875H19.5823C21.6337 10.875 23.2872 10.8749 24.5876 11.0498C25.9378 11.2313 27.0746 11.6196 27.9775 12.5225C28.8803 13.4254 29.2687 14.5622 29.4502 15.9124C29.625 17.2128 29.625 19.0309 29.625 21.0823C29.625 23.1337 29.625 24.7872 29.4502 26.0876C29.2687 27.4378 28.8803 28.5746 27.9775 29.4775C27.0746 30.3803 25.9378 30.7687 24.5876 30.9502C23.2872 31.125 21.6337 31.125 19.5823 31.125H18.7223C18.5126 31.4846 18.1933 31.9167 17.7161 32.3408C16.6335 33.3032 14.8529 34.125 12 34.125C11.5459 34.125 11.1363 33.8519 10.9616 33.4328C10.7869 33.0137 10.8813 32.5308 11.2007 32.2083C11.3196 32.0683 11.6546 31.6714 11.8115 31.434C11.902 31.2971 11.9845 31.1589 12.0567 31.0219C10.4008 30.8771 9.0523 30.5072 8.02252 29.4775C7.11965 28.5746 6.73131 27.4378 6.54978 26.0876C6.37494 24.7872 6.37497 23.1337 6.375 21.0823C6.37497 19.031 6.37494 17.2128 6.54978 15.9124C6.73131 14.5622 7.11965 13.4254 8.02252 12.5225C8.9254 11.6196 10.0622 11.2313 11.4124 11.0498C12.7128 10.8749 14.3663 10.875 16.4176 10.875H16.875V8.43295C15.5642 7.96963 14.625 6.71949 14.625 5.25ZM14.625 18C14.625 17.3787 14.1213 16.875 13.5 16.875C12.8787 16.875 12.375 17.3787 12.375 18V19.5C12.375 20.1213 12.8787 20.625 13.5 20.625C14.1213 20.625 14.625 20.1213 14.625 19.5V18ZM23.625 18C23.625 17.3787 23.1213 16.875 22.5 16.875C21.8787 16.875 21.375 17.3787 21.375 18V19.5C21.375 20.1213 21.8787 20.625 22.5 20.625C23.1213 20.625 23.625 20.1213 23.625 19.5V18ZM14.1001 24.0751C14.4691 23.5829 15.164 23.4793 15.6602 23.8391C15.7386 23.8832 15.9529 23.9996 16.1451 24.0717C16.5274 24.2151 17.1439 24.3751 18.0001 24.3751C18.8562 24.3751 19.4727 24.2151 19.855 24.0717C20.0473 23.9996 20.2615 23.8832 20.34 23.8391C20.8361 23.4793 21.531 23.5829 21.9001 24.0751C22.2728 24.5721 22.1721 25.2773 21.6751 25.6501L21.6511 25.6658C21.5823 25.7112 21.4394 25.8054 21.3641 25.8478C21.1925 25.9443 20.9528 26.063 20.6451 26.1784C20.0274 26.41 19.1439 26.6251 18.0001 26.6251C16.8562 26.6251 15.9727 26.41 15.355 26.1784C15.0473 26.063 14.8076 25.9443 14.636 25.8478C14.5607 25.8054 14.4178 25.7112 14.349 25.6658L14.3251 25.6501C13.828 25.2773 13.7273 24.5721 14.1001 24.0751Z" fill="#1B8354"/>
<path d="M4.62967 16.2129C4.26476 16.2723 3.90583 16.3779 3.5625 16.5761C3.04944 16.8723 2.62339 17.2983 2.32717 17.8114C2.06111 18.2722 1.96203 18.7612 1.91728 19.2549C1.87496 19.7219 1.87498 20.3876 1.875 21.0472C1.87498 21.7069 1.87496 22.276 1.91728 22.7429C1.96203 23.2367 2.06111 23.7256 2.32717 24.1864C2.62339 24.6995 3.04944 25.1255 3.5625 25.4217C3.90533 25.6197 4.26372 25.7252 4.62808 25.7847C4.49984 24.4665 4.49992 22.9066 4.50001 21.1951C4.49991 19.4765 4.49982 17.6083 4.62967 16.2129Z" fill="#1B8354"/>
<path d="M32.4382 25.4217C32.0954 25.6197 31.737 25.7252 31.3727 25.7847C31.5009 24.4665 31.5008 22.9066 31.5007 21.1951C31.5008 19.4765 31.5009 17.6083 31.3711 16.2129C31.736 16.2723 32.0949 16.3779 32.4382 16.5761C32.9513 16.8723 33.3773 17.2983 33.6736 17.8114C33.9396 18.2722 34.0387 18.7612 34.0834 19.2549C34.1258 19.7219 34.1257 20.3876 34.1257 21.0473C34.1257 21.7069 34.1258 22.276 34.0834 22.7429C34.0387 23.2367 33.9396 23.7256 33.6736 24.1864C33.3773 24.6995 32.9513 25.1255 32.4382 25.4217Z" fill="#1B8354"/>
</svg>
