<svg width="84" height="56" viewBox="0 0 84 56" fill="none" xmlns="http://www.w3.org/2000/svg">
<g clip-path="url(#clip0_49_17489)">
<path fill-rule="evenodd" clip-rule="evenodd" d="M72.1929 16.5047C65.5837 16.5047 60.7787 21.4307 60.7787 27.4454V27.5059C60.7787 33.5207 65.5216 38.3871 72.1317 38.3871C78.7419 38.3871 83.5459 33.4602 83.5459 27.4454V27.3849C83.5459 21.3712 78.802 16.5047 72.1929 16.5047ZM78.6196 27.5059C78.6196 31.1333 75.9874 34.0953 72.1929 34.0953C68.3983 34.0953 65.706 31.0728 65.706 27.4454V27.3849C65.706 23.7585 68.3372 20.7965 72.1317 20.7965C75.9263 20.7965 78.6196 23.819 78.6196 27.4454V27.5059ZM7.87793 34.0046H16.0447V38.0242H0.194213V34.3373L7.32389 28.5645C9.98667 26.3878 11.0267 25.2395 11.0267 23.4863C11.0267 21.7038 9.83288 20.736 8.15003 20.736C6.49774 20.736 5.365 21.6424 3.77482 23.577L0.470251 20.9477C2.58096 18.1067 4.63153 16.5652 8.45663 16.5652C12.893 16.5652 15.8308 19.134 15.8308 23.0931V23.1536C15.8308 26.6903 13.9951 28.4425 10.2006 31.344L5.51978 34.9139L4.60984 35.6075L7.87793 34.0046ZM66.8742 13.4676H67.8137V12.5398H66.8742V13.4676ZM68.7532 13.4676H69.6928V12.5398H68.7532V13.4676ZM9.82006 11.5602H10.8158V2.84688H9.82006V11.5602ZM18.9599 9.1953V9.21969C18.9599 10.7124 17.7 11.6841 15.9481 11.6841C14.5492 11.6841 13.4036 11.2236 12.3448 10.29L12.962 9.56897C13.8818 10.3895 14.7641 10.8002 15.9866 10.8002C17.1706 10.8002 17.9523 10.1787 17.9523 9.31921V9.29482C17.9523 8.48504 17.5117 8.02552 15.6583 7.63917C13.6294 7.20307 12.6978 6.55623 12.6978 5.124V5.10059C12.6978 3.7308 13.9202 2.72298 15.5962 2.72298C16.8807 2.72298 17.8015 3.08396 18.6957 3.79325L18.116 4.55228C17.2968 3.89276 16.4775 3.6069 15.5705 3.6069C14.424 3.6069 13.6925 4.22838 13.6925 5.01278V5.03815C13.6925 5.85865 14.146 6.32012 16.0871 6.72989C18.0529 7.15429 18.9599 7.86357 18.9599 9.1953ZM27.8266 2.69761C25.1422 2.69761 23.3154 4.80107 23.3154 7.20404V7.22843C23.3154 9.63043 25.1175 11.7095 27.802 11.7095C30.4855 11.7095 32.3132 9.60604 32.3132 7.20404V7.1777C32.3132 4.77668 30.5111 2.69761 27.8266 2.69761ZM31.2801 7.22843C31.2801 9.20798 29.8427 10.8002 27.8266 10.8002C25.8106 10.8002 24.3485 9.18262 24.3485 7.20404V7.1777C24.3485 5.2001 25.7859 3.6069 27.802 3.6069C29.818 3.6069 31.2801 5.22449 31.2801 7.20404V7.22843ZM20.6023 11.5602H21.597V2.84688H20.6023V11.5602ZM3.79355 11.6227L0 2.84688H1.10908L1.6513 4.14447L4.24705 10.3524L4.49548 10.9466L4.39887 9.98946L7.39684 2.84688H8.46846L4.67589 11.6227H3.79355ZM40.4317 2.84688H41.4018V11.5602H40.6082L34.3599 3.723L34.9129 4.99327V11.5602H33.9419V2.84688H34.8745L40.8408 10.3436L40.4317 9.27335V2.84688ZM49.2156 1.92882H50.1561V1.001H49.2156V1.92882ZM72.7104 8.4187C73.0673 8.67041 73.4794 8.85578 73.9497 8.97579C74.4189 9.09579 74.9158 9.1553 75.4403 9.1553H75.6887L76.0042 8.50065V9.42165C76.0042 9.90849 75.8632 10.2568 75.5822 10.4665C75.2993 10.6744 74.904 10.7787 74.3953 10.7787C74.1054 10.7787 73.8452 10.7524 73.6145 10.6978C73.3838 10.6441 73.1196 10.5505 72.8218 10.4197L72.5281 11.3124C72.8889 11.4441 73.2073 11.5427 73.4853 11.608C73.7633 11.6734 74.0433 11.7066 74.3253 11.7066C75.2411 11.7066 75.9066 11.4919 76.3216 11.0636C76.7357 10.6334 76.9437 10.0558 76.9437 9.32994V2.85664H75.4403C74.8616 2.85664 74.3332 2.93859 73.856 3.10055C73.3779 3.26348 72.9687 3.48495 72.6276 3.7669C72.2885 4.04984 72.0233 4.38643 71.835 4.77668C71.6477 5.16693 71.554 5.59035 71.554 6.04695C71.554 6.59623 71.6576 7.0655 71.8646 7.45576C72.0726 7.84601 72.3546 8.16796 72.7104 8.4187ZM72.7104 5.12986C72.8554 4.8518 73.0476 4.61472 73.2862 4.41667C73.5248 4.21959 73.7969 4.0674 74.1025 3.9591C74.3982 3.85373 74.7048 3.80105 75.0233 3.79812V3.79617H76.5415L76.0042 4.06057V8.22748H75.0528C74.7009 8.22748 74.3696 8.1787 74.0611 8.08211C73.7515 7.9865 73.4794 7.84503 73.2448 7.65869C73.0101 7.47332 72.8258 7.24502 72.6927 6.97477C72.5596 6.70355 72.4936 6.39525 72.4936 6.04695C72.4936 5.71426 72.5655 5.40889 72.7104 5.12986ZM51.0957 1.92882H52.0352V1.001H51.0957V1.92882ZM79.3225 11.7066C79.0721 11.7066 78.8178 11.6724 78.5595 11.6022L78.806 10.7095C78.9154 10.7397 79.0021 10.7592 79.0643 10.767C79.1273 10.7748 79.2013 10.7787 79.2871 10.7787C79.4675 10.7787 79.6144 10.7534 79.7277 10.7036C79.8411 10.6529 79.9318 10.5719 79.9978 10.4597C80.0639 10.3475 80.1112 10.2002 80.1388 10.0197C80.1654 9.83824 80.1802 9.61482 80.1802 9.35238V2.85664H81.1198V9.35238C81.1198 9.71629 81.0902 10.0421 81.031 10.3329C80.9719 10.6226 80.8723 10.8695 80.7323 11.0753C80.5913 11.2802 80.405 11.4363 80.1743 11.5446C79.9426 11.6529 79.6587 11.7066 79.3225 11.7066ZM76.9437 1.92882H74.8852V1.17075C74.8852 0.763917 74.9828 0.462448 75.1731 0.278054C75.3634 0.0936604 75.6424 0 76.0022 0H76.6647V0.645866H76.019C75.8731 0.645866 75.7715 0.67416 75.7291 0.726844C75.6798 0.789284 75.6542 0.880017 75.6542 0.998068V1.21368H76.9437V1.92882ZM49.472 11.5778H51.4249V10.8831C51.4437 10.9153 51.4624 10.9495 51.4831 10.9797C51.6241 11.1846 51.8094 11.3417 52.0411 11.45C52.2718 11.5583 52.5557 11.6119 52.8919 11.6119H70.021V2.85664H69.0815V10.6841H68.1055H52.9274C52.747 10.6841 52.6001 10.6587 52.4867 10.609C52.3733 10.5583 52.2836 10.4773 52.2166 10.3661C52.1505 10.2529 52.1042 10.1056 52.0756 9.9241C52.048 9.74263 52.0352 9.52019 52.0352 9.25774V2.85664H49.4966C46.8989 2.85664 45.1303 4.89278 45.1303 7.2177V7.24112C45.1303 9.56604 46.8743 11.5778 49.472 11.5778ZM46.1309 7.19331C46.1309 5.27815 47.521 3.73666 49.472 3.73666H51.6714L51.0957 4.01959V9.25774C51.0957 9.62068 51.1243 9.94751 51.1834 10.2373C51.2179 10.407 51.2672 10.5592 51.3293 10.6987H49.4966C47.5456 10.6987 46.1309 9.13286 46.1309 7.2177V7.19331ZM59.5641 31.4045V31.465C59.5641 35.4553 56.6263 38.3871 51.8528 38.3871C47.9971 38.3871 45.3353 36.8758 43.4997 34.7295L46.7431 31.6767C48.2111 33.3099 49.7421 34.2153 51.9139 34.2153C53.6885 34.2153 54.9434 33.2182 54.9434 31.6474V31.587C54.9434 29.864 53.3828 28.8972 50.7506 28.8972H48.7927L48.0583 25.9342L54.9296 19.1067L52.1762 20.857H44.7537V16.8676H59.227V20.3731L53.8107 25.4815C56.718 25.9654 59.5641 27.4757 59.5641 31.4045Z" fill="white"/>
<path fill-rule="evenodd" clip-rule="evenodd" d="M28.8087 14.9032L29.9675 16.0091L28.855 17.1613L27.6973 16.0553L28.8087 14.9032Z" fill="white"/>
<path fill-rule="evenodd" clip-rule="evenodd" d="M31.3298 16.0553L32.4881 17.1613L33.6001 16.0091L32.4418 14.9032L31.3298 16.0553Z" fill="white"/>
<path fill-rule="evenodd" clip-rule="evenodd" d="M29.5134 17.6312L30.4405 18.5161L31.3296 17.5946L30.4026 16.7097L29.5134 17.6312Z" fill="white"/>
<path fill-rule="evenodd" clip-rule="evenodd" d="M32.6919 18.0829L33.6184 18.9678L34.5081 18.0462L33.5816 17.1613L32.6919 18.0829Z" fill="white"/>
<path fill-rule="evenodd" clip-rule="evenodd" d="M28.1514 18.9861L29.0779 19.871L29.9676 18.9494L29.0411 18.0645L28.1514 18.9861Z" fill="white"/>
<path fill-rule="evenodd" clip-rule="evenodd" d="M31.3298 18.9861L32.2563 19.871L33.1461 18.9494L32.2195 18.0645L31.3298 18.9861Z" fill="white"/>
<path fill-rule="evenodd" clip-rule="evenodd" d="M29.9675 20.1112L30.663 20.7742L31.3297 20.0836L30.6342 19.4194L29.9675 20.1112Z" fill="white"/>
<path fill-rule="evenodd" clip-rule="evenodd" d="M32.2378 20.1112L32.9333 20.7742L33.6 20.0836L32.9056 19.4194L32.2378 20.1112Z" fill="white"/>
<path fill-rule="evenodd" clip-rule="evenodd" d="M37.2324 15.7037L37.5834 17.6129L39.5027 17.263L39.1517 15.3549L37.2324 15.7037Z" fill="white"/>
<path fill-rule="evenodd" clip-rule="evenodd" d="M34.9622 16.5374L35.2427 18.0645L36.7784 17.7842L36.4979 16.2581L34.9622 16.5374Z" fill="white"/>
<path fill-rule="evenodd" clip-rule="evenodd" d="M37.6865 18.7956L37.9681 20.3226L39.5027 20.0431L39.2222 18.5161L37.6865 18.7956Z" fill="white"/>
<path fill-rule="evenodd" clip-rule="evenodd" d="M35.8704 18.7254L36.0803 19.871L37.2325 19.6607L37.0206 18.5161L35.8704 18.7254Z" fill="white"/>
<path fill-rule="evenodd" clip-rule="evenodd" d="M37.6865 20.9834L37.8975 22.129L39.0487 21.9188L38.8378 20.7742L37.6865 20.9834Z" fill="white"/>
<path fill-rule="evenodd" clip-rule="evenodd" d="M34.054 19.177L34.2639 20.3226L35.4161 20.1133L35.2052 18.9678L34.054 19.177Z" fill="white"/>
<path fill-rule="evenodd" clip-rule="evenodd" d="M35.8704 20.9834L36.0813 22.129L37.2325 21.9188L37.0216 20.7742L35.8704 20.9834Z" fill="white"/>
<path fill-rule="evenodd" clip-rule="evenodd" d="M34.5208 20.9232L34.657 21.6638L35.4034 21.5284L35.2672 20.7877L34.5208 20.9232Z" fill="white"/>
<path fill-rule="evenodd" clip-rule="evenodd" d="M36.3372 22.7297L36.4734 23.4703L37.2198 23.3339L37.0827 22.5942L36.3372 22.7297Z" fill="white"/>
<path fill-rule="evenodd" clip-rule="evenodd" d="M42.9593 22.129L42.2271 23.6591L43.766 24.3871L44.4973 22.857L42.9593 22.129Z" fill="white"/>
<path fill-rule="evenodd" clip-rule="evenodd" d="M40.5422 21.2258L39.9568 22.4506L41.1876 23.0323L41.773 21.8084L40.5422 21.2258Z" fill="white"/>
<path fill-rule="evenodd" clip-rule="evenodd" d="M41.4504 24.3871L40.865 25.6119L42.0958 26.1935L42.6812 24.9696L41.4504 24.3871Z" fill="white"/>
<path fill-rule="evenodd" clip-rule="evenodd" d="M39.4874 23.4839L39.0486 24.4014L39.971 24.8387L40.4107 23.9204L39.4874 23.4839Z" fill="white"/>
<path fill-rule="evenodd" clip-rule="evenodd" d="M40.3956 26.6451L39.9568 27.5627L40.8792 28L41.3189 27.0816L40.3956 26.6451Z" fill="white"/>
<path fill-rule="evenodd" clip-rule="evenodd" d="M38.1254 23.0323L37.6865 23.9498L38.609 24.3871L39.0487 23.4688L38.1254 23.0323Z" fill="white"/>
<path fill-rule="evenodd" clip-rule="evenodd" d="M39.0333 25.2903L38.5945 26.2079L39.5169 26.6452L39.9566 25.7268L39.0333 25.2903Z" fill="white"/>
<path fill-rule="evenodd" clip-rule="evenodd" d="M37.5253 24.3871L37.2324 24.9993L37.8476 25.2903L38.1405 24.6781L37.5253 24.3871Z" fill="white"/>
<path fill-rule="evenodd" clip-rule="evenodd" d="M37.9786 26.6451L37.6865 27.2573L38.3017 27.5484L38.5946 26.9362L37.9786 26.6451Z" fill="white"/>
<path fill-rule="evenodd" clip-rule="evenodd" d="M43.5318 29.8065L41.7729 30.7668L42.7384 32.5161L44.4973 31.5568L43.5318 29.8065Z" fill="white"/>
<path fill-rule="evenodd" clip-rule="evenodd" d="M42.0378 28L40.865 28.64L41.5084 29.8065L42.6812 29.1664L42.0378 28Z" fill="white"/>
<path fill-rule="evenodd" clip-rule="evenodd" d="M41.1299 31.1613L39.9568 31.801L40.5999 32.9678L41.773 32.328L41.1299 31.1613Z" fill="white"/>
<path fill-rule="evenodd" clip-rule="evenodd" d="M40.3823 29.3549L39.5027 29.8348L39.9852 30.7097L40.8648 30.2297L40.3823 29.3549Z" fill="white"/>
<path fill-rule="evenodd" clip-rule="evenodd" d="M39.0206 32.0645L38.1406 32.5445L38.6237 33.4194L39.5028 32.9394L39.0206 32.0645Z" fill="white"/>
<path fill-rule="evenodd" clip-rule="evenodd" d="M39.0203 28L38.1406 28.48L38.6231 29.3548L39.5028 28.8749L39.0203 28Z" fill="white"/>
<path fill-rule="evenodd" clip-rule="evenodd" d="M38.5662 30.2581L37.6865 30.738L38.169 31.6129L39.0487 31.1329L38.5662 30.2581Z" fill="white"/>
<path fill-rule="evenodd" clip-rule="evenodd" d="M37.8191 28.9032L37.2324 29.2232L37.5538 29.8064L38.1405 29.4865L37.8191 28.9032Z" fill="white"/>
<path fill-rule="evenodd" clip-rule="evenodd" d="M36.9109 31.1613L36.3242 31.4813L36.6456 32.0645L37.2323 31.7446L36.9109 31.1613Z" fill="white"/>
<path fill-rule="evenodd" clip-rule="evenodd" d="M39.5027 36.8293L37.4819 36.5806L37.2324 38.59L39.2532 38.8387L39.5027 36.8293Z" fill="white"/>
<path fill-rule="evenodd" clip-rule="evenodd" d="M39.5027 34.5216L37.8873 34.3226L37.6865 35.93L39.3031 36.129L39.5027 34.5216Z" fill="white"/>
<path fill-rule="evenodd" clip-rule="evenodd" d="M36.7784 36.328L35.1629 36.129L34.9622 37.7355L36.5787 37.9355L36.7784 36.328Z" fill="white"/>
<path fill-rule="evenodd" clip-rule="evenodd" d="M37.2325 34.4722L36.0206 34.3226L35.8704 35.5288L37.0823 35.6774L37.2325 34.4722Z" fill="white"/>
<path fill-rule="evenodd" clip-rule="evenodd" d="M34.5082 35.8271L33.2971 35.6774L33.146 36.8837L34.3581 37.0323L34.5082 35.8271Z" fill="white"/>
<path fill-rule="evenodd" clip-rule="evenodd" d="M37.2325 32.6657L36.0205 32.5161L35.8704 33.7213L37.0824 33.871L37.2325 32.6657Z" fill="white"/>
<path fill-rule="evenodd" clip-rule="evenodd" d="M35.4161 34.0206L34.2031 33.871L34.054 35.0762L35.2659 35.2258L35.4161 34.0206Z" fill="white"/>
<path fill-rule="evenodd" clip-rule="evenodd" d="M35.385 32.6408L34.6322 32.5477L34.5396 33.2956L35.2915 33.3877L35.385 32.6408Z" fill="white"/>
<path fill-rule="evenodd" clip-rule="evenodd" d="M33.5686 33.9956L32.8158 33.9026L32.7231 34.6505L33.4751 34.7426L33.5686 33.9956Z" fill="white"/>
<path fill-rule="evenodd" clip-rule="evenodd" d="M32.2378 40.1436L30.8244 38.8387L29.5134 40.2446L30.9268 41.5484L32.2378 40.1436Z" fill="white"/>
<path fill-rule="evenodd" clip-rule="evenodd" d="M32.2378 14.4021L30.8254 13.0968L29.5134 14.5022L30.9268 15.8065L32.2378 14.4021Z" fill="white"/>
<path fill-rule="evenodd" clip-rule="evenodd" d="M33.6001 38.1199L32.4223 37.0323L31.3298 38.2038L32.5076 39.2904L33.6001 38.1199Z" fill="white"/>
<path fill-rule="evenodd" clip-rule="evenodd" d="M30.4216 38.1199L29.2438 37.0323L28.1514 38.2038L29.3281 39.2904L30.4216 38.1199Z" fill="white"/>
<path fill-rule="evenodd" clip-rule="evenodd" d="M31.7837 36.9994L30.8421 36.129L29.9675 37.0662L30.9092 37.9355L31.7837 36.9994Z" fill="white"/>
<path fill-rule="evenodd" clip-rule="evenodd" d="M28.6055 36.5467L27.6633 35.6774L26.7893 36.6135L27.7315 37.4839L28.6055 36.5467Z" fill="white"/>
<path fill-rule="evenodd" clip-rule="evenodd" d="M32.6919 35.6439L31.7503 34.7742L30.8757 35.7108L31.8174 36.5806L32.6919 35.6439Z" fill="white"/>
<path fill-rule="evenodd" clip-rule="evenodd" d="M30.4217 35.6439L29.48 34.7742L28.6055 35.7108L29.5471 36.5806L30.4217 35.6439Z" fill="white"/>
<path fill-rule="evenodd" clip-rule="evenodd" d="M31.3297 34.5231L30.6232 33.871L29.9675 34.5725L30.674 35.2258L31.3297 34.5231Z" fill="white"/>
<path fill-rule="evenodd" clip-rule="evenodd" d="M29.0594 34.0715L28.3535 33.4194L27.6973 34.1221L28.4031 34.7742L29.0594 34.0715Z" fill="white"/>
<path fill-rule="evenodd" clip-rule="evenodd" d="M24.0649 38.914L23.6864 37.0323L21.7947 37.4086L22.1732 39.2904L24.0649 38.914Z" fill="white"/>
<path fill-rule="evenodd" clip-rule="evenodd" d="M26.7891 38.0865L26.4864 36.5806L24.9729 36.8822L25.2756 38.3871L26.7891 38.0865Z" fill="white"/>
<path fill-rule="evenodd" clip-rule="evenodd" d="M23.6109 35.8285L23.3084 34.3226L21.7947 34.6242L22.0982 36.129L23.6109 35.8285Z" fill="white"/>
<path fill-rule="evenodd" clip-rule="evenodd" d="M25.881 35.4519L25.6547 34.3226L24.5188 34.5481L24.746 35.6774L25.881 35.4519Z" fill="white"/>
<path fill-rule="evenodd" clip-rule="evenodd" d="M27.6974 35.0003L27.4702 33.871L26.3352 34.0965L26.5624 35.2258L27.6974 35.0003Z" fill="white"/>
<path fill-rule="evenodd" clip-rule="evenodd" d="M25.4271 33.6447L25.1999 32.5161L24.0649 32.7424L24.2912 33.871L25.4271 33.6447Z" fill="white"/>
<path fill-rule="evenodd" clip-rule="evenodd" d="M26.7816 33.7143L26.6327 32.9763L25.8889 33.1235L26.0378 33.8624L26.7816 33.7143Z" fill="white"/>
<path fill-rule="evenodd" clip-rule="evenodd" d="M25.4193 31.9078L25.2704 31.1699L24.5266 31.3171L24.6755 32.0559L25.4193 31.9078Z" fill="white"/>
<path fill-rule="evenodd" clip-rule="evenodd" d="M18.8139 32.5161L19.5244 30.9652L17.9646 30.2581L17.2542 31.809L18.8139 32.5161Z" fill="white"/>
<path fill-rule="evenodd" clip-rule="evenodd" d="M21.2262 33.4194L21.7945 32.1783L20.5465 31.6129L19.9783 32.854L21.2262 33.4194Z" fill="white"/>
<path fill-rule="evenodd" clip-rule="evenodd" d="M19.8642 30.2581L20.4324 29.0176L19.1854 28.4516L18.6162 29.6929L19.8642 30.2581Z" fill="white"/>
<path fill-rule="evenodd" clip-rule="evenodd" d="M21.8226 31.1613L22.2486 30.2302L21.3134 29.8065L20.8865 30.7367L21.8226 31.1613Z" fill="white"/>
<path fill-rule="evenodd" clip-rule="evenodd" d="M23.1846 33.871L23.6107 32.9398L22.6755 32.5161L22.2485 33.4472L23.1846 33.871Z" fill="white"/>
<path fill-rule="evenodd" clip-rule="evenodd" d="M20.9144 28L21.3404 27.0689L20.4052 26.6451L19.9783 27.5763L20.9144 28Z" fill="white"/>
<path fill-rule="evenodd" clip-rule="evenodd" d="M23.1846 31.6129L23.6107 30.6826L22.6755 30.2581L22.2485 31.1892L23.1846 31.6129Z" fill="white"/>
<path fill-rule="evenodd" clip-rule="evenodd" d="M22.2758 29.3548L22.7027 28.4237L21.7666 28L21.3406 28.9311L22.2758 29.3548Z" fill="white"/>
<path fill-rule="evenodd" clip-rule="evenodd" d="M23.7808 30.2581L24.0648 29.6371L23.4408 29.3549L23.1567 29.975L23.7808 30.2581Z" fill="white"/>
<path fill-rule="evenodd" clip-rule="evenodd" d="M23.3267 28L23.6107 27.3791L22.9867 27.0968L22.7026 27.7178L23.3267 28Z" fill="white"/>
<path fill-rule="evenodd" clip-rule="evenodd" d="M17.7898 24.8387L19.5244 23.8556L18.5347 22.129L16.8 23.1132L17.7898 24.8387Z" fill="white"/>
<path fill-rule="evenodd" clip-rule="evenodd" d="M18.9862 26.6451L20.4324 25.9899L19.6072 24.8387L18.1621 25.4948L18.9862 26.6451Z" fill="white"/>
<path fill-rule="evenodd" clip-rule="evenodd" d="M19.8944 23.4839L21.3406 22.8287L20.5154 21.6774L19.0703 22.3335L19.8944 23.4839Z" fill="white"/>
<path fill-rule="evenodd" clip-rule="evenodd" d="M21.092 25.2903L22.2486 24.7985L21.589 23.9355L20.4324 24.4273L21.092 25.2903Z" fill="white"/>
<path fill-rule="evenodd" clip-rule="evenodd" d="M22.4543 22.5807L23.6109 22.0885L22.9513 21.2258L21.7947 21.7171L22.4543 22.5807Z" fill="white"/>
<path fill-rule="evenodd" clip-rule="evenodd" d="M21.9998 26.6452L23.1568 26.1534L22.4965 25.2903L21.3406 25.783L21.9998 26.6452Z" fill="white"/>
<path fill-rule="evenodd" clip-rule="evenodd" d="M22.9082 24.3871L24.0648 23.8953L23.4051 23.0323L22.2485 23.525L22.9082 24.3871Z" fill="white"/>
<path fill-rule="evenodd" clip-rule="evenodd" d="M23.4865 25.7419L24.0648 25.4138L23.7351 24.8387L23.1567 25.1668L23.4865 25.7419Z" fill="white"/>
<path fill-rule="evenodd" clip-rule="evenodd" d="M24.3947 23.4839L24.973 23.1558L24.6433 22.5806L24.0649 22.9087L24.3947 23.4839Z" fill="white"/>
<path fill-rule="evenodd" clip-rule="evenodd" d="M21.3406 17.8461L23.3916 18.0645L23.6108 16.0249L21.5598 15.8065L21.3406 17.8461Z" fill="white"/>
<path fill-rule="evenodd" clip-rule="evenodd" d="M21.3406 20.1479L22.9825 20.3226L23.1568 18.6908L21.5159 18.5161L21.3406 20.1479Z" fill="white"/>
<path fill-rule="evenodd" clip-rule="evenodd" d="M24.0649 18.3404L25.7069 18.5161L25.8812 16.8843L24.2403 16.7097L24.0649 18.3404Z" fill="white"/>
<path fill-rule="evenodd" clip-rule="evenodd" d="M24.0649 20.1917L25.2958 20.3226L25.4271 19.0987L24.1963 18.9678L24.0649 20.1917Z" fill="white"/>
<path fill-rule="evenodd" clip-rule="evenodd" d="M26.7893 18.8369L28.0201 18.9678L28.1515 17.7448L26.9207 17.6129L26.7893 18.8369Z" fill="white"/>
<path fill-rule="evenodd" clip-rule="evenodd" d="M24.0649 21.9981L25.2947 22.129L25.4271 20.9051L24.1963 20.7742L24.0649 21.9981Z" fill="white"/>
<path fill-rule="evenodd" clip-rule="evenodd" d="M25.8811 20.1917L27.1109 20.3226L27.2433 19.0987L26.0124 18.9678L25.8811 20.1917Z" fill="white"/>
<path fill-rule="evenodd" clip-rule="evenodd" d="M25.918 21.56L26.6717 21.6404L26.7525 20.8916L25.9988 20.8112L25.918 21.56Z" fill="white"/>
<path fill-rule="evenodd" clip-rule="evenodd" d="M27.7341 20.6572L28.4888 20.7367L28.5687 19.9888L27.815 19.9084L27.7341 20.6572Z" fill="white"/>
<path fill-rule="evenodd" clip-rule="evenodd" d="M36.3159 28.5899C36.1793 28.5122 35.9268 28.3856 35.5806 28.2772C35.0803 28.1199 34.385 28.0029 33.5591 28.1314C33.2812 28.1756 32.9886 28.2475 32.6834 28.354C32.6551 28.3645 32.6259 28.3731 32.5966 28.3846C32.4416 28.4412 32.2875 28.5103 32.1324 28.587C32.0008 28.6532 31.8691 28.7251 31.7375 28.8028C31.4391 28.9784 31.1436 29.1807 30.856 29.3975C30.5312 27.4572 30.6892 25.6569 30.7653 24.7735C30.7662 24.7678 30.7711 24.7658 30.776 24.7687C31.4752 25.2003 31.2792 26.4079 31.1329 26.7532C31.13 26.7608 31.1397 26.7647 31.1446 26.7589C32.0154 25.748 31.5902 24.6325 31.4118 24.3496C31.4069 24.3429 31.4167 24.3361 31.4225 24.3409C31.5483 24.4417 31.6507 24.5481 31.7375 24.6565C32.0076 24.9951 32.1061 25.3605 32.1324 25.6828C32.1471 25.8525 32.1422 26.0108 32.1324 26.146C32.1305 26.1825 32.1276 26.217 32.1246 26.2496C32.1237 26.2544 32.1285 26.2554 32.1324 26.2544C32.1344 26.2535 32.1363 26.2544 32.1373 26.2525C32.3723 25.7998 32.4854 25.113 32.1324 24.4464C32.0369 24.2671 31.9072 24.0877 31.7375 23.9151C31.6887 23.8652 31.6361 23.8153 31.5805 23.7674C31.5746 23.7635 31.5795 23.754 31.5854 23.7559C31.639 23.7683 31.6887 23.7827 31.7375 23.8C31.8867 23.8508 32.0174 23.9208 32.1324 24.0043C32.3967 24.1952 32.5761 24.4589 32.6834 24.7342C32.7721 24.9605 32.8131 25.1946 32.8121 25.4008C32.8121 25.4094 32.8228 25.4104 32.8248 25.4027C32.9886 24.8109 32.8901 24.3649 32.6834 24.0379C32.5371 23.8057 32.3343 23.6341 32.1324 23.5142C31.9949 23.4336 31.8584 23.3761 31.7375 23.3415C31.6673 23.3204 31.6029 23.306 31.5483 23.2993C31.5405 23.2993 31.5425 23.2878 31.5503 23.2859C31.6156 23.2801 31.678 23.2773 31.7375 23.2763C31.8847 23.2734 32.0144 23.2859 32.1324 23.308C32.3665 23.3511 32.5469 23.4317 32.6834 23.5228C32.9048 23.6695 33.0159 23.8412 33.054 23.9113C33.0569 23.918 33.0676 23.9141 33.0666 23.9065C33.0354 23.5938 32.8882 23.3511 32.6834 23.1746C32.5254 23.0394 32.3333 22.9444 32.1324 22.8898C32.0018 22.8543 31.8672 22.8361 31.7375 22.8341C31.56 22.8322 31.3894 22.861 31.2441 22.9205C31.2382 22.9233 31.2324 22.9166 31.2363 22.9109C31.364 22.7306 31.5454 22.6193 31.7375 22.5617C31.8701 22.5224 32.0066 22.509 32.1324 22.5157C32.2543 22.5224 32.3665 22.5483 32.4562 22.5905C32.463 22.5934 32.4689 22.5857 32.464 22.58C32.3655 22.4687 32.2524 22.3805 32.1324 22.3153C32.0066 22.2472 31.873 22.204 31.7375 22.1886C31.3845 22.1493 31.0256 22.297 30.7867 22.6529C30.7838 22.6567 30.777 22.6567 30.774 22.6529C30.7292 22.5723 30.6853 22.4831 30.6434 22.3891C30.5478 22.1723 30.4688 21.9258 30.4279 21.6832C30.4259 21.6755 30.4162 21.6755 30.4162 21.6832C30.3742 21.9268 30.2943 22.1743 30.1987 22.3929C30.1577 22.486 30.1139 22.5742 30.068 22.6529C30.0661 22.6567 30.0602 22.6567 30.0573 22.6529C29.639 22.0314 28.8559 22.0438 28.3791 22.58C28.3742 22.5857 28.38 22.5934 28.3869 22.5905C28.7048 22.4419 29.3064 22.486 29.6068 22.9109C29.6107 22.9166 29.6048 22.9233 29.598 22.9205C29.1338 22.7286 28.4151 22.8543 28.0329 23.3022C27.8954 23.4624 27.8008 23.6638 27.7764 23.9065C27.7764 23.9141 27.7862 23.918 27.7901 23.9113C27.8193 23.8556 27.8934 23.7376 28.0329 23.6187C28.2562 23.425 28.6482 23.2274 29.2928 23.2859C29.3006 23.2878 29.3025 23.2993 29.2947 23.2993C28.9632 23.3396 28.2835 23.6302 28.0329 24.293C27.9207 24.5865 27.8934 24.9519 28.0182 25.4027C28.0202 25.4104 28.0309 25.4094 28.0309 25.4008C28.0309 25.3912 28.0319 25.3806 28.0329 25.3711C28.0397 24.7687 28.3898 23.9611 29.2567 23.7559C29.2635 23.754 29.2684 23.7635 29.2635 23.7674C28.2923 24.6066 28.3888 25.6415 28.7057 26.2525C28.7087 26.2592 28.7194 26.2563 28.7184 26.2496C28.6774 25.7873 28.6423 24.9634 29.4205 24.3409C29.4264 24.3361 29.4351 24.3429 29.4312 24.3496C29.2528 24.6325 28.8276 25.748 29.6975 26.7589C29.7033 26.7647 29.7131 26.7608 29.7111 26.7532C29.5648 26.4079 29.3688 25.2003 30.067 24.7687C30.0709 24.7658 30.0768 24.7678 30.0778 24.7735C30.1538 25.6569 30.3128 27.4572 29.9871 29.3975C29.4254 28.9745 28.8335 28.6024 28.2464 28.3846C28.1743 28.3578 28.1031 28.3329 28.0329 28.3108C27.4273 28.1151 26.8724 28.0605 26.3888 28.0816C25.6116 28.1142 25.0187 28.3424 24.692 28.5026C24.6266 28.5352 24.5711 28.565 24.5272 28.5899C24.5096 28.5995 24.5223 28.6244 24.5408 28.6187C24.5925 28.6033 24.6422 28.5899 24.692 28.5755C25.2888 28.4105 25.8544 28.3655 26.3888 28.4115C26.9729 28.4614 27.5199 28.6196 28.0329 28.847C28.7506 29.1654 29.402 29.6191 29.989 30.0996C29.1602 30.8103 28.458 31.5018 28.0329 31.7445C28.0104 31.756 27.99 31.7675 27.9695 31.7781C27.8681 31.6409 27.6906 31.5623 27.4975 31.6035C27.3298 31.6399 27.1923 31.7723 27.1543 31.9373C27.1201 32.084 27.1591 32.2423 27.243 32.3257C27.4702 32.5473 27.7315 32.5626 28.0329 32.4379C28.6063 32.201 29.3211 31.4539 30.1987 30.6645C30.2718 30.5983 30.3459 30.5321 30.422 30.4669C30.4971 30.5321 30.5702 30.5974 30.6434 30.6635C31.0403 31.0213 31.405 31.3695 31.7375 31.6668C31.875 31.7886 32.0066 31.9027 32.1324 32.0044C32.3284 32.1617 32.5127 32.2902 32.6834 32.3794C33.0198 32.554 33.3094 32.5751 33.5591 32.3612C33.5727 32.3497 33.5864 32.3382 33.5991 32.3257C33.6566 32.2691 33.7229 32.084 33.6888 31.9373C33.6693 31.8519 33.6225 31.7752 33.5591 31.7167C33.4996 31.661 33.4265 31.6208 33.3455 31.6035C33.1515 31.5623 32.975 31.6409 32.8726 31.7781C32.816 31.7502 32.7517 31.7109 32.6834 31.6649C32.5264 31.5584 32.3411 31.4078 32.1324 31.2275C32.0086 31.1211 31.8769 31.004 31.7375 30.8794C31.4664 30.6377 31.17 30.3701 30.854 30.0996C31.1339 29.8694 31.4284 29.6478 31.7375 29.4426C31.8672 29.3562 31.9979 29.2738 32.1324 29.1951C32.3119 29.0906 32.4962 28.9927 32.6834 28.9045C32.9642 28.7721 33.2568 28.6609 33.5591 28.5755C34.1851 28.4 34.858 28.3386 35.5806 28.4518C35.8156 28.4892 36.0555 28.5429 36.3012 28.6187C36.3207 28.6244 36.3334 28.5995 36.3159 28.5899Z" fill="white"/>
<path fill-rule="evenodd" clip-rule="evenodd" d="M57.6263 43.9087H58.1764V43.3549H57.6263V43.9087ZM51.9432 48.1934H52.4785V43.3549H51.9432V48.1934ZM5.7205 44.5328H5.1842V47.6544H3.05473V44.5328H2.21001C1.87507 44.5328 1.57255 44.5794 1.29949 44.6715C1.02741 44.7636 0.795605 44.8914 0.603088 45.0549C0.411553 45.2193 0.262255 45.4135 0.157156 45.6384C0.0530403 45.8633 0 46.106 0 46.3666C0 46.6856 0.0608981 46.96 0.181712 47.1888C0.301544 47.4187 0.462629 47.6069 0.663986 47.7555C0.864361 47.9031 1.09813 48.0141 1.36628 48.0854C1.63443 48.1577 1.91534 48.1934 2.21001 48.1934H5.7205V44.5328ZM2.51843 47.6544H1.98999C1.78864 47.6544 1.60005 47.6257 1.42325 47.5673C1.24743 47.5088 1.09322 47.4236 0.961601 47.3137C0.829983 47.2037 0.726849 47.069 0.650235 46.9095C0.574603 46.75 0.536296 46.5687 0.536296 46.3666C0.536296 46.1734 0.57755 45.997 0.660057 45.8375C0.743546 45.678 0.852574 45.5413 0.988121 45.4254C1.12465 45.3115 1.27984 45.2243 1.4537 45.1629C1.62755 45.1024 1.80632 45.0727 1.98999 45.0727H2.51843V47.6544ZM4.33555 49.3872H4.88658V48.8334H4.33555V49.3872ZM2.50075 43.9087H3.05178V43.3549H2.50075V43.9087ZM34.6402 43.9087H35.1913V43.3549H34.6402V43.9087ZM5.27358 49.3872H5.82363V48.8334H5.27358V49.3872ZM35.5792 43.9087H36.1293V43.3549H35.5792V43.9087ZM56.6883 43.9087H57.2383V43.3549H56.6883V43.9087ZM1.56371 43.9087H2.11375V43.3549H1.56371V43.9087ZM37.915 49.3872H38.465V48.8334H37.915V49.3872ZM41.3557 44.5328H40.8194V47.6544H38.797V44.5328H38.2617V47.6544H36.1322V44.5328H35.2885C34.9536 44.5328 34.6491 44.5794 34.377 44.6715C34.1049 44.7636 33.8731 44.8914 33.6806 45.0549C33.4891 45.2193 33.3407 45.4135 33.2356 45.6384C33.1305 45.8633 33.0785 46.106 33.0785 46.3666C33.0785 46.6856 33.1384 46.96 33.2592 47.1888C33.38 47.4187 33.5401 47.6069 33.7415 47.7555C33.9419 47.9031 34.1766 48.0141 34.4448 48.0854C34.7119 48.1577 34.9938 48.1934 35.2885 48.1934H41.3557V44.5328ZM35.5969 47.6544H35.0665C34.8661 47.6544 34.6776 47.6257 34.5008 47.5673C34.3249 47.5088 34.1707 47.4236 34.0391 47.3137C33.9075 47.2037 33.8034 47.069 33.7277 46.9095C33.6521 46.75 33.6138 46.5687 33.6138 46.3666C33.6138 46.1734 33.6551 45.997 33.7376 45.8375C33.8201 45.678 33.9291 45.5413 34.0656 45.4254C34.2022 45.3115 34.3573 45.2243 34.5312 45.1629C34.7051 45.1024 34.8838 45.0727 35.0665 45.0727H35.5969V47.6544ZM38.853 49.3872H39.404V48.8334H38.853V49.3872ZM9.17597 45.0053C9.03257 44.8478 8.87246 44.7299 8.69665 44.6507C8.52083 44.5724 8.30474 44.5328 8.05034 44.5328H7.65548V45.0727H8.12401C8.25366 45.0727 8.37644 45.1005 8.49234 45.1569C8.60824 45.2124 8.7045 45.2857 8.78014 45.3759C8.85675 45.47 8.90881 45.573 8.93729 45.686C8.96676 45.7979 8.98149 45.9326 8.98149 46.0902V47.6544H6.46993V48.1934H9.51681V46.0703C9.51681 45.8583 9.4893 45.6612 9.43332 45.4769C9.37733 45.2926 9.29188 45.1351 9.17597 45.0053ZM49.8471 47.6544H47.5703L48.5073 45.3957C48.3649 45.2699 48.2127 45.152 48.0526 45.042C47.8915 44.931 47.7265 44.8349 47.5565 44.7517C47.3866 44.6685 47.2147 44.6041 47.0409 44.5566C46.867 44.509 46.6951 44.4852 46.5252 44.4852C46.3513 44.4852 46.1765 44.509 46.0026 44.5566C45.8278 44.6041 45.6559 44.6675 45.484 44.7488C45.3121 44.83 45.1471 44.9261 44.989 45.039C44.8299 45.151 44.6815 45.2699 44.543 45.3957L45.487 47.6544H43.4921V44.5328H42.9558V48.3083C42.9558 48.4609 42.9479 48.5907 42.9332 48.6957C42.9165 48.8017 42.89 48.8869 42.8526 48.9523C42.8143 49.0166 42.7623 49.0642 42.6974 49.0939C42.6336 49.1227 42.5501 49.1375 42.447 49.1375C42.3979 49.1375 42.3556 49.1345 42.3193 49.1306C42.2839 49.1256 42.2348 49.1147 42.1729 49.0969L42.0325 49.616C42.1798 49.6566 42.3242 49.6774 42.4676 49.6774C42.6591 49.6774 42.8202 49.6457 42.9528 49.5823C43.0844 49.5189 43.1905 49.4288 43.2711 49.3089C43.3516 49.19 43.4086 49.0464 43.442 48.878C43.4754 48.7085 43.4921 48.5203 43.4921 48.3083V48.1934H50.3834V43.3549H49.8471V47.6544ZM46.0498 47.6544L45.2129 45.5849C45.4182 45.4095 45.6284 45.2808 45.8455 45.2005C46.0616 45.1193 46.2885 45.0787 46.5252 45.0787C46.7668 45.0787 47.0055 45.1272 47.2412 45.2243C47.4789 45.3204 47.6793 45.4413 47.8443 45.5849L47.0075 47.6544H46.0498ZM40.8125 49.3812H41.3636V48.8274H40.8125V49.3812ZM80.2863 48.1934H80.8216V43.3549H80.2863V48.1934ZM78.1893 47.6544H76.3486C76.4605 47.4068 76.5155 47.1423 76.5155 46.8589C76.5155 46.5805 76.4655 46.321 76.3653 46.0802C76.2641 45.8395 76.1276 45.6315 75.9527 45.4571C75.7789 45.2808 75.5726 45.1431 75.3339 45.042C75.0953 44.941 74.8369 44.8904 74.5599 44.8904C74.2918 44.8904 74.0423 44.9419 73.8105 45.045C73.5777 45.149 73.3754 45.2887 73.2045 45.467C73.0326 45.6443 72.897 45.8524 72.7988 46.0902C72.7006 46.3289 72.6515 46.5845 72.6515 46.8589C72.6515 47.0026 72.6662 47.1403 72.6957 47.273C72.7242 47.4058 72.7625 47.5326 72.8126 47.6544H71.1516C71.2636 47.4068 71.3186 47.1423 71.3186 46.8589C71.3186 46.5805 71.2685 46.321 71.1683 46.0802C71.0681 45.8395 70.9306 45.6315 70.7558 45.4571C70.5819 45.2808 70.3756 45.1431 70.137 45.042C69.8983 44.941 69.64 44.8904 69.363 44.8904C69.0948 44.8904 68.8463 44.9419 68.6135 45.045C68.3807 45.149 68.1794 45.2887 68.0075 45.467C67.8356 45.6443 67.7001 45.8524 67.6018 46.0902C67.5036 46.3289 67.4545 46.5845 67.4545 46.8589C67.4545 47.0026 67.4692 47.1403 67.4987 47.273C67.5272 47.4058 67.5665 47.5326 67.6156 47.6544H65.9144V43.3549H65.3791V47.6544H63.6719V46.8292C63.6719 46.6222 63.6444 46.425 63.5904 46.2378C63.5374 46.0515 63.4519 45.894 63.336 45.7632C63.1985 45.6067 63.0413 45.4888 62.8675 45.4125C62.6936 45.3362 62.4726 45.2986 62.2045 45.2986H59.8334L60.8421 43.3549H60.2597L59.2313 45.2917C59.249 45.4076 59.2765 45.5086 59.3148 45.5948C59.3531 45.68 59.4051 45.7612 59.4719 45.8375H62.2045C62.3744 45.8375 62.5208 45.8633 62.6435 45.9148C62.7663 45.9663 62.8655 46.0376 62.9412 46.1268C63.0168 46.217 63.0689 46.32 63.0954 46.4369C63.1219 46.5538 63.1356 46.6846 63.1356 46.8292V47.6544H58.1793V44.5328H57.3356C57.0006 44.5328 56.6971 44.5794 56.4251 44.6715C56.153 44.7636 55.9202 44.8914 55.7287 45.0549C55.5361 45.2193 55.3878 45.4135 55.2827 45.6384C55.1786 45.8633 55.1256 46.106 55.1256 46.3666C55.1256 46.6856 55.1855 46.96 55.3063 47.1888C55.4271 47.4187 55.5882 47.6069 55.7896 47.7555C55.9899 47.9031 56.2247 48.0141 56.4919 48.0854C56.76 48.1577 57.0419 48.1934 57.3356 48.1934H67.9633C68.1371 48.3826 68.3444 48.5322 68.5831 48.6422C68.8218 48.7521 69.082 48.8076 69.363 48.8076C69.6488 48.8076 69.916 48.7531 70.1635 48.6451C70.411 48.5372 70.6241 48.3866 70.8029 48.1934H73.1603C73.3341 48.3826 73.5414 48.5322 73.78 48.6422C74.0187 48.7521 74.279 48.8076 74.5599 48.8076C74.8458 48.8076 75.1119 48.7531 75.3605 48.6451C75.608 48.5372 75.8211 48.3866 75.9999 48.1934H78.7256V43.3549H78.1893V47.6544ZM57.644 47.6544H57.1146C56.9142 47.6544 56.7256 47.6257 56.5488 47.5673C56.372 47.5088 56.2188 47.4236 56.0872 47.3137C55.9556 47.2037 55.8514 47.069 55.7758 46.9095C55.6992 46.75 55.6619 46.5687 55.6619 46.3666C55.6619 46.1734 55.7021 45.997 55.7856 45.8375C55.8681 45.678 55.9772 45.5413 56.1137 45.4254C56.2502 45.3115 56.4054 45.2243 56.5793 45.1629C56.7531 45.1024 56.9319 45.0727 57.1146 45.0727H57.644V47.6544ZM70.6723 47.4147C70.5986 47.5881 70.4984 47.7377 70.3707 47.8635C70.244 47.9893 70.0947 48.0874 69.9228 48.1567C69.75 48.2261 69.5643 48.2608 69.363 48.2608C69.1675 48.2608 68.9848 48.2241 68.8178 48.1498C68.6499 48.0755 68.5045 47.9744 68.3817 47.8466C68.2589 47.7179 68.1637 47.5693 68.0939 47.3979C68.0252 47.2275 67.9898 47.0452 67.9898 46.852C67.9898 46.6588 68.0252 46.4755 68.0939 46.3022C68.1637 46.1298 68.258 45.9792 68.3788 45.8514C68.4996 45.7226 68.643 45.6206 68.81 45.5443C68.9779 45.468 69.1626 45.4294 69.363 45.4294C69.5683 45.4294 69.7568 45.466 69.9297 45.5373C70.1016 45.6097 70.2509 45.7087 70.3776 45.8336C70.5053 45.9604 70.6045 46.109 70.6762 46.2823C70.7479 46.4557 70.7833 46.6449 70.7833 46.852C70.7833 47.0541 70.7469 47.2413 70.6723 47.4147ZM75.8692 47.4147C75.7956 47.5881 75.6954 47.7377 75.5677 47.8635C75.441 47.9893 75.2917 48.0874 75.1188 48.1567C74.9479 48.2261 74.7613 48.2608 74.5599 48.2608C74.3635 48.2608 74.1818 48.2241 74.0148 48.1498C73.8468 48.0755 73.7015 47.9744 73.5787 47.8466C73.4559 47.7179 73.3606 47.5693 73.2909 47.3979C73.2221 47.2275 73.1868 47.0452 73.1868 46.852C73.1868 46.6588 73.2221 46.4755 73.2909 46.3022C73.3606 46.1298 73.4549 45.9792 73.5757 45.8514C73.6966 45.7226 73.8409 45.6206 74.0079 45.5443C74.1749 45.468 74.3596 45.4294 74.5599 45.4294C74.7652 45.4294 74.9538 45.466 75.1257 45.5373C75.2976 45.6097 75.4479 45.7087 75.5746 45.8336C75.7023 45.9604 75.8015 46.109 75.8722 46.2823C75.9449 46.4557 75.9802 46.6449 75.9802 46.852C75.9802 47.0541 75.9429 47.2413 75.8692 47.4147ZM27.8 47.6544H26.9229C26.6095 47.6544 26.364 47.6099 26.1852 47.5197C26.0074 47.4296 25.866 47.2948 25.7638 47.1155C25.7953 46.9758 25.811 46.8074 25.811 46.6093V44.8696H25.2747V46.6965C25.2747 47.0075 25.1922 47.2552 25.0272 47.4424C24.8622 47.6287 24.6117 47.7218 24.2767 47.7218C24.1206 47.7218 23.9781 47.6971 23.8485 47.6475C23.7188 47.598 23.6069 47.5306 23.5136 47.4454C23.4202 47.3602 23.3456 47.2602 23.2926 47.1452C23.2385 47.0313 23.21 46.9085 23.2051 46.7777V44.8696H22.6698V46.7371C22.6698 46.9035 22.6453 47.0442 22.5962 47.1591C22.547 47.273 22.4793 47.3681 22.3958 47.4424C22.3103 47.5158 22.2141 47.5702 22.107 47.6039C21.9999 47.6376 21.886 47.6544 21.7652 47.6544H20.728V44.8696H20.1917V47.6544H17.3795L18.3166 45.3957C18.1742 45.2699 18.0219 45.152 17.8608 45.042C17.7007 44.931 17.5357 44.8349 17.3658 44.7517C17.1968 44.6685 17.024 44.6041 16.8501 44.5566C16.6763 44.509 16.5044 44.4852 16.3344 44.4852C16.1606 44.4852 15.9867 44.509 15.8119 44.5566C15.6381 44.6041 15.4652 44.6675 15.2933 44.7488C15.1214 44.83 14.9564 44.9261 14.7973 45.039C14.6391 45.151 14.4908 45.2699 14.3523 45.3957L15.2962 47.6544H13.4418V44.5328H12.5843C12.2533 44.5328 11.9527 44.5803 11.6797 44.6745C11.4076 44.7686 11.1748 44.8984 10.9803 45.0618C10.7858 45.2263 10.6356 45.4214 10.5285 45.6483C10.4214 45.8762 10.3674 46.1219 10.3674 46.3864C10.3674 46.7064 10.4263 46.9788 10.5452 47.2057C10.6631 47.4325 10.8242 47.6198 11.0275 47.7654C11.2298 47.912 11.4665 48.02 11.7337 48.0884C12.0018 48.1587 12.2857 48.1934 12.5843 48.1934H12.9055V48.3489C12.9055 48.6313 12.8249 48.8334 12.6648 48.9552C12.5038 49.0771 12.2778 49.1375 11.9881 49.1375C11.8231 49.1375 11.6748 49.1217 11.5431 49.0909C11.4105 49.0583 11.2603 49.0048 11.0913 48.9285L10.9234 49.4476C11.1286 49.5239 11.3104 49.5813 11.4695 49.619C11.6276 49.6576 11.7877 49.6774 11.9478 49.6774C12.4704 49.6774 12.8495 49.5526 13.0872 49.303C13.3229 49.0533 13.4418 48.7175 13.4418 48.2944V48.1934H21.7652C22.0245 48.1934 22.2553 48.1379 22.4596 48.025C22.662 47.913 22.826 47.7624 22.9507 47.5732C23.0804 47.7892 23.2572 47.9576 23.4802 48.0795C23.7041 48.2003 23.9693 48.2608 24.2767 48.2608C24.5979 48.2608 24.872 48.2053 25.0979 48.0923C25.3228 47.9804 25.4957 47.807 25.6165 47.5732C25.6607 47.6495 25.7157 47.7248 25.7805 47.7991C25.8454 47.8734 25.9289 47.9398 26.031 47.9982C26.1341 48.0567 26.2579 48.1042 26.4033 48.1399C26.5133 48.1676 26.6459 48.1805 26.7883 48.1874V48.1934H28.3353V43.3549H27.8V47.6544ZM12.9055 47.6544H12.3633C12.1619 47.6544 11.9734 47.6257 11.7975 47.5702C11.6207 47.5138 11.4665 47.4315 11.332 47.3245C11.1984 47.2166 11.0923 47.0838 11.0177 46.9263C10.941 46.7688 10.9037 46.5885 10.9037 46.3864C10.9037 46.1942 10.945 46.0159 11.0275 45.8544C11.109 45.6929 11.219 45.5542 11.3555 45.4393C11.4911 45.3253 11.6463 45.2362 11.8201 45.1738C11.995 45.1104 12.1757 45.0787 12.3633 45.0787H12.9055V47.6544ZM15.8591 47.6544L15.0222 45.5849C15.2275 45.4095 15.4387 45.2808 15.6547 45.2005C15.8718 45.1193 16.0977 45.0787 16.3344 45.0787C16.5751 45.0787 16.8138 45.1272 17.0515 45.2243C17.2872 45.3204 17.4886 45.4413 17.6536 45.5849L16.8167 47.6544H15.8591ZM29.8961 48.1934H30.4314V43.3549H29.8961V48.1934Z" fill="white"/>
<path fill-rule="evenodd" clip-rule="evenodd" d="M0.454102 51.4839H1.08517V53.3015L2.79228 51.4839H3.56615L2.07369 53.0376L3.63248 55.0968H2.86875L1.64438 53.4715L1.08517 54.0495V55.0968H0.454102V51.4839Z" fill="white"/>
<path fill-rule="evenodd" clip-rule="evenodd" d="M4.68359 55.0968H5.30565V51.4839H4.68359V55.0968Z" fill="white"/>
<path fill-rule="evenodd" clip-rule="evenodd" d="M6.35669 51.4839H6.95024L8.90407 53.9817V51.4839H9.53507V55.0968H8.99863L6.98675 52.5265V55.0968H6.35669V51.4839Z" fill="white"/>
<path fill-rule="evenodd" clip-rule="evenodd" d="M10.4434 53.5273V53.5161C10.4434 52.4156 11.2753 51.4839 12.4449 51.4839C13.1214 51.4839 13.5368 51.6749 13.9363 52.0165L13.5039 52.5389C13.204 52.2812 12.9111 52.1185 12.417 52.1185C11.7017 52.1185 11.1587 52.7522 11.1587 53.505V53.5161C11.1587 54.3246 11.6857 54.9188 12.4778 54.9188C12.8444 54.9188 13.1771 54.8016 13.4153 54.6217V53.886H12.422V53.2857H14.0758V54.936C13.6922 55.2675 13.1433 55.5484 12.4558 55.5484C11.2414 55.5484 10.4434 54.6722 10.4434 53.5273Z" fill="white"/>
<path fill-rule="evenodd" clip-rule="evenodd" d="M14.9839 51.4839H16.482C17.744 51.4839 18.6163 52.2635 18.6163 53.2801V53.2903C18.6163 54.3079 17.744 55.0968 16.482 55.0968H14.9839V51.4839ZM16.482 54.5188C17.3254 54.5188 17.876 54.0077 17.876 53.3015V53.2903C17.876 52.5832 17.3254 52.0619 16.482 52.0619H15.6902V54.5188H16.482Z" fill="white"/>
<path fill-rule="evenodd" clip-rule="evenodd" d="M19.0703 53.5273V53.5161C19.0703 52.4106 19.9189 51.4839 21.1186 51.4839C22.3192 51.4839 23.1568 52.3985 23.1568 53.505V53.5161C23.1568 54.6217 22.3082 55.5484 21.1075 55.5484C19.9079 55.5484 19.0703 54.6328 19.0703 53.5273ZM22.4366 53.5273V53.5161C22.4366 52.7522 21.8839 52.1185 21.1075 52.1185C20.3322 52.1185 19.7905 52.741 19.7905 53.505V53.5161C19.7905 54.2791 20.3432 54.9138 21.1186 54.9138C21.8949 54.9138 22.4366 54.2902 22.4366 53.5273Z" fill="white"/>
<path fill-rule="evenodd" clip-rule="evenodd" d="M24.0649 51.4839H24.7565L25.8816 53.1928L27.0058 51.4839H27.6974V55.0968H27.0475V52.5061L25.8816 54.2094H25.8608L24.7043 52.5163V55.0968H24.0649V51.4839Z" fill="white"/>
<path fill-rule="evenodd" clip-rule="evenodd" d="M29.9675 53.5273V53.5161C29.9675 52.4106 30.8161 51.4839 32.0158 51.4839C33.2165 51.4839 34.054 52.3985 34.054 53.505V53.5161C34.054 54.6217 33.2054 55.5484 32.0048 55.5484C30.8051 55.5484 29.9675 54.6328 29.9675 53.5273ZM33.3338 53.5273V53.5161C33.3338 52.7522 32.7811 52.1185 32.0048 52.1185C31.2294 52.1185 30.6877 52.741 30.6877 53.505V53.5161C30.6877 54.2791 31.2404 54.9138 32.0158 54.9138C32.7922 54.9138 33.3338 54.2902 33.3338 53.5273Z" fill="white"/>
<path fill-rule="evenodd" clip-rule="evenodd" d="M34.9622 51.4839H37.6865V52.0628H35.6057V53.0487H37.4507V53.6258H35.6057V55.0968H34.9622V51.4839Z" fill="white"/>
<path fill-rule="evenodd" clip-rule="evenodd" d="M39.9568 54.9162L40.391 54.4192C40.783 54.7465 41.1761 54.9335 41.6872 54.9335C42.1319 54.9335 42.4143 54.7353 42.4143 54.4355V54.4253C42.4143 54.1427 42.2499 53.9903 41.487 53.8206C40.6133 53.6173 40.1201 53.3693 40.1201 52.6405V52.6294C40.1201 51.9514 40.7071 51.4839 41.5228 51.4839C42.1214 51.4839 42.5956 51.6587 43.0119 51.9799L42.6251 52.5054C42.2552 52.2401 41.8864 52.0988 41.5112 52.0988C41.0886 52.0988 40.842 52.3082 40.842 52.5674V52.5785C40.842 52.8834 41.0306 53.0186 41.8158 53.1995C42.6831 53.4028 43.1352 53.7027 43.1352 54.3572V54.3684C43.1352 55.1073 42.5313 55.5484 41.6693 55.5484C41.0412 55.5484 40.4489 55.339 39.9568 54.9162Z" fill="white"/>
<path fill-rule="evenodd" clip-rule="evenodd" d="M44.8589 51.4839H45.4966L47.2215 55.0968H46.4933L46.096 54.2305H44.2424L43.8401 55.0968H43.135L44.8589 51.4839ZM45.8436 53.6723L45.1667 52.2367L44.4948 53.6723H45.8436Z" fill="white"/>
<path fill-rule="evenodd" clip-rule="evenodd" d="M47.6758 53.7878V51.4839H48.3288V53.76C48.3288 54.5029 48.6844 54.9022 49.2669 54.9022C49.8455 54.9022 50.2011 54.5256 50.2011 53.7878V51.4839H50.8542V53.7538C50.8542 54.9485 50.2278 55.5484 49.2573 55.5484C48.2916 55.5484 47.6758 54.9485 47.6758 53.7878Z" fill="white"/>
<path fill-rule="evenodd" clip-rule="evenodd" d="M51.7622 51.4839H53.2603C54.5224 51.4839 55.3946 52.2635 55.3946 53.2801V53.2903C55.3946 54.3079 54.5224 55.0968 53.2603 55.0968H51.7622V51.4839ZM53.2603 54.5188C54.1037 54.5188 54.6543 54.0077 54.6543 53.3015V53.2903C54.6543 52.5832 54.1037 52.0619 53.2603 52.0619H52.4685V54.5188H53.2603Z" fill="white"/>
<path fill-rule="evenodd" clip-rule="evenodd" d="M56.4458 55.0968H57.0679V51.4839H56.4458V55.0968Z" fill="white"/>
<path fill-rule="evenodd" clip-rule="evenodd" d="M60.751 51.4839H61.3887L63.1136 55.0968H62.3854L61.9881 54.2305H60.1355L59.7322 55.0968H59.0271L60.751 51.4839ZM61.7367 53.6723L61.0588 52.2367L60.3869 53.6723H61.7367Z" fill="white"/>
<path fill-rule="evenodd" clip-rule="evenodd" d="M64.0217 51.4839H65.6907C66.1618 51.4839 66.531 51.6186 66.7723 51.8454C66.9694 52.0414 67.0828 52.31 67.0828 52.625V52.6352C67.0828 53.2281 66.7127 53.5849 66.1887 53.7299L67.2001 55.0968H66.4243L65.5042 53.8377H65.4927H64.6803V55.0968H64.0217V51.4839ZM65.6426 53.2755C66.1137 53.2755 66.4137 53.0376 66.4137 52.6715V52.6612C66.4137 52.2737 66.1243 52.0619 65.6378 52.0619H64.6803V53.2755H65.6426Z" fill="white"/>
<path fill-rule="evenodd" clip-rule="evenodd" d="M69.378 51.4839H70.0166L71.7405 55.0968H71.0124L70.6151 54.2305H68.7624L68.3591 55.0968H67.6541L69.378 51.4839ZM70.3636 53.6723L69.6857 52.2367L69.0139 53.6723H70.3636Z" fill="white"/>
<path fill-rule="evenodd" clip-rule="evenodd" d="M72.1946 51.4839H73.9067C74.3426 51.4839 74.6854 51.5982 74.9038 51.8045C75.0723 51.9643 75.1604 52.1604 75.1604 52.4029V52.4131C75.1604 52.8471 74.8979 53.0794 74.6148 53.2188C75.0625 53.3628 75.373 53.6054 75.373 54.096V54.1062C75.373 54.752 74.8107 55.0968 73.9606 55.0968H72.1946V51.4839ZM73.7696 53.0069C74.2005 53.0069 74.4895 52.8471 74.4895 52.5163V52.5061C74.4895 52.2217 74.2495 52.047 73.8195 52.047H72.8547V53.0069H73.7696ZM73.9664 54.5346C74.4239 54.5346 74.702 54.3645 74.702 54.0393V54.0291C74.702 53.7243 74.4464 53.5431 73.9175 53.5431H72.8547V54.5346H73.9664Z" fill="white"/>
<path fill-rule="evenodd" clip-rule="evenodd" d="M76.4241 55.0968H77.0461V51.4839H76.4241V55.0968Z" fill="white"/>
<path fill-rule="evenodd" clip-rule="evenodd" d="M79.3676 51.4839H80.0055L81.7298 55.0968H81.0024L80.6051 54.2305H78.7509L78.3485 55.0968H77.6433L79.3676 51.4839ZM80.3525 53.6723L79.6755 52.2367L79.0035 53.6723H80.3525Z" fill="white"/>
</g>
<defs>
<clipPath id="clip0_49_17489">
<rect width="84" height="56" fill="white"/>
</clipPath>
</defs>
</svg>
