<svg width="20" height="20" viewBox="0 0 20 20" fill="none" xmlns="http://www.w3.org/2000/svg">
<path fill-rule="evenodd" clip-rule="evenodd" d="M1.04175 3.54163C1.04175 2.16091 2.16104 1.04163 3.54175 1.04163C4.92246 1.04163 6.04175 2.16091 6.04175 3.54163C6.04175 4.92234 4.92246 6.04163 3.54175 6.04163C2.16104 6.04163 1.04175 4.92234 1.04175 3.54163ZM3.54175 2.29163C2.85139 2.29163 2.29175 2.85127 2.29175 3.54163C2.29175 4.23198 2.85139 4.79163 3.54175 4.79163C4.2321 4.79163 4.79175 4.23198 4.79175 3.54163C4.79175 2.85127 4.2321 2.29163 3.54175 2.29163Z" fill="white"/>
<path fill-rule="evenodd" clip-rule="evenodd" d="M3.29613 7.29163H3.78738C4.14806 7.29159 4.47875 7.29155 4.74776 7.32771C5.04399 7.36754 5.3571 7.46125 5.61462 7.71877C5.87214 7.97629 5.96584 8.28939 6.00567 8.58563C6.04184 8.85463 6.0418 9.18532 6.04176 9.546L6.04176 16.7039C6.0418 17.0646 6.04184 17.3953 6.00567 17.6643C5.96584 17.9605 5.87214 18.2736 5.61462 18.5312C5.3571 18.7887 5.04399 18.8824 4.74776 18.9222C4.47875 18.9584 4.14806 18.9583 3.78737 18.9583H3.29613C2.93545 18.9583 2.60476 18.9584 2.33575 18.9222C2.03951 18.8824 1.72641 18.7887 1.46889 18.5312C1.21137 18.2736 1.11766 17.9605 1.07784 17.6643C1.04167 17.3953 1.04171 17.0646 1.04175 16.7039L1.04175 9.54601C1.04171 9.18533 1.04167 8.85464 1.07784 8.58563C1.11766 8.28939 1.21137 7.97629 1.46889 7.71877C1.72641 7.46125 2.03951 7.36754 2.33575 7.32771C2.60476 7.29155 2.93545 7.29159 3.29613 7.29163ZM2.35279 8.60266L2.35481 8.60152C2.35642 8.60067 2.35919 8.59933 2.36339 8.5976C2.38154 8.59013 2.42184 8.57739 2.50231 8.56657C2.67791 8.54296 2.92291 8.54163 3.33342 8.54163H3.75009C4.16059 8.54163 4.4056 8.54296 4.5812 8.56657C4.66167 8.57739 4.70197 8.59013 4.72012 8.5976C4.72432 8.59933 4.72708 8.60067 4.72869 8.60152L4.73072 8.60266L4.73187 8.60469C4.73271 8.6063 4.73406 8.60907 4.73579 8.61327C4.74326 8.63142 4.756 8.67172 4.76682 8.75219C4.79043 8.92779 4.79175 9.17279 4.79175 9.5833L4.79175 16.6666C4.79175 17.0771 4.79043 17.3221 4.76682 17.4977C4.756 17.5782 4.74326 17.6185 4.73579 17.6367C4.73406 17.6409 4.73271 17.6436 4.73187 17.6452L4.73072 17.6473L4.72869 17.6484C4.72708 17.6493 4.72432 17.6506 4.72012 17.6523C4.70197 17.6598 4.66167 17.6725 4.5812 17.6834C4.4056 17.707 4.16059 17.7083 3.75009 17.7083H3.33342C2.92291 17.7083 2.67791 17.707 2.50231 17.6834C2.42184 17.6725 2.38154 17.6598 2.36339 17.6523C2.35919 17.6506 2.35642 17.6493 2.35481 17.6484L2.35278 17.6473L2.35164 17.6452C2.3508 17.6436 2.34945 17.6409 2.34772 17.6367C2.34025 17.6185 2.32751 17.5782 2.31669 17.4977C2.29308 17.3221 2.29175 17.0771 2.29175 16.6666L2.29175 9.5833C2.29175 9.17279 2.29308 8.92779 2.31669 8.75219C2.32751 8.67172 2.34025 8.63142 2.34772 8.61327C2.34945 8.60906 2.3508 8.6063 2.35164 8.60469L2.35279 8.60266Z" fill="white"/>
<path fill-rule="evenodd" clip-rule="evenodd" d="M9.54613 7.29163C9.78745 7.29161 10.7593 7.29159 10.9438 7.30849C11.1433 7.32677 11.3606 7.36878 11.5699 7.49123C11.7859 7.61762 11.9658 7.79748 12.0922 8.0135L12.1022 8.03091C12.7603 7.56621 13.5547 7.29183 14.414 7.29183C16.6601 7.29183 18.9585 9.20368 18.9585 11.6668L18.9574 16.2879C18.9573 16.6485 18.9573 16.9791 18.921 17.2481C18.8812 17.5443 18.7874 17.8573 18.5299 18.1147C18.2724 18.3722 17.9593 18.4658 17.6632 18.5057C17.3942 18.5418 17.0636 18.5418 16.703 18.5417H16.2127C15.8521 18.5418 15.5214 18.5418 15.2524 18.5056C14.9561 18.4658 14.643 18.3721 14.3855 18.1146C14.128 17.8571 14.0343 17.544 13.9945 17.2477C13.9583 16.9787 13.9583 16.648 13.9584 16.2874L13.9584 12.5001C13.9584 12.1188 13.6763 11.8751 13.4066 11.8751C12.9756 11.8751 12.7439 12.0403 12.5847 12.3048C12.3975 12.6156 12.2918 13.1073 12.2918 13.7501L12.2918 16.704C12.2918 17.0646 12.2918 17.3953 12.2557 17.6643C12.2158 17.9605 12.1221 18.2737 11.8646 18.5312C11.6071 18.7887 11.294 18.8824 10.9978 18.9222C10.7288 18.9584 10.3981 18.9583 10.0374 18.9583H9.54611C9.18544 18.9583 8.85475 18.9584 8.58575 18.9222C8.28951 18.8824 7.97641 18.7887 7.71889 18.5312C7.46137 18.2736 7.36766 17.9605 7.32784 17.6643C7.29167 17.3953 7.29171 17.0646 7.29175 16.7039L7.29175 9.54601C7.29171 9.18533 7.29167 8.85464 7.32784 8.58563C7.36766 8.28939 7.46137 7.97629 7.71889 7.71877C7.97641 7.46125 8.28951 7.36754 8.58575 7.32771C8.85476 7.29155 9.18545 7.29159 9.54613 7.29163ZM9.58342 8.54163C9.17291 8.54163 8.9279 8.54295 8.7523 8.56656C8.69592 8.56437 8.57986 8.59842 8.56668 8.75218C8.54308 8.92778 8.54175 9.17279 8.54175 9.58329L8.54175 16.6666C8.54175 17.0771 8.54308 17.3221 8.56668 17.4977C8.57674 17.5994 8.69462 17.6638 8.7523 17.6834C8.9279 17.707 9.17291 17.7083 9.58342 17.7083H10.0001C10.4106 17.7083 10.6556 17.707 10.8312 17.6834C10.8885 17.6689 11.0059 17.6115 11.0168 17.4977C11.0404 17.3221 11.0418 17.0771 11.0418 16.6666L11.0418 13.7501C11.0418 13.0121 11.1562 12.2538 11.5139 11.6598C11.8996 11.0194 12.5379 10.6251 13.4066 10.6251C14.4367 10.6251 15.2084 11.5006 15.2084 12.5001V16.2501C15.2084 16.6606 15.2097 16.9056 15.2333 17.0812C15.2333 17.2129 15.3129 17.235 15.3751 17.2522C15.3915 17.2567 15.4067 17.261 15.4189 17.2668C15.5945 17.2904 15.8395 17.2917 16.25 17.2917L16.6657 17.2917C17.0761 17.2917 17.3211 17.2904 17.4966 17.2668C17.5544 17.2454 17.6725 17.1782 17.6822 17.0812C17.7059 16.9057 17.7073 16.6607 17.7074 16.2503L17.7085 11.6667C17.7084 9.98776 16.0674 8.54182 14.414 8.54182C13.5161 8.54182 12.7037 8.98085 12.1642 9.68999C12.0018 9.90347 11.7213 9.98952 11.4671 9.90384C11.213 9.81815 11.0418 9.57983 11.0418 9.31161C11.0418 9.03747 11.0412 8.87411 11.0301 8.75362C11.0233 8.62758 10.8937 8.56754 10.8298 8.55328C10.7093 8.54224 10.5459 8.54163 10.2718 8.54163L9.58342 8.54163Z" fill="white"/>
</svg>
