<svg width="20" height="20" viewBox="0 0 20 20" fill="none" xmlns="http://www.w3.org/2000/svg">
<path fill-rule="evenodd" clip-rule="evenodd" d="M4.85446 6.18712C4.85446 3.34541 7.15812 1.04175 9.99983 1.04175C12.8415 1.04175 15.1452 3.34541 15.1452 6.18712C15.1452 7.61514 15.1746 8.7121 15.352 9.60471C15.6239 8.75698 16.2607 7.91604 17.0884 7.06446C17.329 6.81694 17.7247 6.81132 17.9722 7.05191C18.2197 7.2925 18.2253 7.68819 17.9848 7.93571C16.795 9.15973 16.3987 9.99638 16.4653 10.6216C16.5293 11.2213 17.0607 11.9285 18.6321 12.7846C18.8983 12.9296 19.017 13.24 18.9302 13.5187C18.9535 13.5939 18.9628 13.6743 18.956 13.7561C18.9336 14.0226 18.7442 14.2453 18.4847 14.3101C17.5708 14.5386 17.1407 14.7385 16.8654 15.0138C16.5901 15.2891 16.3902 15.7192 16.1617 16.6331C16.0922 16.9114 15.8422 17.1066 15.5554 17.1066C14.0842 17.1066 13.2713 17.5171 12.5843 17.9398C12.4934 17.9957 12.401 18.055 12.3064 18.1157C11.6961 18.5072 10.9928 18.9584 9.99983 18.9584C9.00681 18.9584 8.30366 18.5073 7.69341 18.1158C7.59878 18.0551 7.50622 17.9957 7.41532 17.9398C6.72841 17.5171 5.91546 17.1066 4.44427 17.1066C4.15748 17.1066 3.90749 16.9114 3.83794 16.6331C3.60946 15.7192 3.4096 15.2891 3.13428 15.0138C2.85896 14.7385 2.42883 14.5386 1.51491 14.3101C1.25549 14.2453 1.06606 14.0226 1.04369 13.7561C1.03682 13.6743 1.04616 13.5939 1.06948 13.5187C0.982621 13.24 1.10132 12.9296 1.36752 12.7846C2.93896 11.9285 3.47038 11.2213 3.53432 10.6216C3.60096 9.99638 3.20466 9.15973 2.0149 7.93571C1.77432 7.68819 1.77993 7.2925 2.02745 7.05191C2.27497 6.81132 2.67066 6.81694 2.91125 7.06446C3.73899 7.91604 4.37573 8.75698 4.64762 9.6047C4.82509 8.7121 4.85446 7.61514 4.85446 6.18712ZM9.99983 2.29175C7.84848 2.29175 6.10446 4.03577 6.10446 6.18712C6.10446 8.14011 6.06365 9.75538 5.50463 11.0789C5.07377 12.099 4.35888 12.9023 3.25137 13.5869C3.54099 13.7327 3.79615 13.9079 4.01816 14.1299C4.46213 14.5739 4.71886 15.1504 4.9274 15.87C6.40846 15.954 7.33011 16.4196 8.07045 16.8752C8.18822 16.9477 8.29727 17.0164 8.39973 17.081C9.01715 17.4701 9.3954 17.7084 9.99983 17.7084C10.6043 17.7084 10.9824 17.4701 11.5998 17.081C11.7023 17.0165 11.8114 16.9477 11.9292 16.8752C12.6696 16.4196 13.5912 15.954 15.0723 15.87C15.2808 15.1504 15.5375 14.5739 15.9815 14.1299C16.2035 13.9079 16.4587 13.7327 16.7483 13.5869C15.6408 12.9023 14.9259 12.099 14.495 11.0789C13.936 9.75538 13.8952 8.14011 13.8952 6.18712C13.8952 4.03577 12.1512 2.29175 9.99983 2.29175Z" fill="white"/>
</svg>
