<svg width="20" height="20" viewBox="0 0 20 20" fill="none" xmlns="http://www.w3.org/2000/svg">
<path d="M9.9991 18.1248H10C13.7033 18.1248 15.5617 18.1248 16.8433 16.8431C18.055 15.6298 18.1175 13.8289 18.1233 10.7506C18.1233 10.4056 17.8442 10.1248 17.4992 10.1248H17.4975C17.1525 10.1248 16.8725 10.4039 16.8725 10.7489C16.8667 13.7414 16.7792 15.1389 15.9583 15.9597C15.0425 16.8747 13.3575 16.8748 9.99919 16.8748C6.64085 16.8748 4.955 16.8747 4.04 15.9597C3.125 15.0439 3.125 13.3581 3.125 9.99977C3.125 6.64144 3.12502 4.95563 4.04085 4.03979C4.86085 3.21896 6.25831 3.13059 9.25081 3.12476C9.59665 3.12476 9.875 2.84394 9.875 2.49894C9.87417 2.15394 9.595 1.87476 9.25 1.87476H9.24833C6.16916 1.88059 4.36832 1.94308 3.15666 3.15641C1.875 4.43724 1.875 6.29639 1.875 9.99967C1.875 13.7029 1.875 15.5614 3.15666 16.8431C4.43748 18.1248 6.29666 18.1248 9.9991 18.1248Z" fill="#1B8354"/>
<path d="M8.76675 11.3248C8.88925 11.4457 9.04841 11.5065 9.20758 11.5065C9.36842 11.5065 9.5284 11.444 9.6509 11.3215L16.8001 4.13067C16.8492 4.63567 16.8876 5.43318 16.8701 6.67901C16.8651 7.02485 17.1409 7.30813 17.4859 7.31313C17.8326 7.32146 18.1151 7.04232 18.1201 6.69732C18.1717 3.07301 17.7821 2.68182 17.5728 2.47176C17.3628 2.26172 16.9718 1.87069 13.3501 1.92234C13.0051 1.92734 12.7292 2.21146 12.7342 2.55646C12.7392 2.89812 13.0184 3.17234 13.3592 3.17234H13.3684C14.6192 3.15484 15.4175 3.19314 15.9209 3.24314L8.76422 10.4407C8.52089 10.6857 8.52175 11.0815 8.76675 11.3248Z" fill="#1B8354"/>
</svg>
