<svg width="103" height="44" viewBox="0 0 103 44" fill="none" xmlns="http://www.w3.org/2000/svg">
<g clip-path="url(#clip0_8108_16892)">
<path d="M77.6154 36.1605C77.9039 36.1987 78.077 36.2369 78.25 36.2369C82.3462 36.2369 86.4616 36.256 90.5577 36.2178C93 36.1987 94.4039 34.9188 94.4808 32.512C94.5962 28.5005 94.5962 24.489 94.5962 20.4776C94.5962 19.7326 94.8077 19.3124 95.5001 18.9685C97.5962 17.937 99.6347 16.8291 101.712 15.7593C101.962 15.6256 102.231 15.511 102.577 15.3582C102.596 15.6256 102.635 15.8166 102.635 16.0268C102.635 21.5855 102.731 27.1443 102.596 32.703C102.5 36.8673 100.789 40.2866 97.0001 42.4451C95.0577 43.553 92.9039 43.9542 90.7116 43.9542C84.5385 43.9924 78.3847 43.9924 72.2116 43.9542C70.6347 43.9351 69.0577 43.6103 67.4808 43.553C66.4231 43.5148 65.3654 43.7632 64.2885 43.8205C62.5 43.8969 60.6924 43.9542 58.9039 43.9733C53.8462 43.9924 48.7885 44.0306 43.7308 43.9542C42.2308 43.9351 40.6731 43.725 39.2308 43.3047C34.8654 41.9676 32.5193 38.8539 31.7693 34.4795C31.6154 33.5435 31.577 32.5884 31.577 31.6333C31.5577 23.5148 31.577 15.3964 31.5577 7.27797C31.5577 6.59029 31.7308 6.20824 32.3654 5.90261C34.4808 4.85199 36.5577 3.74406 38.6539 2.67434C38.9039 2.54062 39.1731 2.42601 39.577 2.23499V30.6973C39.577 31.404 39.6154 32.1299 39.7116 32.8367C40 34.9571 41.1731 36.1796 43.3077 36.2178C47.6539 36.2942 51.9808 36.2369 56.327 36.2369C56.4039 36.2369 56.5 36.1796 56.6924 36.1223C56.5 35.7402 56.327 35.3773 56.1347 35.0335C53.0577 29.723 53.9231 22.5788 57.4808 18.3763C59.5962 15.8549 62.3462 14.4795 65.6154 14.193C68.9424 13.9064 72.1347 14.3649 74.8654 16.5043C77.827 18.8157 79.3462 21.9102 79.827 25.5779C80.327 29.2264 79.6539 32.6075 77.75 35.7593C77.7308 35.8167 77.7116 35.9313 77.6154 36.1605ZM72.3462 26.9723C72.1924 26.3611 72.0577 25.2149 71.5962 24.2216C70.6539 22.1968 68.9231 21.3754 66.6924 21.49C64.6924 21.6046 63.25 22.617 62.5577 24.489C61.1347 28.2522 62.8462 33.0277 66.2885 35.0908C66.9039 35.4537 67.4039 35.4728 68 35.0717C70.7308 33.2761 72.2116 30.7737 72.3462 26.9723Z" fill="#0A9A8F"/>
<path d="M10.8077 21.1271C12.1154 18.8921 13.4231 16.6953 14.75 14.4413C17.3462 15.9886 19.6538 17.7651 21.5 20.0573C24.9808 24.3362 26.1731 29.2646 25.5962 34.6705C25.4615 35.9886 25.1731 37.3257 24.7115 38.5674C23.5577 41.7383 21.0962 43.5912 17.8269 43.7441C11.9423 44.0115 6.05769 43.8969 0.153846 43.9542C0.134615 43.9542 0.0961538 43.9351 0 43.8778C0.0769231 43.6868 0.134615 43.4575 0.230769 43.2665C1.32692 41.1653 2.46154 39.064 3.53846 36.9437C3.80769 36.4279 4.11538 36.2369 4.71154 36.2369C7.67308 36.2751 10.6346 36.1605 13.5962 36.2751C17.0769 36.4088 17.75 34.3458 17.6731 31.8816C17.5385 27.3735 15.3462 24.0688 11.5962 21.681C11.3846 21.5091 11.1346 21.3372 10.8077 21.1271Z" fill="#0A9A8F"/>
<path d="M98.7884 0C101.365 0 103 1.60458 103 4.14518C103 6.89589 101.577 8.36676 98.8654 8.40497C96.2884 8.44317 94.6346 6.80038 94.6154 4.18338C94.6154 1.64279 96.2307 0 98.7884 0Z" fill="#0A9A8F"/>
<path d="M18.9616 4.18338C18.9616 7.01051 17.5577 8.44317 14.8269 8.40497C12.2308 8.36676 10.5962 6.68577 10.6154 4.10697C10.6539 1.58548 12.3077 0 14.9039 0C17.4423 0.0191022 18.9616 1.58548 18.9616 4.18338Z" fill="#0A9A8F"/>
<path d="M71.25 5.08121C71.2307 7.88923 69.9423 9.20728 67.1538 9.20728C64.3653 9.20728 62.9423 7.66001 62.9423 4.9857C62.9423 2.31139 64.5384 0.859624 67.25 0.878726C69.8077 0.897828 71.25 2.44511 71.25 5.08121Z" fill="#0A9A8F"/>
</g>
<defs>
<clipPath id="clip0_8108_16892">
<rect width="103" height="44" fill="white"/>
</clipPath>
</defs>
</svg>
