<svg width="42" height="35" viewBox="0 0 42 35" fill="none" xmlns="http://www.w3.org/2000/svg">
<path d="M37.3083 19.5082C33.0545 23.6128 27.154 26.3195 20.4713 26.2306C19.9773 26.2306 19.5108 26.1671 19.0716 26.04C18.3718 25.8367 17.7406 25.4935 17.2192 25.0361C16.3821 24.299 15.8195 23.2824 15.7372 22.1514C15.7372 22.0497 15.7234 21.9354 15.7234 21.8337C15.7234 21.2619 15.9842 20.4358 16.3958 19.5336C16.1351 19.9657 13.6514 24.693 12.8418 31.2629C13.2946 31.6568 13.871 32.0508 14.6257 32.4574C15.4764 32.9149 16.5605 33.3597 17.9464 33.8044C18.9893 34.1348 20.2106 34.4652 21.6514 34.7829C24.0253 35.0879 23.6686 34.694 24.3821 33.1563C24.4782 32.953 24.5879 32.737 24.7252 32.4955C24.9584 32.0762 25.274 31.6949 25.6445 31.3645C26.015 31.0341 26.4404 30.7673 26.8933 30.5639C28.8143 29.7506 31.4353 29.4584 33.919 29.0136C37.0613 28.4545 39.9567 27.6666 40.8486 25.2902C41.0133 24.8454 41.0819 24.388 41.0819 23.9178C41.1094 20.6519 39.5313 20.906 37.3358 19.5209" fill="#00349C"/>
<path d="M19.0578 26.0272C18.358 25.8239 17.7268 25.4808 17.2053 25.0233C17.8228 25.862 20.0321 29.6617 24.3546 33.1309C24.4506 32.9276 24.5604 32.7115 24.6976 32.4701C24.9309 32.0507 25.2465 31.6695 25.617 31.3391C25.9875 31.0087 26.4129 30.7418 26.8657 30.5385C28.7868 29.7252 31.4077 29.4329 33.8914 28.9881C25.8914 29.2423 19.5792 26.2687 19.0578 26.0145" fill="#094ABD"/>
<path d="M15.7098 21.821C15.7098 21.2491 15.9705 20.4231 16.3821 19.5209C16.1214 19.9529 13.6377 24.6802 12.8281 31.2502C13.281 31.6441 13.8573 32.038 14.612 32.4447C15.4628 32.9022 16.5468 33.3469 17.9328 33.7917C15.7509 28.6451 15.7647 23.5619 15.7372 22.1514C15.7372 22.0497 15.7235 21.9353 15.7235 21.8337" fill="#1971E5"/>
<path d="M24.3546 33.1309C20.0459 29.6617 17.8229 25.8621 17.2054 25.0233C16.3683 24.2863 15.8057 23.2697 15.7234 22.1387C15.7508 23.5492 15.7371 28.6323 17.9189 33.779C18.9618 34.1094 20.1831 34.4398 21.6239 34.7448C23.9978 35.0498 23.6411 34.6558 24.3546 33.1182" fill="#1D62CE"/>
<path d="M37.226 19.4573C36.4576 18.9617 35.648 18.2882 34.8795 17.2589C34.2346 16.382 33.5348 15.5433 32.7801 14.7554C32.4782 14.4377 32.1626 14.12 31.8332 13.8151C30.461 12.5316 28.5536 10.8668 26.3444 9.11317C22.2552 5.8854 17.1231 2.42888 12.4164 0.865825C11.154 0.446469 9.919 0.166897 8.7389 0.0525275C8.05279 -0.0110114 7.39413 -0.0237192 6.76291 0.0525275C5.85725 0.15419 5.2672 0.916656 5.30837 1.75537C5.32209 2.11119 5.11626 2.41617 4.75948 2.69575C4.52621 2.88636 4.23804 3.06427 3.90871 3.25489C3.52449 3.48363 3.14027 3.80132 2.76978 4.18256C9.63084 4.48754 16.1214 6.76223 20.4576 12.6205C20.4576 12.6205 22.7217 15.861 24.1351 18.6567C24.7663 19.9021 25.2192 21.0712 25.2192 21.821C25.2192 22.5707 24.8761 23.7017 24.2861 24.4388C24.2175 24.515 24.1626 24.5912 24.094 24.6675C23.6274 25.1758 23.0373 25.5825 22.3787 25.8493C22.2552 25.9001 22.1317 25.9383 22.0082 25.9764C21.5279 26.1289 21.0065 26.2178 20.4576 26.2178C27.154 26.3068 33.0408 23.6 37.2946 19.4954C37.2672 19.4827 37.2397 19.4573 37.2123 19.4446" fill="#5FC8FF"/>
<path d="M22.3786 25.862C22.2551 25.9128 22.1316 25.9509 22.0081 25.989C22.0081 25.989 21.9944 25.989 21.9807 25.989C21.9807 25.989 21.9944 25.989 22.0081 25.989C21.5278 26.1415 21.0064 26.2305 20.4575 26.2305C27.1539 26.3195 33.0407 23.6127 37.2946 19.5081C37.2671 19.4954 37.2397 19.47 37.2122 19.4573C36.4438 18.9616 35.6342 18.2881 34.8795 17.2588C34.2345 16.382 33.5347 15.5433 32.78 14.7554C30.9275 19.7368 27.4695 23.9558 22.3649 25.862" fill="#0091F5"/>
<path d="M24.286 24.4388C24.2174 24.515 24.1625 24.5912 24.0939 24.6675C23.6274 25.1758 23.0373 25.5825 22.3787 25.8493C27.4833 23.9559 30.9413 19.7242 32.7938 14.7427C32.4919 14.425 32.1763 14.1073 31.8469 13.8023C30.4747 12.5189 28.5673 10.8541 26.3581 9.10046C27.6754 15.0223 27.2363 20.9187 24.2998 24.426" fill="#11A2F7"/>
<path d="M24.1352 18.6567C24.7664 19.9021 25.2192 21.0712 25.2192 21.821C25.2192 22.5707 24.8762 23.7017 24.2861 24.4388C27.2227 20.9441 27.6618 15.035 26.3445 9.11319C22.2553 5.88542 17.1232 2.4289 12.4165 0.865845C20.9105 8.33802 23.7921 17.4749 24.1489 18.644" fill="#3CB0F9"/>
<mask id="mask0_8178_661" style="mask-type:luminance" maskUnits="userSpaceOnUse" x="0" y="4" width="21" height="28">
<path d="M0.31361 8.52869C-0.152942 10.1426 -0.15294 11.7311 0.684109 12.7096C0.848775 12.9002 1.01344 13.1035 1.1781 13.3068C1.5486 13.7643 1.93282 14.2726 2.31704 14.8063C3.11292 15.8992 3.92253 17.1191 4.73213 18.3518C5.25358 19.1524 5.77501 19.9784 6.26901 20.779C6.99628 21.9608 7.69611 23.1172 8.3136 24.1593C8.79388 24.9599 11.4423 30.0303 12.8282 31.2375C13.6515 24.6549 16.1352 19.9403 16.3822 19.5082C17.6858 16.56 20.4577 12.6079 20.4577 12.6079C16.1215 6.76231 9.63093 4.47491 2.76987 4.16992C1.69954 5.2755 0.766439 6.9021 0.299887 8.51598" fill="white"/>
</mask>
<g mask="url(#mask0_8178_661)">
<path d="M20.4576 4.19531H-0.166748V31.2502H20.4576V4.19531Z" fill="url(#paint0_linear_8178_661)"/>
</g>
<path d="M20.4713 12.6206C19.0305 13.6245 12.7732 17.1573 8.31348 24.172C8.79375 24.9726 11.4421 30.043 12.8281 31.2502C13.6514 24.6676 16.1351 19.953 16.3821 19.5209C17.6857 16.5727 20.4576 12.6206 20.4576 12.6206" fill="#62C0F9"/>
<path d="M20.4576 12.6206C20.2792 12.4808 13.9259 7.62642 0.299805 8.52868C0.766357 6.9275 1.69946 5.28819 2.76979 4.18262C9.63085 4.4876 16.1214 6.7623 20.4576 12.6079" fill="#90D4FA"/>
<mask id="mask1_8178_661" style="mask-type:luminance" maskUnits="userSpaceOnUse" x="2" y="4" width="19" height="9">
<path d="M2.48169 4.5257C8.73898 4.8434 14.6807 6.8131 18.9345 11.6802C19.9225 12.2012 20.4302 12.5951 20.4714 12.6333C16.1352 6.78769 9.64464 4.50029 2.78358 4.20801C2.68752 4.30967 2.57774 4.42404 2.48169 4.53841" fill="white"/>
</mask>
<g mask="url(#mask1_8178_661)">
<path d="M18.276 -1.21811L-0.500488 5.25232L4.65794 18.1049L23.4344 11.6345L18.276 -1.21811Z" fill="url(#paint1_linear_8178_661)"/>
</g>
<path d="M20.4715 12.6205C19.2913 13.0271 11.8402 13.7642 4.73218 18.3644C5.25362 19.165 5.77506 19.991 6.26905 20.7916C6.99633 21.9734 7.69615 23.1298 8.31365 24.1719C12.7596 17.1572 19.0169 13.6244 20.4715 12.6205Z" fill="#6EC5FA"/>
<path d="M1.17822 13.3195C1.54872 13.7769 1.93294 14.2852 2.31716 14.819C3.11304 15.9118 3.92265 17.1318 4.73225 18.3644C11.8266 13.7515 19.2914 13.0272 20.4715 12.6205C20.4715 12.6205 12.1971 11.0193 1.17822 13.3068" fill="#7BCAFA"/>
<path d="M20.4714 12.6205C20.4714 12.6205 14.1318 7.6009 0.31361 8.52857C-0.152942 10.1425 -0.15294 11.7309 0.684109 12.7094C0.848775 12.9 1.01344 13.1034 1.1781 13.3067C12.197 11.0193 20.4714 12.6205 20.4714 12.6205Z" fill="#85CFFA"/>
<mask id="mask2_8178_661" style="mask-type:luminance" maskUnits="userSpaceOnUse" x="12" y="19" width="5" height="13">
<path d="M12.8281 31.2502C12.9379 31.3391 13.0477 31.4408 13.1849 31.5297C13.7063 27.4124 14.8727 24.0321 15.7235 21.9735C15.7235 21.9226 15.7235 21.8718 15.7235 21.821C15.7235 21.2491 15.9842 20.4358 16.3959 19.5209C16.1352 19.9529 13.6514 24.6675 12.8418 31.2502" fill="white"/>
</mask>
<g mask="url(#mask2_8178_661)">
<path d="M13.9764 17.9128L6.68628 27.4888L15.1841 33.0434L22.4742 23.4674L13.9764 17.9128Z" fill="url(#paint2_linear_8178_661)"/>
</g>
<mask id="mask3_8178_661" style="mask-type:luminance" maskUnits="userSpaceOnUse" x="20" y="19" width="18" height="8">
<path d="M22.4197 25.8366C22.4334 25.8366 22.4609 25.8239 22.4609 25.8239C22.4609 25.8239 22.4609 25.8239 22.4197 25.8366ZM22.3786 25.8621C22.2551 25.9129 22.1316 25.951 22.0081 25.9891C21.5278 26.1416 21.0064 26.2306 20.4712 26.2306C27.1676 26.3195 33.0544 23.6128 37.3082 19.5082C37.2808 19.4955 37.2533 19.47 37.2259 19.4573C37.1573 19.4065 37.0475 19.3303 36.9652 19.2794C33.2602 22.7359 27.9086 25.3537 22.3648 25.8493" fill="white"/>
</mask>
<g mask="url(#mask3_8178_661)">
<path d="M34.6257 13.508L17.6892 20.3318L23.1364 31.94L40.0729 25.1163L34.6257 13.508Z" fill="url(#paint3_linear_8178_661)"/>
</g>
<path d="M21.6378 18.2501C21.5692 18.2247 21.5006 18.1993 21.4457 18.1866C21.4731 18.2247 21.5143 18.2501 21.5417 18.2882C21.6241 18.3772 21.6927 18.4788 21.775 18.5805C21.9397 18.8092 22.0906 19.0634 22.2141 19.3175C22.3376 19.5717 22.4337 19.8386 22.5023 20.1181V20.1436L22.0632 20.2452L21.8436 20.296V20.2706C21.6515 19.5717 21.3085 18.9744 20.8145 18.4788V22.253C20.7184 22.3293 20.6086 22.4055 20.5126 22.4818H20.4988H20.4851C20.3753 22.4055 20.2793 22.3293 20.1832 22.2658V18.4915C19.6892 18.9871 19.3462 19.5971 19.1678 20.2833V20.3088L18.9345 20.2579L18.5091 20.1563V20.1308C18.5915 19.8386 18.6875 19.559 18.811 19.3048C18.9345 19.038 19.0855 18.7965 19.2501 18.5678C19.3187 18.4788 19.3874 18.3899 19.456 18.3136C19.4834 18.2755 19.5246 18.2374 19.552 18.1993C19.4834 18.2247 19.4148 18.2374 19.3462 18.2628C18.811 18.4534 18.2347 18.7584 17.6035 19.1778L17.5486 19.2159C17.7132 18.8855 17.8916 18.5297 18.1112 18.123C18.3856 17.9705 18.6601 17.8434 18.9345 17.7418C19.0031 17.7164 19.058 17.691 19.1266 17.6655C19.2501 17.6147 19.3873 17.5766 19.4971 17.5512C19.2227 17.4241 18.9208 17.3224 18.6052 17.2335C18.6738 17.1064 18.7561 16.9793 18.8385 16.8395C18.8659 16.776 18.9071 16.7252 18.9345 16.6743C19.3736 16.8014 19.7853 16.9666 20.1695 17.1826C20.1695 16.9158 20.2381 16.5727 20.293 16.2677L20.4851 15.4163H20.4988L20.691 16.2677C20.7596 16.5727 20.8145 16.9158 20.8145 17.1826C21.1987 16.9793 21.6103 16.8014 22.0494 16.6743C22.0769 16.7252 22.1181 16.7887 22.1455 16.8395C22.2278 16.9793 22.2964 17.1064 22.3788 17.2335C22.0769 17.3097 21.775 17.4241 21.5006 17.5512C21.6241 17.5893 21.7476 17.6274 21.8711 17.6655C21.9259 17.691 21.9946 17.7037 22.0494 17.7291C22.1043 17.7418 22.1455 17.7672 22.2004 17.7926C22.4199 17.8816 22.6532 17.9959 22.8865 18.1103C23.106 18.517 23.2982 18.8728 23.4491 19.2032L23.3942 19.1651C22.763 18.7457 22.1729 18.428 21.6378 18.2501Z" fill="#003EB1"/>
<path d="M24.2861 21.8083C24.2861 21.9989 24.2586 22.2022 24.2175 22.3801C23.1472 22.342 22.2827 22.5453 21.6103 22.9774C21.5691 23.0028 21.5279 23.0282 21.4868 23.0536C21.3496 23.1426 21.1986 23.257 21.0477 23.3713C21.0202 23.3968 20.9791 23.4222 20.9516 23.4476C21.5691 23.8924 22.2552 24.3117 22.955 24.4007C22.7492 24.5659 22.5159 24.7184 22.2827 24.8327C21.624 24.6167 21.0065 24.2101 20.4576 23.8161C19.9087 24.2228 19.2912 24.6167 18.6463 24.8327C18.413 24.7184 18.1797 24.5659 17.9739 24.4007C18.66 24.299 19.3461 23.8796 19.9636 23.4476C19.9362 23.4222 19.895 23.3968 19.8676 23.3713C19.7166 23.257 19.5657 23.1426 19.4285 23.0536C19.3873 23.0282 19.3461 23.0028 19.305 22.9774C18.6326 22.5453 17.7681 22.3547 16.6978 22.3801C16.6566 22.1895 16.6429 21.9989 16.6292 21.8083C17.8504 21.7575 18.8659 21.9989 19.648 22.5072C19.7441 22.5707 19.8401 22.6343 19.9499 22.7105C20.0871 22.8122 20.2243 22.9139 20.3753 23.0282C20.4027 23.0536 20.4302 23.0664 20.4439 23.0791C20.4713 23.0536 20.4851 23.0409 20.5125 23.0282C20.6635 22.9139 20.8007 22.8122 20.9242 22.7232C21.0339 22.647 21.13 22.5835 21.2261 22.5199C22.0219 22.0116 23.0374 21.7829 24.2586 21.821" fill="#003EB1"/>
<defs>
<linearGradient id="paint0_linear_8178_661" x1="-0.00208263" y1="15.4468" x2="20.4713" y2="15.4468" gradientUnits="userSpaceOnUse">
<stop stop-color="#07DDB9"/>
<stop offset="0.8" stop-color="#04B7EF"/>
<stop offset="1" stop-color="#04B7EF"/>
</linearGradient>
<linearGradient id="paint1_linear_8178_661" x1="5.66259" y1="4.07764" x2="9.31287" y2="14.6704" gradientUnits="userSpaceOnUse">
<stop stop-color="#A1E7FF"/>
<stop offset="0.2" stop-color="#A1E7FF"/>
<stop offset="1" stop-color="#A1E7FF"/>
</linearGradient>
<linearGradient id="paint2_linear_8178_661" x1="10.4272" y1="28.7985" x2="17.2017" y2="18.4345" gradientUnits="userSpaceOnUse">
<stop stop-color="#A1E7FF"/>
<stop offset="0.3" stop-color="#A1E7FF"/>
<stop offset="1" stop-color="#A1E7FF"/>
</linearGradient>
<linearGradient id="paint3_linear_8178_661" x1="37.9003" y1="22.8458" x2="22.6957" y2="29.9806" gradientUnits="userSpaceOnUse">
<stop stop-color="#A1E7FF"/>
<stop offset="0.3" stop-color="#A1E7FF"/>
<stop offset="1" stop-color="#A1E7FF"/>
</linearGradient>
</defs>
</svg>
