<svg width="20" height="20" viewBox="0 0 20 20" fill="none" xmlns="http://www.w3.org/2000/svg">
<path fill-rule="evenodd" clip-rule="evenodd" d="M4.85452 6.18712C4.85452 3.34541 7.15818 1.04175 9.99989 1.04175C12.8416 1.04175 15.1453 3.34541 15.1453 6.18712C15.1453 7.61514 15.1746 8.7121 15.3521 9.60471C15.624 8.75698 16.2607 7.91604 17.0885 7.06446C17.3291 6.81694 17.7248 6.81132 17.9723 7.05191C18.2198 7.2925 18.2254 7.68819 17.9848 7.93571C16.7951 9.15973 16.3988 9.99638 16.4654 10.6216C16.5293 11.2213 17.0608 11.9285 18.6322 12.7846C18.8984 12.9296 19.0171 13.24 18.9302 13.5187C18.9536 13.5939 18.9629 13.6743 18.956 13.7561C18.9337 14.0226 18.7442 14.2453 18.4848 14.3101C17.5709 14.5386 17.1408 14.7385 16.8654 15.0138C16.5901 15.2891 16.3903 15.7192 16.1618 16.6331C16.0922 16.9114 15.8422 17.1066 15.5554 17.1066C14.0843 17.1066 13.2713 17.5171 12.5844 17.9398C12.4935 17.9957 12.4011 18.055 12.3064 18.1157C11.6962 18.5072 10.9929 18.9584 9.99989 18.9584C9.00687 18.9584 8.30372 18.5073 7.69347 18.1158C7.59884 18.0551 7.50628 17.9957 7.41539 17.9398C6.72847 17.5171 5.91552 17.1066 4.44434 17.1066C4.15754 17.1066 3.90755 16.9114 3.838 16.6331C3.60952 15.7192 3.40966 15.2891 3.13434 15.0138C2.85902 14.7385 2.42889 14.5386 1.51497 14.3101C1.25555 14.2453 1.06613 14.0226 1.04375 13.7561C1.03688 13.6743 1.04622 13.5939 1.06955 13.5187C0.982682 13.24 1.10138 12.9296 1.36758 12.7846C2.93902 11.9285 3.47044 11.2213 3.53438 10.6216C3.60102 9.99638 3.20472 9.15973 2.01496 7.93571C1.77438 7.68819 1.77999 7.2925 2.02751 7.05191C2.27503 6.81132 2.67072 6.81694 2.91131 7.06446C3.73905 7.91604 4.37579 8.75698 4.64768 9.6047C4.82515 8.7121 4.85452 7.61514 4.85452 6.18712ZM9.99989 2.29175C7.84854 2.29175 6.10452 4.03577 6.10452 6.18712C6.10452 8.14011 6.06371 9.75538 5.50469 11.0789C5.07383 12.099 4.35894 12.9023 3.25143 13.5869C3.54105 13.7327 3.79621 13.9079 4.01822 14.1299C4.46219 14.5739 4.71892 15.1504 4.92746 15.87C6.40852 15.954 7.33017 16.4196 8.07051 16.8752C8.18828 16.9477 8.29733 17.0164 8.39979 17.081C9.01721 17.4701 9.39546 17.7084 9.99989 17.7084C10.6043 17.7084 10.9824 17.4701 11.5999 17.081C11.7023 17.0165 11.8115 16.9477 11.9293 16.8752C12.6696 16.4196 13.5913 15.954 15.0723 15.87C15.2809 15.1504 15.5376 14.5739 15.9816 14.1299C16.2036 13.9079 16.4587 13.7327 16.7483 13.5869C15.6408 12.9023 14.926 12.099 14.4951 11.0789C13.9361 9.75538 13.8953 8.14011 13.8953 6.18712C13.8953 4.03577 12.1512 2.29175 9.99989 2.29175Z" fill="white"/>
</svg>
