<svg width="80" height="58" viewBox="0 0 80 58" fill="none" xmlns="http://www.w3.org/2000/svg">
<path d="M56.7818 19.5081C52.528 23.6127 46.6275 26.3194 39.9448 26.2305C39.4508 26.2305 38.9843 26.1669 38.5452 26.0399C37.8453 25.8365 37.2141 25.4934 36.6927 25.0359C35.8556 24.2989 35.293 23.2823 35.2107 22.1513C35.2107 22.0496 35.197 21.9352 35.197 21.8336C35.197 21.2617 35.4577 20.4357 35.8693 19.5335C35.6086 19.9655 33.1249 24.6928 32.3153 31.2628C32.7681 31.6567 33.3445 32.0506 34.0992 32.4573C34.95 32.9148 36.034 33.3595 37.4199 33.8043C38.4628 34.1347 39.6841 34.4651 41.1249 34.7828C43.4988 35.0878 43.1421 34.6939 43.8556 33.1562C43.9517 32.9529 44.0614 32.7369 44.1987 32.4954C44.4319 32.076 44.7475 31.6948 45.118 31.3644C45.4885 31.034 45.9139 30.7671 46.3668 30.5638C48.2879 29.7505 50.9088 29.4582 53.3925 29.0135C56.5349 28.4543 59.4302 27.6665 60.3222 25.2901C60.4868 24.8453 60.5554 24.3878 60.5554 23.9177C60.5829 20.6518 59.0048 20.9059 56.8093 19.5208" fill="#00349C"/>
<path d="M38.5316 26.0271C37.8317 25.8238 37.2005 25.4807 36.6791 25.0232C37.2966 25.8619 39.5058 29.6615 43.8283 33.1308C43.9244 32.9274 44.0341 32.7114 44.1714 32.47C44.4046 32.0506 44.7202 31.6694 45.0907 31.339C45.4612 31.0086 45.8866 30.7417 46.3395 30.5384C48.2606 29.7251 50.8815 29.4328 53.3652 28.988C45.3652 29.2422 39.053 26.2686 38.5316 26.0144" fill="#094ABD"/>
<path d="M35.1834 21.8209C35.1834 21.249 35.4441 20.423 35.8558 19.5208C35.5951 19.9528 33.1114 24.6801 32.3018 31.25C32.7546 31.644 33.3309 32.0379 34.0856 32.4446C34.9364 32.902 36.0205 33.3468 37.4064 33.7916C35.2246 28.6449 35.2383 23.5618 35.2108 22.1513C35.2108 22.0496 35.1971 21.9352 35.1971 21.8336" fill="#1971E5"/>
<path d="M43.8284 33.1309C39.5196 29.6617 37.2966 25.8621 36.6791 25.0233C35.8421 24.2863 35.2795 23.2697 35.1971 22.1387C35.2246 23.5492 35.2109 28.6323 37.3927 33.779C38.4356 34.1094 39.6568 34.4398 41.0977 34.7448C43.4716 35.0498 43.1148 34.6558 43.8284 33.1182" fill="#1D62CE"/>
<path d="M56.6997 19.4573C55.9312 18.9617 55.1216 18.2882 54.3532 17.2589C53.7082 16.382 53.0084 15.5433 52.2537 14.7554C51.9518 14.4377 51.6362 14.12 51.3069 13.8151C49.9346 12.5316 48.0273 10.8668 45.818 9.11317C41.7288 5.8854 36.5967 2.42888 31.8901 0.865825C30.6276 0.446469 29.3926 0.166897 28.2125 0.0525275C27.5264 -0.0110114 26.8678 -0.0237192 26.2365 0.0525275C25.3309 0.15419 24.7408 0.916656 24.782 1.75537C24.7957 2.11119 24.5899 2.41617 24.2331 2.69575C23.9998 2.88636 23.7117 3.06427 23.3823 3.25489C22.9981 3.48363 22.6139 3.80132 22.2434 4.18256C29.1045 4.48754 35.595 6.76223 39.9312 12.6205C39.9312 12.6205 42.1954 15.861 43.6087 18.6567C44.24 19.9021 44.6928 21.0712 44.6928 21.821C44.6928 22.5707 44.3497 23.7017 43.7597 24.4388C43.6911 24.515 43.6362 24.5912 43.5676 24.6675C43.101 25.1758 42.511 25.5825 41.8523 25.8493C41.7288 25.9001 41.6053 25.9383 41.4818 25.9764C41.0015 26.1289 40.4801 26.2178 39.9312 26.2178C46.6276 26.3068 52.5144 23.6 56.7683 19.4954C56.7408 19.4827 56.7134 19.4573 56.6859 19.4446" fill="#5FC8FF"/>
<path d="M41.8524 25.862C41.7289 25.9128 41.6054 25.9509 41.4819 25.989C41.4819 25.989 41.4682 25.989 41.4544 25.989C41.4544 25.989 41.4681 25.989 41.4819 25.989C41.0016 26.1415 40.4802 26.2305 39.9313 26.2305C46.6277 26.3195 52.5145 23.6127 56.7683 19.5081C56.7409 19.4954 56.7134 19.47 56.686 19.4573C55.9175 18.9616 55.1079 18.2881 54.3532 17.2588C53.7083 16.382 53.0085 15.5433 52.2537 14.7554C50.4012 19.7368 46.9433 23.9558 41.8387 25.862" fill="#0091F5"/>
<path d="M43.7597 24.4389C43.6911 24.5151 43.6362 24.5914 43.5676 24.6676C43.101 25.1759 42.511 25.5826 41.8523 25.8494C46.9569 23.956 50.4149 19.7243 52.2674 14.7428C51.9655 14.4251 51.6499 14.1075 51.3206 13.8025C49.9483 12.519 48.041 10.8543 45.8317 9.10059C47.149 15.0224 46.7099 20.9188 43.7734 24.4262" fill="#11A2F7"/>
<path d="M43.6088 18.6566C44.24 19.902 44.6929 21.0711 44.6929 21.8209C44.6929 22.5706 44.3498 23.7016 43.7598 24.4387C46.6963 20.944 47.1354 15.0349 45.8181 9.11307C41.7289 5.8853 36.5968 2.42878 31.8901 0.865723C40.3841 8.3379 43.2658 17.4748 43.6225 18.6439" fill="#3CB0F9"/>
<mask id="mask0_49_34668" style="mask-type:luminance" maskUnits="userSpaceOnUse" x="19" y="4" width="21" height="28">
<path d="M19.7872 8.52869C19.3207 10.1426 19.3207 11.7311 20.1577 12.7096C20.3224 12.9002 20.4871 13.1035 20.6517 13.3068C21.0222 13.7643 21.4065 14.2726 21.7907 14.8063C22.5866 15.8992 23.3962 17.1191 24.2058 18.3518C24.7272 19.1524 25.2486 19.9784 25.7426 20.779C26.4699 21.9608 27.1697 23.1172 27.7872 24.1593C28.2675 24.9599 30.9159 30.0303 32.3018 31.2375C33.1251 24.6549 35.6088 19.9403 35.8558 19.5082C37.1594 16.56 39.9313 12.6079 39.9313 12.6079C35.5951 6.76231 29.1046 4.47491 22.2435 4.16992C21.1732 5.2755 20.2401 6.9021 19.7735 8.51598" fill="white"/>
</mask>
<g mask="url(#mask0_49_34668)">
<path d="M39.9312 4.19531H19.3069V31.2502H39.9312V4.19531Z" fill="url(#paint0_linear_49_34668)"/>
</g>
<path d="M39.9452 12.6206C38.5043 13.6245 32.247 17.1573 27.7874 24.172C28.2676 24.9726 30.916 30.043 32.3019 31.2502C33.1253 24.6676 35.609 19.953 35.856 19.5209C37.1596 16.5727 39.9314 12.6206 39.9314 12.6206" fill="#62C0F9"/>
<path d="M39.9314 12.6206C39.753 12.4808 33.3996 7.62643 19.7736 8.52868C20.2401 6.9275 21.1732 5.28819 22.2435 4.18262C29.1046 4.4876 35.5952 6.7623 39.9314 12.6079" fill="#90D4FA"/>
<mask id="mask1_49_34668" style="mask-type:luminance" maskUnits="userSpaceOnUse" x="21" y="4" width="19" height="9">
<path d="M21.9553 4.5257C28.2126 4.8434 34.1543 6.8131 38.4081 11.6802C39.3961 12.2012 39.9039 12.5951 39.945 12.6333C35.6088 6.78769 29.1183 4.50029 22.2572 4.20801C22.1612 4.30967 22.0514 4.42404 21.9553 4.53841" fill="white"/>
</mask>
<g mask="url(#mask1_49_34668)">
<path d="M37.7496 -1.21823L18.9731 5.2522L24.1316 18.1048L42.908 11.6344L37.7496 -1.21823Z" fill="url(#paint1_linear_49_34668)"/>
</g>
<path d="M39.9451 12.6206C38.765 13.0273 31.3139 13.7643 24.2058 18.3645C24.7273 19.1651 25.2487 19.9911 25.7427 20.7917C26.47 21.9735 27.1698 23.1299 27.7873 24.172C32.2332 17.1573 38.4905 13.6245 39.9451 12.6206Z" fill="#6EC5FA"/>
<path d="M20.6517 13.3195C21.0222 13.7769 21.4065 14.2852 21.7907 14.819C22.5866 15.9118 23.3962 17.1318 24.2058 18.3644C31.3001 13.7515 38.7649 13.0272 39.945 12.6205C39.945 12.6205 31.6706 11.0193 20.6517 13.3068" fill="#7BCAFA"/>
<path d="M39.945 12.6206C39.945 12.6206 33.6054 7.60103 19.7872 8.52869C19.3207 10.1426 19.3207 11.7311 20.1577 12.7096C20.3224 12.9002 20.4871 13.1035 20.6517 13.3068C31.6706 11.0194 39.945 12.6206 39.945 12.6206Z" fill="#85CFFA"/>
<mask id="mask2_49_34668" style="mask-type:luminance" maskUnits="userSpaceOnUse" x="32" y="19" width="4" height="13">
<path d="M32.3018 31.25C32.4115 31.339 32.5213 31.4406 32.6585 31.5296C33.18 27.4123 34.3464 24.032 35.1971 21.9734C35.1971 21.9225 35.1971 21.8717 35.1971 21.8209C35.1971 21.249 35.4578 20.4357 35.8695 19.5208C35.6088 19.9528 33.1251 24.6674 32.3155 31.25" fill="white"/>
</mask>
<g mask="url(#mask2_49_34668)">
<path d="M33.4502 17.9126L26.16 27.4885L34.6578 33.0431L41.948 23.4672L33.4502 17.9126Z" fill="url(#paint2_linear_49_34668)"/>
</g>
<mask id="mask3_49_34668" style="mask-type:luminance" maskUnits="userSpaceOnUse" x="39" y="19" width="18" height="8">
<path d="M41.8935 25.8365C41.9072 25.8365 41.9347 25.8238 41.9347 25.8238C41.9347 25.8238 41.9346 25.8238 41.8935 25.8365ZM41.8523 25.8619C41.7288 25.9128 41.6053 25.9509 41.4818 25.989C41.0015 26.1415 40.4801 26.2305 39.9449 26.2305C46.6413 26.3194 52.5281 23.6127 56.782 19.508C56.7545 19.4953 56.7271 19.4699 56.6996 19.4572C56.631 19.4064 56.5213 19.3301 56.4389 19.2793C52.734 22.7358 47.3823 25.3536 41.8386 25.8492" fill="white"/>
</mask>
<g mask="url(#mask3_49_34668)">
<path d="M54.0995 13.5078L37.163 20.3315L42.6101 31.9398L59.5467 25.116L54.0995 13.5078Z" fill="url(#paint3_linear_49_34668)"/>
</g>
<path d="M41.1115 18.2501C41.0429 18.2247 40.9743 18.1993 40.9194 18.1866C40.9469 18.2247 40.988 18.2501 41.0155 18.2882C41.0978 18.3772 41.1664 18.4788 41.2488 18.5805C41.4134 18.8092 41.5644 19.0634 41.6879 19.3175C41.8114 19.5717 41.9074 19.8386 41.976 20.1181V20.1436L41.5369 20.2452L41.3174 20.296V20.2706C41.1253 19.5717 40.7822 18.9744 40.2882 18.4788V22.253C40.1922 22.3293 40.0824 22.4055 39.9863 22.4818H39.9726H39.9589C39.8491 22.4055 39.753 22.3293 39.657 22.2658V18.4915C39.163 18.9871 38.8199 19.5971 38.6416 20.2833V20.3088L38.4083 20.2579L37.9829 20.1563V20.1308C38.0652 19.8386 38.1613 19.559 38.2848 19.3048C38.4083 19.038 38.5592 18.7965 38.7239 18.5678C38.7925 18.4788 38.8611 18.3899 38.9297 18.3136C38.9572 18.2755 38.9983 18.2374 39.0258 18.1993C38.9572 18.2247 38.8886 18.2374 38.8199 18.2628C38.2848 18.4534 37.7084 18.7584 37.0772 19.1778L37.0223 19.2159C37.187 18.8855 37.3654 18.5297 37.585 18.123C37.8594 17.9705 38.1338 17.8434 38.4083 17.7418C38.4769 17.7164 38.5318 17.691 38.6004 17.6655C38.7239 17.6147 38.8611 17.5766 38.9709 17.5512C38.6964 17.4241 38.3946 17.3224 38.0789 17.2335C38.1476 17.1064 38.2299 16.9793 38.3122 16.8395C38.3397 16.776 38.3808 16.7252 38.4083 16.6743C38.8474 16.8014 39.259 16.9666 39.6433 17.1826C39.6433 16.9158 39.7119 16.5727 39.7668 16.2677L39.9589 15.4163H39.9726L40.1647 16.2677C40.2333 16.5727 40.2882 16.9158 40.2882 17.1826C40.6724 16.9793 41.0841 16.8014 41.5232 16.6743C41.5506 16.7252 41.5918 16.7887 41.6192 16.8395C41.7016 16.9793 41.7702 17.1064 41.8525 17.2335C41.5506 17.3097 41.2488 17.4241 40.9743 17.5512C41.0978 17.5893 41.2213 17.6274 41.3448 17.6655C41.3997 17.691 41.4683 17.7037 41.5232 17.7291C41.5781 17.7418 41.6193 17.7672 41.6741 17.7926C41.8937 17.8816 42.127 17.9959 42.3602 18.1103C42.5798 18.517 42.7719 18.8728 42.9228 19.2032L42.868 19.1651C42.2367 18.7457 41.6467 18.428 41.1115 18.2501Z" fill="#003EB1"/>
<path d="M43.7597 21.8082C43.7597 21.9988 43.7323 22.2021 43.6911 22.38C42.6208 22.3419 41.7563 22.5452 41.0839 22.9773C41.0427 23.0027 41.0016 23.0281 40.9604 23.0535C40.8232 23.1425 40.6722 23.2568 40.5213 23.3712C40.4939 23.3966 40.4527 23.422 40.4253 23.4475C41.0427 23.8922 41.7288 24.3116 42.4287 24.4005C42.2228 24.5657 41.9896 24.7182 41.7563 24.8326C41.0976 24.6166 40.4801 24.2099 39.9312 23.816C39.3824 24.2226 38.7649 24.6166 38.1199 24.8326C37.8867 24.7182 37.6534 24.5657 37.4475 24.4005C38.1337 24.2989 38.8198 23.8795 39.4373 23.4475C39.4098 23.422 39.3686 23.3966 39.3412 23.3712C39.1903 23.2568 39.0393 23.1425 38.9021 23.0535C38.8609 23.0281 38.8198 23.0027 38.7786 22.9773C38.1062 22.5452 37.2417 22.3546 36.1714 22.38C36.1302 22.1894 36.1165 21.9988 36.1028 21.8082C37.3241 21.7573 38.3395 21.9988 39.1216 22.5071C39.2177 22.5706 39.3138 22.6342 39.4235 22.7104C39.5608 22.8121 39.698 22.9137 39.8489 23.0281C39.8764 23.0535 39.9038 23.0662 39.9175 23.0789C39.945 23.0535 39.9587 23.0408 39.9861 23.0281C40.1371 22.9137 40.2743 22.8121 40.3978 22.7231C40.5076 22.6469 40.6036 22.5833 40.6997 22.5198C41.4956 22.0115 42.511 21.7827 43.7323 21.8209" fill="#003EB1"/>
<path d="M1.87988 47.2236C2.18177 47.2236 2.44249 47.1855 2.66204 47.0965C2.89532 47.0076 3.08743 46.8932 3.25209 46.7407C3.41676 46.5882 3.54026 46.3976 3.62259 46.1816C3.70492 45.9655 3.74609 45.7114 3.74609 45.4445C3.74609 45.1777 3.66376 44.771 3.51281 44.466C3.34815 44.161 3.08743 43.8306 2.71693 43.4875L2.46993 43.2715H1.37216L1.09772 43.5383C0.370446 44.2373 0.0136719 44.9108 0.0136719 45.5843C0.0136719 46.2578 0.178338 46.4738 0.507669 46.7788C0.837 47.0838 1.28983 47.2363 1.87988 47.2363M0.960497 44.9743C1.05655 44.8345 1.2075 44.6566 1.41333 44.4406L1.75638 44.0848H1.82499L2.22293 44.4406C2.49738 44.6693 2.67576 44.86 2.78554 45.0252C2.89532 45.1904 2.9502 45.3429 2.9502 45.4826C2.9502 45.6987 2.86787 45.8639 2.68949 46.0037C2.5111 46.1434 2.27782 46.207 1.98966 46.207H1.79755C1.50938 46.207 1.27611 46.1307 1.09772 45.9782C0.919331 45.8257 0.836999 45.6478 0.836999 45.4318C0.836999 45.2158 0.891888 45.1141 0.987943 44.9743" fill="#003EB1"/>
<path d="M7.71184 49.0027C7.86278 49.0027 7.97256 48.9646 8.06861 48.8757C8.16467 48.7867 8.20583 48.6596 8.20583 48.4817C8.20583 48.3038 8.16467 48.164 8.06861 48.0878C7.97256 48.0115 7.86278 47.9607 7.71184 47.9607H7.56089C7.40995 47.9607 7.30017 47.9988 7.20412 48.0878C7.12178 48.164 7.06689 48.3038 7.06689 48.4817C7.06689 48.6596 7.10806 48.7867 7.20412 48.8757C7.28645 48.9646 7.40995 49.0027 7.56089 49.0027H7.71184Z" fill="#003EB1"/>
<path d="M9.56423 48.4944C9.56423 48.3165 9.52306 48.1767 9.42701 48.1005C9.33095 48.0242 9.22117 47.9734 9.07023 47.9734H8.91929C8.76834 47.9734 8.65857 48.0115 8.56251 48.1005C8.48018 48.1767 8.42529 48.3165 8.42529 48.4944C8.42529 48.6723 8.46646 48.7994 8.56251 48.8883C8.64485 48.9773 8.76834 49.0154 8.91929 49.0154H9.07023C9.22117 49.0154 9.33095 48.9773 9.42701 48.8883C9.52306 48.7994 9.56423 48.6723 9.56423 48.4944Z" fill="#003EB1"/>
<path d="M19.4855 45.4065C19.4855 45.6479 19.4306 45.8386 19.3208 45.9529C19.211 46.0673 19.0052 46.1308 18.7308 46.1308H18.0584C17.5507 46.1308 17.2899 45.8894 17.2899 45.4192V40.4632H16.3843V45.4192C16.3843 45.8894 16.1098 46.1308 15.5884 46.1308H15.0532C14.9435 46.1308 14.8474 46.1308 14.7788 46.1054C14.6965 46.08 14.6279 46.0546 14.573 46.0038C14.5181 45.9529 14.4495 45.8894 14.4083 45.8004C14.3534 45.7115 14.2985 45.5971 14.2574 45.47L13.5301 43.6528H12.5558L12.0206 43.9578C11.5678 44.2247 11.2248 44.5042 10.9915 44.7838C10.7582 45.0634 10.6484 45.3811 10.6484 45.7115C10.6484 46.0419 10.6484 45.9275 10.6759 46.0292C10.5798 46.0673 10.4838 46.0927 10.3603 46.1054C10.2368 46.1054 10.0858 46.1181 9.88 46.1181H9.5095C9.00178 46.1181 8.75479 45.8767 8.75479 45.4065V44.034H7.91774V45.4065C7.91774 45.8767 7.65702 46.1181 7.10813 46.1181H6.46319C6.17503 46.1181 5.96919 46.0673 5.84569 45.9783C5.7222 45.8894 5.65359 45.7115 5.65359 45.4573V40.4377H4.74792V45.5336C4.74792 46.1054 4.88515 46.5121 5.15959 46.7535C5.43403 46.995 5.88686 47.122 6.51808 47.122H6.5318C6.95719 47.122 7.28652 47.0458 7.49235 46.8933C7.69818 46.7408 7.84912 46.4739 7.91774 46.0927H7.97262C8.05496 46.4485 8.23335 46.7027 8.49407 46.8679C8.75479 47.0331 9.12528 47.122 9.60555 47.122C9.89372 47.122 10.127 47.0585 10.2917 46.9314C10.4563 46.8043 10.5935 46.601 10.6759 46.3342H10.7308C10.8543 46.5883 11.0464 46.7789 11.3208 46.9187C11.5953 47.0585 11.952 47.122 12.3774 47.122H13.5713V46.4612H13.6261C13.7771 46.7027 13.9555 46.8679 14.1613 46.9695C14.3671 47.0712 14.6416 47.122 14.9984 47.122C15.3551 47.122 15.7393 47.0458 15.9452 46.8933C16.151 46.7408 16.2882 46.4739 16.3706 46.0927H16.4255C16.5078 46.4485 16.6862 46.7027 16.9606 46.8679C17.2351 47.0331 17.6193 47.122 18.0996 47.122H18.6759C19.2796 47.122 19.705 46.9823 19.9658 46.7027C20.2265 46.4231 20.35 45.9783 20.35 45.3938V40.4377H19.4443V45.3938L19.4855 45.4065ZM12.2676 46.1181C11.9795 46.1181 11.7599 46.08 11.5953 45.991C11.4443 45.9148 11.362 45.775 11.362 45.5971C11.362 45.4192 11.4443 45.2921 11.609 45.165C11.7737 45.0253 11.9795 44.8982 12.2402 44.7838L12.8165 44.5169L13.3243 45.8004C13.3517 45.864 13.3791 45.9148 13.3929 45.9783C13.4066 46.0292 13.434 46.08 13.4615 46.1308H12.2539L12.2676 46.1181Z" fill="#003EB1"/>
<path d="M24.9743 46.5883C25.3036 46.5883 25.578 46.512 25.7839 46.3722C25.9897 46.2198 26.1406 45.9783 26.2367 45.6479H26.2916V45.7623C26.2916 46.2325 26.4151 46.5883 26.6758 46.817C26.9365 47.0458 27.3482 47.1601 27.9382 47.1601H28.3774C29.0635 47.1601 29.5712 47.0203 29.9005 46.7535C30.2298 46.4739 30.3945 46.0546 30.3945 45.4954C30.3945 44.9363 30.3533 44.8346 30.2847 44.3517L30.1612 43.5638L29.3242 43.6909L29.4751 44.4788C29.5163 44.7329 29.5437 44.949 29.5712 45.1015C29.5849 45.254 29.5986 45.3937 29.5986 45.4954C29.5986 45.7369 29.5026 45.9148 29.3242 46.0037C29.1458 46.0927 28.8302 46.1435 28.3911 46.1435H27.8696C27.6226 46.1435 27.4305 46.1054 27.3207 46.0164C27.211 45.9402 27.1424 45.7877 27.1424 45.5717V42.4583H26.2641V42.9411L25.235 43.4495C24.9605 43.5892 24.7135 43.729 24.5077 43.8561C24.3019 43.9959 24.1372 44.1357 24 44.2882C23.8628 44.4407 23.7667 44.6059 23.6981 44.7711C23.6295 44.949 23.6021 45.1269 23.6021 45.3302C23.6021 45.7369 23.7256 46.0418 23.9588 46.2706C24.1921 46.4993 24.5352 46.601 24.988 46.601M24.6175 44.5932C24.7684 44.4661 25.0292 44.3136 25.3722 44.1484L26.2367 43.729V44.949C26.2367 45.1777 26.1544 45.3429 26.0034 45.4319C25.8388 45.5208 25.578 45.5717 25.1801 45.5717C24.7822 45.5717 24.6724 45.5335 24.5626 45.4573C24.4391 45.381 24.3842 45.254 24.3842 45.0761C24.3842 44.8981 24.4665 44.7329 24.6175 44.6059" fill="#003EB1"/>
<path d="M26.6345 41.7085H26.7854C26.9364 41.7085 27.0462 41.6704 27.1422 41.5815C27.2383 41.4925 27.2794 41.3654 27.2794 41.1875C27.2794 41.0096 27.2383 40.8698 27.1422 40.7936C27.0462 40.7173 26.9364 40.6665 26.7854 40.6665H26.6345C26.4836 40.6665 26.3738 40.7046 26.2777 40.7936C26.1954 40.8698 26.1405 41.0096 26.1405 41.1875C26.1405 41.3654 26.1817 41.4925 26.2777 41.5815C26.3601 41.6704 26.4836 41.7085 26.6345 41.7085Z" fill="#003EB1"/>
<path d="M25.2624 41.7085H25.4134C25.5643 41.7085 25.6741 41.6704 25.7702 41.5815C25.8662 41.4925 25.9074 41.3654 25.9074 41.1875C25.9074 41.0096 25.8662 40.8698 25.7702 40.7936C25.6741 40.7173 25.5643 40.6665 25.4134 40.6665H25.2624C25.1115 40.6665 25.0017 40.7046 24.9057 40.7936C24.8233 40.8698 24.7684 41.0096 24.7684 41.1875C24.7684 41.3654 24.8096 41.4925 24.9057 41.5815C24.988 41.6704 25.1115 41.7085 25.2624 41.7085Z" fill="#003EB1"/>
<path d="M28.9673 47.9734H28.8164C28.6654 47.9734 28.5557 48.0115 28.4596 48.1005C28.3773 48.1767 28.3224 48.3165 28.3224 48.4944C28.3224 48.6723 28.3636 48.7994 28.4596 48.8883C28.5419 48.9773 28.6654 49.0154 28.8164 49.0154H28.9673C29.1183 49.0154 29.228 48.9773 29.3241 48.8883C29.4202 48.7994 29.4613 48.6723 29.4613 48.4944C29.4613 48.3165 29.4202 48.1767 29.3241 48.1005C29.228 48.0242 29.1183 47.9734 28.9673 47.9734Z" fill="#003EB1"/>
<path d="M30.1886 49.0027H30.3395C30.4905 49.0027 30.614 48.9646 30.6963 48.8757C30.7923 48.7867 30.8335 48.6596 30.8335 48.4817C30.8335 48.3038 30.7923 48.164 30.6963 48.0878C30.6002 48.0115 30.4905 47.9607 30.3395 47.9607H30.1886C30.0376 47.9607 29.9279 47.9988 29.8318 48.0878C29.7495 48.164 29.6946 48.3038 29.6946 48.4817C29.6946 48.6596 29.7357 48.7867 29.8318 48.8757C29.9141 48.9646 30.0376 49.0027 30.1886 49.0027Z" fill="#003EB1"/>
<path d="M32.1097 47.1347H33.3721C33.921 47.1347 34.3601 46.995 34.662 46.7154C34.9639 46.4358 35.1148 46.0419 35.1148 45.5463C35.1148 45.0507 35.0874 45.165 35.0462 44.9871C35.005 44.8219 34.9364 44.644 34.8541 44.4661C34.758 44.2882 34.6482 44.123 34.4973 43.9324C34.3464 43.7545 34.168 43.5511 33.9621 43.3351L33.0702 42.4329L32.288 43.1699L33.276 44.123C33.6328 44.4534 33.8935 44.7076 34.0445 44.9236C34.1954 45.1269 34.264 45.3175 34.264 45.5081C34.264 45.6988 34.2091 45.8258 34.0994 45.9402C33.9896 46.0546 33.7837 46.1181 33.4819 46.1181H31.9313V45.4827H31.0668V46.1435C31.0668 46.4866 31.1628 46.7408 31.3412 46.906C31.5333 47.0712 31.7803 47.1474 32.1097 47.1474" fill="#003EB1"/>
<path d="M52.6106 47.1347H53.1869C53.7907 47.1347 54.2161 46.995 54.4768 46.7154C54.7375 46.4358 54.861 45.991 54.861 45.4065V40.4504H53.9554V45.4065C53.9554 45.6479 53.9005 45.8385 53.7907 45.9529C53.6809 46.0673 53.4751 46.1308 53.2007 46.1308H52.5008C51.9931 46.1308 51.7461 45.8894 51.7461 45.4192V44.4026H50.9091V45.4192C50.9091 45.7115 50.8679 45.9275 50.7718 46.0546C50.6758 46.1817 50.5248 46.2452 50.319 46.2452H50.1406C49.9211 46.2452 49.7701 46.1817 49.6878 46.0546C49.6055 45.9275 49.5506 45.7242 49.5506 45.4192V44.7711H48.7135V45.4192C48.7135 45.7242 48.6449 45.9402 48.5077 46.0673C48.3705 46.1944 48.1646 46.2452 47.8627 46.2452C47.5609 46.2452 47.4922 46.2198 47.3139 46.1817C47.1355 46.1308 46.9571 46.0673 46.7513 45.9656L46.6826 45.9275L47.1218 45.1269L46.3945 44.7838L45.9965 45.5336C45.9279 45.6479 45.873 45.7496 45.8044 45.8258C45.7358 45.9021 45.6672 45.9656 45.5849 46.0165C45.5025 46.0673 45.4202 46.0927 45.3104 46.1181C45.2007 46.1308 45.0909 46.1435 44.9537 46.1435H44.7615H43.307C43.4991 45.9783 43.6638 45.8512 43.801 45.7369C43.9382 45.6225 44.0343 45.5208 44.1303 45.4065C44.2127 45.2921 44.2813 45.1777 44.3087 45.0634C44.3499 44.949 44.3636 44.7965 44.3636 44.644C44.3636 44.1865 44.1989 43.8434 43.8696 43.6147C43.5403 43.3859 43.0326 43.2589 42.3739 43.2589C41.7152 43.2589 41.7152 43.297 41.3722 43.3732C41.0291 43.4495 40.7135 43.5511 40.4116 43.6909V44.733L41.5917 46.1054V46.1435H39.5609C39.5609 45.3302 39.3825 44.6948 39.0669 44.2501C38.7513 43.7926 38.2984 43.5766 37.7358 43.5766C37.1732 43.5766 37.2144 43.6274 36.9948 43.7418C36.7753 43.8561 36.5694 43.9959 36.4048 44.1738C36.2401 44.3517 36.1166 44.5805 36.0206 44.8346C35.9245 45.0888 35.8833 45.3556 35.8833 45.6479C35.8833 46.1308 36.0206 46.5121 36.3087 46.7789C36.5969 47.0458 36.9948 47.1729 37.5163 47.1729H38.6827C38.5592 47.5287 38.3122 47.821 37.9279 48.0116C37.5437 48.2149 37.0223 48.3166 36.3362 48.3166H35.7736V49.3332H36.3773C37.2418 49.3332 37.9279 49.1426 38.4357 48.774C38.9434 48.3928 39.2864 47.8591 39.4511 47.1729H40.7821C41.0703 47.1729 41.3585 47.1347 41.6329 47.0712C41.9073 47.0077 42.1818 46.8933 42.4151 46.7281C42.6621 46.8806 42.9365 46.9949 43.2247 47.0712C43.5266 47.1347 43.8147 47.1729 44.1166 47.1729H44.5283C44.9125 47.1729 45.2144 47.1474 45.4614 47.0839C45.7084 47.0204 45.9279 46.906 46.12 46.7154L46.3808 46.8552C46.6552 47.0077 46.8885 47.1093 47.0806 47.1856C47.2727 47.2491 47.4648 47.2872 47.6569 47.2872C48.2607 47.2872 48.6175 46.9314 48.7272 46.2325H48.7821C48.9056 46.9314 49.2898 47.2872 49.9485 47.2872C50.6072 47.2872 50.4974 47.211 50.6621 47.0458C50.8267 46.8806 50.9365 46.6137 50.9777 46.2325H51.0326C51.1286 46.5629 51.2933 46.7916 51.5403 46.9568C51.7873 47.1093 52.1441 47.1856 52.5832 47.1856L52.6106 47.1347ZM38.7513 46.1181H37.5574C37.2693 46.1181 37.0497 46.0673 36.8988 45.9656C36.7478 45.864 36.6792 45.6988 36.6792 45.4827C36.6792 45.2667 36.7616 44.9871 36.9399 44.8219C37.1183 44.6567 37.3516 44.5678 37.6398 44.5678C37.9279 44.5678 38.2298 44.6948 38.4357 44.949C38.6415 45.2031 38.7513 45.5336 38.7513 45.9529V46.1308V46.1181ZM42.7993 45.686L42.4837 45.9275L41.1526 44.4407V44.4026C41.5506 44.3009 41.9485 44.2501 42.3465 44.2501C43.1561 44.2501 43.554 44.428 43.554 44.7965C43.554 45.165 43.4854 45.0888 43.3619 45.2031C43.2384 45.3175 43.0463 45.47 42.7856 45.6733" fill="#003EB1"/>
<path d="M57.0977 40.4504H56.192V47.1347H57.0977V40.4504Z" fill="#003EB1"/>
<path d="M63.3276 41.7085H63.4786C63.6295 41.7085 63.753 41.6704 63.8353 41.5815C63.9314 41.4925 63.9726 41.3654 63.9726 41.1875C63.9726 41.0096 63.9314 40.8698 63.8353 40.7936C63.7393 40.7173 63.6295 40.6665 63.4786 40.6665H63.3276C63.1767 40.6665 63.0669 40.7046 62.9708 40.7936C62.8885 40.8698 62.8336 41.0096 62.8336 41.1875C62.8336 41.3654 62.8748 41.4925 62.9708 41.5815C63.0532 41.6704 63.1767 41.7085 63.3276 41.7085Z" fill="#003EB1"/>
<path d="M61.9691 41.7085H62.12C62.271 41.7085 62.3945 41.6704 62.4768 41.5815C62.5729 41.4925 62.614 41.3654 62.614 41.1875C62.614 41.0096 62.5729 40.8698 62.4768 40.7936C62.3808 40.7173 62.271 40.6665 62.12 40.6665H61.9691C61.8182 40.6665 61.7084 40.7046 61.6123 40.7936C61.53 40.8698 61.4751 41.0096 61.4751 41.1875C61.4751 41.3654 61.5163 41.4925 61.6123 41.5815C61.6947 41.6704 61.8182 41.7085 61.9691 41.7085Z" fill="#003EB1"/>
<path d="M67.4579 42.6363H66.7855C66.3326 42.6363 66.1131 42.5219 66.1131 42.2804C66.1131 42.039 66.1543 42.1407 66.2229 42.0898C66.2915 42.039 66.3875 42.0136 66.4973 42.0136C66.6757 42.0136 66.8266 42.0771 66.9776 42.2169L67.3893 41.734C67.2795 41.6196 67.156 41.518 66.9913 41.4544C66.8266 41.3909 66.662 41.3528 66.4973 41.3528C66.2229 41.3528 65.9896 41.429 65.8112 41.5942C65.6328 41.7594 65.5368 41.95 65.5368 42.1915C65.5368 42.4329 65.5917 42.5346 65.7152 42.6617V42.7125H65.3309V43.3352H67.4441V42.6617L67.4579 42.6363Z" fill="#003EB1"/>
<path d="M68.7341 49.0027H68.885C69.0359 49.0027 69.1594 48.9646 69.2418 48.8757C69.3378 48.7867 69.379 48.6596 69.379 48.4817C69.379 48.3038 69.3378 48.164 69.2418 48.0878C69.1457 48.0115 69.0359 47.9607 68.885 47.9607H68.7341C68.5831 47.9607 68.4733 47.9988 68.3773 48.0878C68.2949 48.164 68.2538 48.3038 68.2538 48.4817C68.2538 48.6596 68.2949 48.7867 68.3773 48.8757C68.4596 48.9646 68.5831 49.0027 68.7341 49.0027Z" fill="#003EB1"/>
<path d="M70.2435 47.9734H70.0925C69.9416 47.9734 69.8318 48.0115 69.7357 48.1005C69.6534 48.1767 69.5985 48.3165 69.5985 48.4944C69.5985 48.6723 69.6397 48.7994 69.7357 48.8883C69.8181 48.9773 69.9416 49.0154 70.0925 49.0154H70.2435C70.3944 49.0154 70.5042 48.9773 70.6002 48.8883C70.6963 48.7994 70.7374 48.6723 70.7374 48.4944C70.7374 48.3165 70.6963 48.1767 70.6002 48.1005C70.5042 48.0242 70.3944 47.9734 70.2435 47.9734Z" fill="#003EB1"/>
<path d="M74.7719 47.1347H76.0755C76.6793 47.1347 77.1047 46.9949 77.3654 46.7154C77.6261 46.4358 77.7496 45.991 77.7496 45.4065V40.4504H76.8439V45.4065C76.8439 45.6479 76.789 45.8385 76.6793 45.9529C76.5695 46.0673 76.3637 46.1308 76.0892 46.1308H74.9777C74.7582 46.1308 74.5798 46.1816 74.4563 46.2833C74.3328 46.385 74.223 46.5629 74.1132 46.8297L73.3174 48.6597C73.1939 48.4818 73.0841 48.3166 73.0017 48.1768C72.9194 48.037 72.8508 47.9099 72.7959 47.7955C72.741 47.6812 72.6999 47.5668 72.6861 47.4778C72.6587 47.3762 72.645 47.2872 72.645 47.1856C72.645 47.0839 72.645 46.9949 72.6724 46.8933C72.6861 46.7916 72.7136 46.69 72.7547 46.5883C72.7959 46.4866 72.8371 46.3723 72.9057 46.2452C72.9606 46.1181 73.0292 45.9783 73.1115 45.8258L73.482 45.1269L72.7685 44.7838L72.3705 45.5336C72.247 45.7623 72.1098 45.9275 71.9589 46.0164C71.8079 46.1054 71.6021 46.1562 71.3414 46.1562H70.6964C70.1887 46.1562 69.9417 45.9148 69.9417 45.4446V44.0722H69.1047V45.4446C69.1047 45.9148 68.8302 46.1562 68.3088 46.1562H67.6227C67.115 46.1562 66.868 45.9148 66.868 45.4446V44.0722H66.0309V45.4446C66.0309 45.9148 65.7702 46.1562 65.235 46.1562H64.5901C64.3431 46.1562 64.151 46.1181 64.0412 46.0292C63.9314 45.9529 63.8628 45.8004 63.8628 45.5844V42.471H62.9846V42.9539L61.9554 43.4622C61.681 43.602 61.434 43.7418 61.2282 43.8688C61.0223 44.0086 60.8577 44.1484 60.7204 44.3009C60.5832 44.4534 60.4872 44.6186 60.4186 44.7838C60.3499 44.9617 60.3225 45.1396 60.3225 45.3429C60.3225 45.7496 60.446 46.0546 60.6793 46.2833C60.9126 46.512 61.2556 46.6137 61.7084 46.6137C62.1613 46.6137 62.3122 46.5375 62.518 46.3977C62.7239 46.2452 62.8748 46.0037 62.9709 45.6733H63.0258V45.7877C63.0258 46.2579 63.1493 46.6137 63.41 46.8425C63.6707 47.0712 64.0824 47.1856 64.6724 47.1856C65.2625 47.1856 65.4271 47.1093 65.633 46.9568C65.8388 46.8043 65.9897 46.5375 66.0584 46.1562H66.1132C66.1956 46.512 66.374 46.7662 66.6347 46.9314C66.8954 47.0966 67.2659 47.1856 67.7462 47.1856C68.1716 47.1856 68.5009 47.1093 68.7067 46.9568C68.9126 46.8043 69.0635 46.5375 69.1321 46.1562H69.187C69.2693 46.512 69.4477 46.7662 69.7084 46.9314C69.9692 47.0966 70.3397 47.1856 70.8199 47.1856C71.2042 47.1856 71.4923 47.1601 71.6707 47.1093C71.8628 47.0585 72.0137 46.9695 72.151 46.8552L72.2059 46.8806C72.0961 47.0204 72.0137 47.1729 71.9451 47.3508C71.8765 47.5287 71.8354 47.7066 71.8354 47.8972C71.8354 48.0878 71.8354 48.1132 71.8765 48.2149C71.904 48.3166 71.9451 48.4309 72.0137 48.558C72.0824 48.6851 72.1784 48.8376 72.2882 49.0028C72.398 49.1807 72.5489 49.384 72.7136 49.6255H73.7839L74.8131 47.1856L74.7719 47.1347ZM62.9434 44.949C62.9434 45.1777 62.8611 45.3429 62.7102 45.4319C62.5455 45.5208 62.2848 45.5717 61.8868 45.5717C61.4889 45.5717 61.3791 45.5336 61.2693 45.4573C61.1458 45.3811 61.0909 45.254 61.0909 45.0761C61.0909 44.8982 61.1733 44.733 61.3242 44.6059C61.4752 44.4788 61.7359 44.3263 62.0789 44.1611L62.9434 43.7418V44.9617V44.949Z" fill="#003EB1"/>
<path d="M79.9999 40.4504H79.0942V47.1347H79.9999V40.4504Z" fill="#003EB1"/>
<path d="M2.4837 53.5268L1.97599 53.4378C1.71527 53.3997 1.50943 53.3235 1.39966 53.2345C1.27616 53.1456 1.22127 53.0058 1.22127 52.8024C1.22127 52.5991 1.28988 52.472 1.44082 52.3577C1.59177 52.256 1.81132 52.2052 2.11321 52.2052C2.4151 52.2052 2.64837 52.256 2.84048 52.345C3.03259 52.4466 3.19726 52.561 3.33448 52.7262L4.03431 52.1035C3.81475 51.8494 3.55403 51.6715 3.23842 51.5444C2.93653 51.4173 2.56604 51.3538 2.15437 51.3538C1.74271 51.3538 1.56432 51.3919 1.33105 51.4554C1.08405 51.5317 0.878217 51.6333 0.713552 51.7604C0.535164 51.8875 0.411666 52.0527 0.315611 52.2306C0.219556 52.4212 0.17839 52.6245 0.17839 52.8533C0.17839 53.6793 0.727274 54.1749 1.81132 54.3401L2.33276 54.4163C2.62092 54.4672 2.81304 54.5434 2.92281 54.6451C3.03259 54.7467 3.07376 54.8865 3.07376 55.0644C3.07376 55.2423 2.99142 55.4584 2.82676 55.5854C2.66209 55.7125 2.42882 55.7761 2.09949 55.7761C1.77016 55.7761 1.56432 55.7252 1.33105 55.6109C1.09777 55.5092 0.891939 55.344 0.699829 55.1407L0 55.7761C0.233276 56.0302 0.521441 56.2335 0.83705 56.386C1.16638 56.5385 1.56432 56.6148 2.03088 56.6148C2.49743 56.6148 2.64837 56.5767 2.90909 56.5004C3.15609 56.4242 3.37564 56.3098 3.55403 56.17C3.73242 56.0302 3.85592 55.8523 3.95197 55.6617C4.04803 55.4584 4.08919 55.2423 4.08919 55.0009C4.08919 54.5815 3.95197 54.2511 3.69125 54.0097C3.43053 53.7682 3.01887 53.603 2.46998 53.5141" fill="#003EB1"/>
<path d="M8.21952 53.9969C8.21952 53.5649 8.0823 53.2218 7.79413 52.993C7.50597 52.7643 7.08058 52.6372 6.5317 52.6372C5.98281 52.6372 5.79071 52.7008 5.54371 52.8405C5.29671 52.9803 5.09087 53.1582 4.93993 53.3743L5.52999 53.8699C5.62604 53.7428 5.74954 53.6284 5.90048 53.5268C6.0377 53.4378 6.22981 53.387 6.46309 53.387C6.69636 53.387 6.91592 53.4505 7.03942 53.5649C7.16292 53.6792 7.2178 53.8444 7.2178 54.0605V54.3401H6.51798C5.95537 54.3401 5.52998 54.4417 5.2281 54.6323C4.92621 54.8229 4.77527 55.1152 4.77527 55.5092C4.77527 55.9031 4.88505 56.1191 5.11832 56.3225C5.33788 56.5258 5.66721 56.6275 6.07887 56.6275C6.49053 56.6275 6.64148 56.5639 6.84731 56.4368C7.05314 56.3098 7.19036 56.1318 7.25897 55.8777H7.30014C7.32758 56.081 7.40992 56.2335 7.53342 56.3606C7.65691 56.475 7.8353 56.5385 8.05485 56.5385H8.61746V55.7887H8.2058V53.9969H8.21952ZM7.2178 55.4075C7.2178 55.5854 7.13547 55.7252 6.98453 55.8142C6.83359 55.9031 6.64148 55.9539 6.4082 55.9539C6.17492 55.9539 6.05143 55.9158 5.95537 55.8396C5.84559 55.7633 5.7907 55.649 5.7907 55.4965V55.3694C5.7907 55.0644 6.05143 54.8992 6.57287 54.8992H7.2178V55.3948V55.4075Z" fill="#003EB1"/>
<path d="M11.897 55.2549C11.897 55.3566 11.8696 55.4455 11.8284 55.5218C11.7873 55.598 11.7186 55.6616 11.65 55.7124C11.5814 55.7632 11.4854 55.8014 11.3893 55.8268C11.2933 55.8522 11.1972 55.8649 11.1012 55.8649C10.8542 55.8649 10.6895 55.8013 10.5797 55.6616C10.4699 55.5218 10.415 55.3185 10.415 55.0643V52.7515H9.41333V55.166C9.41333 55.6489 9.52311 56.0174 9.75638 56.2715C9.97594 56.5257 10.3053 56.6655 10.7307 56.6655C11.156 56.6655 11.0463 56.6401 11.1698 56.6019C11.2933 56.5638 11.403 56.513 11.4991 56.4367C11.5951 56.3732 11.6638 56.297 11.7324 56.208C11.7873 56.119 11.8421 56.0301 11.8833 55.9284H11.9245V56.5638H12.9262V52.7388H11.9245V55.2676L11.897 55.2549Z" fill="#003EB1"/>
<path d="M16.5899 53.3615H16.5488C16.4802 53.1455 16.3429 52.9676 16.1371 52.8405C15.9313 52.7135 15.698 52.6499 15.4236 52.6499C14.9021 52.6499 14.5179 52.8278 14.2435 53.1709C13.969 53.514 13.8318 54.0096 13.8318 54.645C13.8318 55.2804 13.969 55.7887 14.2435 56.1318C14.5179 56.475 14.9158 56.6529 15.4236 56.6529C15.9313 56.6529 15.9313 56.5893 16.1371 56.4495C16.3429 56.3225 16.4802 56.1446 16.5488 55.9285H16.5899V56.5639H17.5916V51.1504H16.5899V53.3743V53.3615ZM16.5899 55.2423C16.5899 55.4456 16.5076 55.5981 16.3429 55.6998C16.1783 55.8014 15.9862 55.865 15.7392 55.865C15.4922 55.865 15.2726 55.7887 15.1079 55.6235C14.9433 55.4583 14.8747 55.2423 14.8747 54.9754V54.3146C14.8747 54.0478 14.957 53.819 15.1079 53.6538C15.2726 53.4886 15.4784 53.4124 15.7392 53.4124C15.9999 53.4124 16.1783 53.4632 16.3429 53.5776C16.5076 53.692 16.5899 53.8444 16.5899 54.0224V55.2423Z" fill="#003EB1"/>
<path d="M19.7598 52.7261H18.7581V56.5511H19.7598V52.7261Z" fill="#003EB1"/>
<path d="M19.2522 51.0869C19.0463 51.0869 18.8954 51.125 18.7993 51.214C18.7033 51.3029 18.6621 51.4173 18.6621 51.5444V51.6969C18.6621 51.8367 18.7033 51.951 18.7993 52.0273C18.8954 52.1162 19.0463 52.1544 19.2522 52.1544C19.458 52.1544 19.6089 52.1162 19.705 52.0273C19.801 51.9383 19.8422 51.824 19.8422 51.6969V51.5444C19.8422 51.4046 19.801 51.2902 19.705 51.214C19.6089 51.125 19.458 51.0869 19.2522 51.0869Z" fill="#003EB1"/>
<path d="M27.8559 53.8952L27.5128 55.4583H27.4991L27.1149 53.8952L26.4837 51.4426H25.3447L24.7135 53.8952L24.3156 55.4583H24.3018L23.9588 53.8952L23.4236 51.4426H22.3807L23.6569 56.5511H24.8233L25.5231 53.8444L25.8799 52.4974H25.8936L26.2367 53.8444L26.9228 56.5511H28.0891L29.4065 51.4426H28.4185L27.8559 53.8952Z" fill="#003EB1"/>
<path d="M33.1663 53.9969C33.1663 53.5649 33.0291 53.2218 32.7409 52.993C32.4527 52.7643 32.0274 52.6372 31.4785 52.6372C30.9296 52.6372 30.7375 52.7008 30.4905 52.8405C30.2435 52.9803 30.0377 53.1582 29.8867 53.3743L30.4768 53.8699C30.5728 53.7428 30.6963 53.6284 30.8473 53.5268C30.9845 53.4378 31.1766 53.387 31.4099 53.387C31.6431 53.387 31.8627 53.4505 31.9862 53.5649C32.1097 53.6792 32.1646 53.8444 32.1646 54.0605V54.3401H31.4648C30.9021 54.3401 30.4768 54.4417 30.1749 54.6323C29.873 54.8229 29.722 55.1152 29.722 55.5092C29.722 55.9031 29.8318 56.1191 30.0651 56.3225C30.2847 56.5258 30.614 56.6275 31.0256 56.6275C31.4373 56.6275 31.5883 56.5639 31.7941 56.4368C31.9999 56.3098 32.1371 56.1318 32.2058 55.8777H32.2469C32.2744 56.081 32.3567 56.2335 32.4802 56.3606C32.6037 56.475 32.7821 56.5385 33.0016 56.5385H33.5642V55.7887H33.1526V53.9969H33.1663ZM32.1646 55.4075C32.1646 55.5854 32.0823 55.7252 31.9313 55.8142C31.7804 55.9031 31.5883 55.9539 31.355 55.9539C31.1217 55.9539 30.9982 55.9158 30.9021 55.8396C30.7924 55.7633 30.7375 55.649 30.7375 55.4965V55.3694C30.7375 55.0644 30.9982 54.8992 31.5196 54.8992H32.1646V55.3948V55.4075Z" fill="#003EB1"/>
<path d="M35.5814 51.6841H34.6757V52.3322C34.6757 52.4593 34.6483 52.5609 34.5934 52.6245C34.5385 52.688 34.4287 52.7261 34.2778 52.7261H33.9622V53.4759H34.5659V55.5727C34.5659 55.8904 34.662 56.1191 34.8404 56.297C35.0188 56.4622 35.2795 56.5512 35.6225 56.5512H36.3361V55.8014H35.5676V53.4886H36.4047V52.7388H35.5676V51.6968L35.5814 51.6841Z" fill="#003EB1"/>
<path d="M40.2881 53.2091C40.1372 53.0311 39.9451 52.8914 39.7118 52.7897C39.4785 52.688 39.2041 52.6372 38.8885 52.6372C38.5729 52.6372 38.3259 52.688 38.0926 52.777C37.8593 52.866 37.6535 53.0057 37.5025 53.1836C37.3379 53.3615 37.2144 53.5649 37.132 53.8063C37.0497 54.0478 37.0085 54.3273 37.0085 54.6196C37.0085 54.9119 37.0497 55.2042 37.1458 55.4456C37.2281 55.6871 37.3653 55.9031 37.53 56.081C37.6946 56.2589 37.9005 56.386 38.1338 56.4877C38.367 56.5766 38.6415 56.6275 38.9434 56.6275C39.2452 56.6275 39.6569 56.5639 39.9451 56.4368C40.2332 56.3098 40.4665 56.1446 40.6312 55.9158L40.096 55.3567C39.9725 55.5092 39.8216 55.6362 39.6706 55.7252C39.506 55.8269 39.3001 55.865 39.0531 55.865C38.8061 55.865 38.4768 55.776 38.3121 55.6108C38.1475 55.4456 38.0651 55.2169 38.0651 54.95V54.8611H40.7821V54.5561C40.7821 54.2892 40.741 54.0478 40.6724 53.819C40.59 53.5903 40.4802 53.387 40.3293 53.2091M39.6981 54.2892H38.024V54.2257C38.024 53.9588 38.1063 53.7428 38.2573 53.5776C38.4082 53.4124 38.6278 53.3234 38.8885 53.3234C39.1492 53.3234 39.355 53.3997 39.4922 53.5649C39.6295 53.7301 39.6981 53.9461 39.6981 54.2003V54.2638V54.2892Z" fill="#003EB1"/>
<path d="M43.3207 52.7896C43.1972 52.8277 43.0874 52.8913 43.0051 52.9675C42.9227 53.0438 42.8404 53.12 42.7855 53.2217C42.7306 53.3106 42.6895 53.4123 42.662 53.514H42.6209V52.7261H41.6191V56.5511H42.6209V54.2129C42.6209 53.9969 42.7032 53.8571 42.8816 53.7554C43.06 53.6664 43.307 53.6156 43.65 53.6156H43.9656V52.7261H43.7461C43.5814 52.7261 43.4442 52.7515 43.3207 52.7896Z" fill="#003EB1"/>
<path d="M47.9588 51.4426L46.12 56.5511H47.1629L47.5883 55.255H49.5368L49.9759 56.5511H51.0462L49.2349 51.4426H47.945H47.9588ZM47.8627 54.4162L48.5625 52.3195H48.6037L49.3035 54.4162H47.8627Z" fill="#003EB1"/>
<path d="M54.2573 55.2549C54.2573 55.3566 54.2298 55.4455 54.1887 55.5218C54.1475 55.598 54.0789 55.6616 54.0103 55.7124C53.9417 55.7632 53.8456 55.8014 53.7495 55.8268C53.6535 55.8522 53.5574 55.8649 53.4614 55.8649C53.2144 55.8649 53.0497 55.8013 52.9399 55.6616C52.8302 55.5218 52.7753 55.3185 52.7753 55.0643V52.7515H51.7736V55.166C51.7736 55.6489 51.8833 56.0174 52.1166 56.2715C52.3362 56.5257 52.6655 56.6655 53.0909 56.6655C53.5163 56.6655 53.4065 56.6401 53.53 56.6019C53.6535 56.5638 53.7633 56.513 53.8593 56.4367C53.9554 56.3732 54.024 56.297 54.0926 56.208C54.1475 56.119 54.2024 56.0301 54.2435 55.9284H54.2847V56.5638H55.2864V52.7388H54.2847V55.2676L54.2573 55.2549Z" fill="#003EB1"/>
<path d="M57.6329 51.6841H56.7272V52.3322C56.7272 52.4593 56.6998 52.5609 56.6449 52.6245C56.59 52.688 56.4802 52.7261 56.3293 52.7261H56.0137V53.4759H56.6174V55.5727C56.6174 55.8904 56.7135 56.1191 56.8919 56.297C57.0703 56.4622 57.331 56.5512 57.674 56.5512H58.4013V55.8014H57.6329V53.4886H58.4699V52.7388H57.6329V51.6968V51.6841Z" fill="#003EB1"/>
<path d="M61.53 52.6372C61.2144 52.6372 60.9674 52.7008 60.7753 52.8406C60.5969 52.9803 60.4597 53.1455 60.3774 53.3616H60.3362V51.125H59.3345V56.5385H60.3362V54.0097C60.3362 53.908 60.3636 53.819 60.4048 53.7428C60.446 53.6666 60.5146 53.603 60.5832 53.5522C60.6655 53.5014 60.7479 53.4632 60.8439 53.4378C60.94 53.4124 61.036 53.3997 61.1458 53.3997C61.3928 53.3997 61.5575 53.4632 61.6672 53.603C61.777 53.7428 61.8182 53.9461 61.8182 54.213V56.5258H62.8199V54.1113C62.8199 53.6284 62.7101 53.2599 62.4768 53.0058C62.2573 52.7516 61.928 52.6118 61.5026 52.6118" fill="#003EB1"/>
<path d="M66.9638 53.1709C66.7992 52.993 66.5933 52.866 66.3601 52.777C66.1268 52.688 65.8661 52.6372 65.5642 52.6372C65.2623 52.6372 65.0153 52.688 64.782 52.777C64.5488 52.866 64.3566 53.0057 64.192 53.1709C64.0273 53.3488 63.9038 53.5522 63.8078 53.7936C63.7254 54.0351 63.6705 54.3146 63.6705 54.6196C63.6705 54.9246 63.7117 55.2042 63.8078 55.4456C63.8901 55.6871 64.0273 55.9031 64.192 56.081C64.3566 56.2589 64.5488 56.386 64.782 56.4877C65.0153 56.5766 65.276 56.6275 65.5642 56.6275C65.8523 56.6275 66.1268 56.5766 66.3601 56.4877C66.5933 56.3987 66.7992 56.2589 66.9638 56.081C67.1285 55.9031 67.252 55.6998 67.3481 55.4456C67.4304 55.2042 67.4853 54.9246 67.4853 54.6196C67.4853 54.3146 67.4441 54.0351 67.3481 53.7936C67.2657 53.5522 67.1285 53.3361 66.9638 53.1709ZM66.4287 54.9881C66.4287 55.2804 66.3463 55.4965 66.1954 55.649C66.0445 55.8014 65.8386 55.8777 65.5642 55.8777C65.2897 55.8777 65.0976 55.8014 64.9467 55.649C64.7957 55.4965 64.7134 55.2804 64.7134 54.9881V54.2765C64.7134 53.9842 64.782 53.7682 64.9467 53.6157C65.0976 53.4632 65.3035 53.387 65.5642 53.387C65.8249 53.387 66.0445 53.4632 66.1954 53.6157C66.3463 53.7682 66.4287 53.9842 66.4287 54.2765V54.9881Z" fill="#003EB1"/>
<path d="M70.0514 52.7896C69.9279 52.8277 69.8181 52.8913 69.7358 52.9675C69.6535 53.0438 69.5711 53.12 69.5162 53.2217C69.4613 53.3106 69.4202 53.4123 69.3927 53.514H69.3516V52.7261H68.3499V56.5511H69.3516V54.2129C69.3516 53.9969 69.4339 53.8571 69.6123 53.7554C69.7907 53.6664 70.0377 53.6156 70.3807 53.6156H70.6963V52.7261H70.4768C70.3121 52.7261 70.1749 52.7515 70.0514 52.7896Z" fill="#003EB1"/>
<path d="M71.945 51.0869C71.7392 51.0869 71.5883 51.125 71.4922 51.214C71.3961 51.3029 71.355 51.4173 71.355 51.5444V51.6969C71.355 51.8367 71.3961 51.951 71.4922 52.0273C71.5883 52.1162 71.7392 52.1544 71.945 52.1544C72.1509 52.1544 72.3018 52.1162 72.3979 52.0273C72.4939 51.9383 72.5351 51.824 72.5351 51.6969V51.5444C72.5351 51.4046 72.4939 51.2902 72.3979 51.214C72.3018 51.125 72.1509 51.0869 71.945 51.0869Z" fill="#003EB1"/>
<path d="M72.439 52.7261H71.4373V56.5511H72.439V52.7261Z" fill="#003EB1"/>
<path d="M74.8267 51.6841H73.9211V52.3322C73.9211 52.4593 73.8936 52.5609 73.8387 52.6245C73.7839 52.688 73.6741 52.7261 73.5231 52.7261H73.2075V53.4759H73.8113V55.5727C73.8113 55.8904 73.9074 56.1191 74.0857 56.297C74.2641 56.4622 74.5248 56.5512 74.8679 56.5512H75.5952V55.8014H74.8267V53.4886H75.6638V52.7388H74.8267V51.6968V51.6841Z" fill="#003EB1"/>
<path d="M78.3258 54.7466L78.0376 55.7124H77.9964L77.7357 54.7466L77.0222 52.7261H76.0342L77.5024 56.7163L77.3103 57.25H76.5693V57.9998H77.1731C77.3378 57.9998 77.4887 57.9871 77.6122 57.9617C77.7357 57.9363 77.8455 57.8854 77.9278 57.8219C78.0102 57.7584 78.0925 57.6821 78.1611 57.5804C78.2297 57.4788 78.2846 57.3644 78.3395 57.2246L79.9862 52.7261H79.053L78.3395 54.7466H78.3258Z" fill="#003EB1"/>
<defs>
<linearGradient id="paint0_linear_49_34668" x1="19.4716" y1="15.4468" x2="39.9449" y2="15.4468" gradientUnits="userSpaceOnUse">
<stop stop-color="#07DDB9"/>
<stop offset="0.8" stop-color="#04B7EF"/>
<stop offset="1" stop-color="#04B7EF"/>
</linearGradient>
<linearGradient id="paint1_linear_49_34668" x1="25.1362" y1="4.07752" x2="28.7865" y2="14.6702" gradientUnits="userSpaceOnUse">
<stop stop-color="#A1E7FF"/>
<stop offset="0.2" stop-color="#A1E7FF"/>
<stop offset="1" stop-color="#A1E7FF"/>
</linearGradient>
<linearGradient id="paint2_linear_49_34668" x1="29.9009" y1="28.7983" x2="36.6754" y2="18.4342" gradientUnits="userSpaceOnUse">
<stop stop-color="#A1E7FF"/>
<stop offset="0.3" stop-color="#A1E7FF"/>
<stop offset="1" stop-color="#A1E7FF"/>
</linearGradient>
<linearGradient id="paint3_linear_49_34668" x1="57.3741" y1="22.8455" x2="42.1694" y2="29.9803" gradientUnits="userSpaceOnUse">
<stop stop-color="#A1E7FF"/>
<stop offset="0.3" stop-color="#A1E7FF"/>
<stop offset="1" stop-color="#A1E7FF"/>
</linearGradient>
</defs>
</svg>
