<svg width="20" height="20" viewBox="0 0 20 20" fill="none" xmlns="http://www.w3.org/2000/svg">
<path fill-rule="evenodd" clip-rule="evenodd" d="M11.5401 7.61835L11.472 7.58079C10.7849 7.20218 10.223 6.89251 9.76036 6.70094C9.29073 6.50646 8.80911 6.38247 8.31879 6.51098C8.04024 6.58398 7.77875 6.71357 7.5553 6.89423C7.14504 7.2259 7.00003 7.70081 6.9364 8.17939C6.87486 8.6423 6.87488 9.24109 6.87491 9.95557V10.0446C6.87488 10.7591 6.87486 11.3579 6.9364 11.8208C7.00003 12.2994 7.14504 12.7743 7.5553 13.106C7.77875 13.2866 8.04024 13.4162 8.31879 13.4892C8.80911 13.6178 9.29073 13.4938 9.76036 13.2993C10.223 13.1077 10.7849 12.798 11.472 12.4194L11.5401 12.3819C12.1688 12.0355 12.688 11.7494 13.0616 11.4843C13.436 11.2187 13.7912 10.8895 13.9087 10.4095C13.9747 10.1401 13.9747 9.86015 13.9087 9.59069C13.7912 9.11069 13.436 8.78155 13.0616 8.51594C12.688 8.25083 12.1688 7.96474 11.5401 7.61835ZM8.6357 7.72014C8.72508 7.69671 8.89115 7.69393 9.28211 7.85583C9.67257 8.01753 10.1734 8.29243 10.9023 8.69411C11.5742 9.06434 12.0298 9.31653 12.3383 9.5354C12.6529 9.75861 12.6885 9.8632 12.6946 9.88807C12.7128 9.96217 12.7128 10.0381 12.6946 10.1122C12.6885 10.137 12.6529 10.2416 12.3383 10.4648C12.0298 10.6837 11.5742 10.9359 10.9023 11.3061C10.1734 11.7078 9.67257 11.9827 9.28211 12.1444C8.89115 12.3063 8.72508 12.3035 8.6357 12.2801C8.52158 12.2502 8.4214 12.1988 8.34117 12.1339C8.3031 12.1032 8.22396 12.0206 8.1755 11.6561C8.12623 11.2855 8.12491 10.7709 8.12491 10.0001C8.12491 9.22933 8.12623 8.7147 8.1755 8.34412C8.22396 7.97962 8.3031 7.89707 8.34117 7.86629C8.4214 7.80142 8.52158 7.75005 8.6357 7.72014Z" fill="white"/>
<path fill-rule="evenodd" clip-rule="evenodd" d="M9.9999 2.29175C8.45106 2.29175 6.96301 2.44472 5.58053 2.72653L5.47446 2.74813C3.8956 3.06949 2.8436 3.28362 1.93705 4.44918C1.04024 5.60223 1.04074 6.93941 1.04152 9.01041L1.04152 10.9898C1.04074 13.0607 1.04024 14.3979 1.93705 15.551C2.8436 16.7165 3.8956 16.9307 5.47446 17.252L5.58053 17.2736C6.96301 17.5554 8.45106 17.7084 9.9999 17.7084C11.5487 17.7084 13.0368 17.5554 14.4193 17.2736L14.5253 17.252C16.1042 16.9307 17.1562 16.7165 18.0627 15.551C18.9596 14.3979 18.9591 13.0608 18.9583 10.9898L18.9583 9.01041C18.9591 6.93941 18.9596 5.60223 18.0627 4.44918C17.1562 3.28362 16.1042 3.06949 14.5253 2.74813L14.4193 2.72653C13.0368 2.44472 11.5487 2.29175 9.9999 2.29175ZM5.8302 3.95134C7.12827 3.68674 8.53259 3.54175 9.9999 3.54175C11.4672 3.54175 12.8715 3.68674 14.1696 3.95134C15.8797 4.29993 16.4751 4.44391 17.076 5.2166C17.6802 5.99342 17.7082 6.86561 17.7082 9.19713L17.7082 10.803C17.7082 13.1346 17.6802 14.0067 17.076 14.7836C16.4751 15.5562 15.8797 15.7002 14.1696 16.0488C12.8715 16.3134 11.4672 16.4584 9.9999 16.4584C8.53259 16.4584 7.12827 16.3134 5.8302 16.0488C4.12012 15.7002 3.52472 15.5562 2.92375 14.7836C2.31956 14.0067 2.29156 13.1346 2.29156 10.803V9.19713C2.29156 6.86561 2.31956 5.99342 2.92375 5.2166C3.52472 4.44391 4.12012 4.29993 5.8302 3.95134Z" fill="white"/>
</svg>
