<svg width="16" height="16" viewBox="0 0 16 16" fill="none" xmlns="http://www.w3.org/2000/svg">
<path fill-rule="evenodd" clip-rule="evenodd" d="M7.99996 15.3333C12.05 15.3333 15.3333 12.05 15.3333 7.99996C15.3333 3.94987 12.05 0.666626 7.99996 0.666626C3.94987 0.666626 0.666626 3.94987 0.666626 7.99996C0.666626 12.05 3.94987 15.3333 7.99996 15.3333Z" fill="white"/>
<path fill-rule="evenodd" clip-rule="evenodd" d="M15.3333 7.99996C15.3333 12.05 12.05 15.3333 7.99996 15.3333C3.94987 15.3333 0.666626 12.05 0.666626 7.99996C0.666626 3.94987 3.94987 0.666626 7.99996 0.666626C12.05 0.666626 15.3333 3.94987 15.3333 7.99996ZM7.21123 5.51712C7.4827 5.35758 7.80187 5.29926 8.11222 5.35249C8.42257 5.40572 8.70406 5.56707 8.90684 5.80796C9.10963 6.04885 9.22061 6.35374 9.22014 6.66862L9.22014 6.66961C9.22014 6.98237 8.97674 7.30842 8.51701 7.61491C8.30743 7.75463 8.09311 7.86227 7.92855 7.9354C7.84722 7.97155 7.78037 7.99824 7.73542 8.01537C7.71299 8.02391 7.69618 8.03001 7.68593 8.03366L7.67564 8.03727C7.32657 8.15384 7.13796 8.53125 7.25435 8.88043C7.37078 9.22972 7.74833 9.4185 8.09763 9.30207L7.88681 8.66961C8.09763 9.30207 8.09846 9.30179 8.09846 9.30179L8.09948 9.30145L8.10208 9.30057L8.10945 9.29805L8.13261 9.28994C8.15165 9.28317 8.17781 9.27365 8.21008 9.26135C8.2745 9.23681 8.3639 9.201 8.47007 9.15382C8.68051 9.06029 8.96619 8.91793 9.25661 8.72431C9.79677 8.36421 10.5532 7.69046 10.5535 6.67022C10.5543 6.0406 10.3324 5.43098 9.92688 4.9493C9.52131 4.46752 8.95833 4.14481 8.33763 4.03835C7.71694 3.93188 7.07859 4.04852 6.53566 4.36761C5.99272 4.6867 5.58023 5.18764 5.37125 5.78172C5.24907 6.12904 5.43159 6.50965 5.77891 6.63183C6.12624 6.75402 6.50685 6.5715 6.62903 6.22417C6.73352 5.92714 6.93977 5.67667 7.21123 5.51712ZM7.94014 10.6696C7.57195 10.6696 7.27347 10.9681 7.27347 11.3363C7.27347 11.7045 7.57195 12.0029 7.94014 12.0029H7.94681C8.315 12.0029 8.61347 11.7045 8.61347 11.3363C8.61347 10.9681 8.315 10.6696 7.94681 10.6696H7.94014Z" fill="#384250"/>
</svg>
