<svg width="22" height="22" viewBox="0 0 22 22" fill="none" xmlns="http://www.w3.org/2000/svg">
<rect width="21.9512" height="21.9512" transform="scale(1.00222)" fill="white" fill-opacity="0.01" style="mix-blend-mode:multiply"/>
<path d="M19.7359 13.264L17.8747 11.4029V8.93758C17.8725 7.23392 17.2387 5.59158 16.0958 4.32815C14.9529 3.06472 13.3821 2.26994 11.6872 2.09749V0.687561H10.3122V2.09749C8.6173 2.26994 7.04653 3.06472 5.90363 4.32815C4.76074 5.59158 4.12691 7.23392 4.1247 8.93758V11.4029L2.26356 13.264C2.13465 13.3929 2.06221 13.5678 2.06219 13.7501V15.8126C2.06219 15.9949 2.13463 16.1698 2.26356 16.2987C2.39249 16.4277 2.56736 16.5001 2.7497 16.5001H7.56221V17.0341C7.5473 17.9063 7.85475 18.7533 8.42563 19.4128C8.99651 20.0723 9.79068 20.498 10.656 20.6083C11.1339 20.6557 11.6164 20.6026 12.0726 20.4523C12.5287 20.302 12.9484 20.0579 13.3045 19.7358C13.6607 19.4136 13.9454 19.0204 14.1405 18.5815C14.3356 18.1427 14.4367 17.6679 14.4372 17.1876V16.5001H19.2497C19.4321 16.5001 19.6069 16.4277 19.7359 16.2987C19.8648 16.1698 19.9372 15.9949 19.9372 15.8126V13.7501C19.9372 13.5678 19.8648 13.3929 19.7359 13.264ZM13.0622 17.1876C13.0622 17.7346 12.8449 18.2592 12.4581 18.646C12.0713 19.0328 11.5467 19.2501 10.9997 19.2501C10.4527 19.2501 9.9281 19.0328 9.5413 18.646C9.15451 18.2592 8.93721 17.7346 8.93721 17.1876V16.5001H13.0622V17.1876ZM18.5622 15.1251H3.4372V14.0348L5.29826 12.1737C5.4272 12.0447 5.49966 11.8699 5.4997 11.6876V8.93758C5.4997 7.47889 6.07917 6.07994 7.11062 5.04848C8.14207 4.01703 9.54102 3.43757 10.9997 3.43757C12.4584 3.43757 13.8574 4.01703 14.8888 5.04848C15.9203 6.07994 16.4997 7.47889 16.4997 8.93758V11.6876C16.4998 11.8699 16.5722 12.0447 16.7012 12.1737L18.5622 14.0348V15.1251Z" fill="#161616"/>
</svg>
