<svg width="22" height="22" viewBox="0 0 22 22" fill="none" xmlns="http://www.w3.org/2000/svg">
<rect width="21.3171" height="21.3171" transform="scale(1.03202)" fill="white" fill-opacity="0.01" style="mix-blend-mode:multiply"/>
<path d="M10.9996 1.37494C9.09593 1.37494 7.23507 1.93943 5.65226 2.99702C4.06946 4.05461 2.83582 5.55781 2.10734 7.31652C1.37886 9.07524 1.18825 11.0105 1.55963 12.8775C1.93101 14.7446 2.84769 16.4595 4.19375 17.8056C5.53981 19.1517 7.2548 20.0683 9.12184 20.4397C10.9889 20.8111 12.9241 20.6205 14.6828 19.892C16.4415 19.1635 17.9447 17.9299 19.0023 16.3471C20.0599 14.7643 20.6244 12.9034 20.6244 10.9998C20.6215 8.44801 19.6066 6.00156 17.8022 4.19717C15.9978 2.39278 13.5513 1.37781 10.9996 1.37494ZM2.74967 10.9998C2.75039 9.84173 2.99574 8.69687 3.46964 7.64021C3.94354 6.58354 4.6353 5.6389 5.49963 4.86814V6.18737C5.49963 6.55204 5.64449 6.90177 5.90235 7.15963C6.16021 7.41748 6.50994 7.56235 6.87461 7.56235H9.19957C9.455 7.56238 9.70539 7.49125 9.92267 7.35695C10.1399 7.22265 10.3155 7.03048 10.4297 6.80198L10.7371 6.18737H12.3745V8.93733H9.09892C8.88566 8.93736 8.67534 8.987 8.48458 9.08232L6.25965 10.1948C6.03129 10.309 5.83924 10.4845 5.70501 10.7017C5.57077 10.9189 5.49966 11.1691 5.49963 11.4245V13.972C5.49966 14.2467 5.58202 14.5152 5.73609 14.7428C5.89016 14.9703 6.10887 15.1464 6.36401 15.2485L9.00996 16.3072L9.47601 19.1028C7.58705 18.7461 5.8817 17.7416 4.65387 16.2624C3.42603 14.7833 2.75261 12.9222 2.74967 10.9998ZM10.8935 19.2443L10.2392 15.3172L6.87461 13.972V11.4248L9.09919 10.3123H13.7495V4.81239H9.88706L9.19957 6.18737H6.87461V3.86606C7.92125 3.25675 9.08958 2.88622 10.2961 2.78095C11.5026 2.67568 12.7174 2.83828 13.8537 3.25711C14.9901 3.67595 16.0199 4.34068 16.8694 5.20378C17.719 6.06688 18.3674 7.10702 18.7682 8.24984H15.1245V10.9998L15.7586 13.6215L14.437 15.6041V18.4897C13.3599 18.9893 12.1869 19.2486 10.9996 19.2497C10.9638 19.2497 10.9292 19.2447 10.8935 19.2443ZM15.812 17.6867V16.0203L16.9023 14.3849C17.0086 14.2253 17.0805 14.0454 17.1133 13.8565C17.1461 13.6675 17.139 13.4739 17.0926 13.2878L16.4995 10.9152V9.62482H19.1252C19.3939 11.1445 19.2251 12.7092 18.6385 14.1366C18.0519 15.564 17.0716 16.7952 15.812 17.6867Z" fill="#161616"/>
</svg>
