<svg width="24" height="24" viewBox="0 0 24 24" fill="none" xmlns="http://www.w3.org/2000/svg">
<path d="M3.24998 11.9996C3.24998 11.6261 3.41564 11.2795 3.5725 11.0193C3.74178 10.7384 3.96943 10.4485 4.21917 10.1658C4.72016 9.59877 5.37385 8.98979 6.00822 8.43892C6.64631 7.88481 7.28221 7.3746 7.75723 7.00383C7.99514 6.81813 8.19362 6.6667 8.33302 6.56138C8.40274 6.50871 8.45774 6.46754 8.49556 6.43935L8.53913 6.40696L8.55069 6.39841L8.5547 6.39545C8.8882 6.14979 9.35814 6.22068 9.6038 6.55418C9.84945 6.88767 9.77826 7.35715 9.4448 7.60282L9.43207 7.61223L9.39202 7.642C9.3566 7.6684 9.30418 7.70764 9.23718 7.75825C9.10315 7.85951 8.91101 8.0061 8.68017 8.18628C8.21771 8.54725 7.60361 9.04014 6.99172 9.57149C6.37609 10.1061 5.7798 10.6649 5.3433 11.159C5.31569 11.1902 5.28897 11.2209 5.26315 11.2511L20 11.2511C20.4142 11.2511 20.75 11.5869 20.75 12.0011C20.75 12.4153 20.4142 12.7511 20 12.7511L5.26568 12.7511C5.29072 12.7803 5.31659 12.81 5.3433 12.8403C5.7798 13.3343 6.37609 13.8932 6.99172 14.4277C7.60361 14.9591 8.2177 15.452 8.68017 15.813C8.91101 15.9931 9.10315 16.1397 9.23718 16.241C9.30418 16.2916 9.3566 16.3308 9.39202 16.3572L9.43207 16.387L9.4448 16.3964C9.77826 16.6421 9.84945 17.1116 9.6038 17.4451C9.35814 17.7786 8.8882 17.8495 8.5547 17.6038L8.55069 17.6008L8.53913 17.5923L8.49556 17.5599C8.45774 17.5317 8.40274 17.4905 8.33302 17.4379C8.19362 17.3325 7.99514 17.1811 7.75723 16.9954C7.2822 16.6246 6.64631 16.1144 6.00822 15.5603C5.37385 15.0095 4.72016 14.4005 4.21917 13.8334C3.96943 13.5507 3.74178 13.2608 3.5725 12.98C3.41658 12.7213 3.25198 12.3773 3.25 12.0063" fill="#9DA4AE"/>
</svg>
