<svg width="24" height="24" viewBox="0 0 24 24" fill="none" xmlns="http://www.w3.org/2000/svg">
<path d="M20.75 11.9996C20.75 11.6261 20.5844 11.2795 20.4275 11.0193C20.2582 10.7384 20.0306 10.4485 19.7808 10.1658C19.2798 9.59877 18.6262 8.98979 17.9918 8.43892C17.3537 7.88481 16.7178 7.3746 16.2428 7.00383C16.0049 6.81813 15.8064 6.6667 15.667 6.56138C15.5973 6.50871 15.5423 6.46754 15.5044 6.43935L15.4609 6.40696L15.4493 6.39841L15.4453 6.39545C15.1118 6.14979 14.6419 6.22068 14.3962 6.55418C14.1505 6.88767 14.2217 7.35715 14.5552 7.60282L14.5679 7.61223L14.608 7.642C14.6434 7.6684 14.6958 7.70764 14.7628 7.75825C14.8968 7.85951 15.089 8.0061 15.3198 8.18628C15.7823 8.54725 16.3964 9.04014 17.0083 9.57149C17.6239 10.1061 18.2202 10.6649 18.6567 11.159C18.6843 11.1902 18.711 11.2209 18.7369 11.2511L4 11.2511C3.58579 11.2511 3.25 11.5869 3.25 12.0011C3.25 12.4153 3.58579 12.7511 4 12.7511L18.7343 12.7511C18.7093 12.7803 18.6834 12.81 18.6567 12.8403C18.2202 13.3343 17.6239 13.8932 17.0083 14.4277C16.3964 14.9591 15.7823 15.452 15.3198 15.813C15.089 15.9931 14.8968 16.1397 14.7628 16.241C14.6958 16.2916 14.6434 16.3308 14.608 16.3572L14.5679 16.387L14.5552 16.3964C14.2217 16.6421 14.1505 17.1116 14.3962 17.4451C14.6419 17.7786 15.1118 17.8495 15.4453 17.6038L15.4493 17.6008L15.4609 17.5923L15.5044 17.5599C15.5423 17.5317 15.5973 17.4905 15.667 17.4379C15.8064 17.3325 16.0049 17.1811 16.2428 16.9954C16.7178 16.6246 17.3537 16.1144 17.9918 15.5603C18.6262 15.0095 19.2798 14.4005 19.7808 13.8334C20.0306 13.5507 20.2582 13.2608 20.4275 12.98C20.5834 12.7213 20.748 12.3773 20.75 12.0063" fill="#1B8354"/>
</svg>
