<svg width="36" height="36" viewBox="0 0 36 36" fill="none" xmlns="http://www.w3.org/2000/svg">
<path fill-rule="evenodd" clip-rule="evenodd" d="M14.625 5.25C14.625 3.38604 16.1361 1.875 18 1.875C19.864 1.875 21.375 3.38604 21.375 5.25C21.375 6.71949 20.4359 7.96964 19.125 8.43295V10.875H19.5824C21.6337 10.875 23.2872 10.8749 24.5876 11.0498C25.9378 11.2313 27.0746 11.6196 27.9775 12.5225C28.8804 13.4254 29.2687 14.5622 29.4502 15.9124C29.6251 17.2128 29.625 19.0309 29.625 21.0823C29.625 23.1337 29.6251 24.7872 29.4502 26.0876C29.2687 27.4378 28.8804 28.5746 27.9775 29.4775C27.0746 30.3803 25.9378 30.7687 24.5876 30.9502C23.2872 31.125 21.6337 31.125 19.5824 31.125H18.7223C18.5126 31.4846 18.1933 31.9167 17.7162 32.3408C16.6335 33.3032 14.853 34.125 12 34.125C11.5459 34.125 11.1363 33.852 10.9616 33.4328C10.787 33.0138 10.8813 32.5309 11.2007 32.2083C11.3197 32.0683 11.6546 31.6714 11.8115 31.434C11.902 31.2971 11.9845 31.1589 12.0567 31.0219C10.4008 30.8771 9.05232 30.5072 8.02254 29.4775C7.11967 28.5746 6.73133 27.4378 6.5498 26.0876C6.37496 24.7872 6.37499 23.1337 6.37502 21.0824C6.37499 19.031 6.37496 17.2128 6.5498 15.9124C6.73133 14.5622 7.11967 13.4254 8.02254 12.5225C8.92542 11.6196 10.0622 11.2313 11.4124 11.0498C12.7128 10.8749 14.3663 10.875 16.4177 10.875H16.875V8.43295C15.5642 7.96964 14.625 6.71949 14.625 5.25ZM14.625 18C14.625 17.3787 14.1213 16.875 13.5 16.875C12.8787 16.875 12.375 17.3787 12.375 18V19.5C12.375 20.1213 12.8787 20.625 13.5 20.625C14.1213 20.625 14.625 20.1213 14.625 19.5V18ZM23.625 18C23.625 17.3787 23.1213 16.875 22.5 16.875C21.8787 16.875 21.375 17.3787 21.375 18V19.5C21.375 20.1213 21.8787 20.625 22.5 20.625C23.1213 20.625 23.625 20.1213 23.625 19.5V18ZM14.1001 24.0751C14.4692 23.583 15.164 23.4793 15.6602 23.8391C15.7386 23.8832 15.9529 23.9996 16.1451 24.0717C16.5274 24.2151 17.1439 24.3751 18.0001 24.3751C18.8562 24.3751 19.4727 24.2151 19.8551 24.0717C20.0473 23.9996 20.2615 23.8832 20.34 23.8391C20.8361 23.4793 21.531 23.583 21.9001 24.0751C22.2729 24.5721 22.1721 25.2773 21.6751 25.6501L21.6511 25.6658C21.5823 25.7112 21.4394 25.8054 21.3641 25.8478C21.1926 25.9443 20.9529 26.063 20.6451 26.1784C20.0274 26.4101 19.1439 26.6251 18.0001 26.6251C16.8562 26.6251 15.9727 26.4101 15.3551 26.1784C15.0473 26.063 14.8076 25.9443 14.636 25.8478C14.5607 25.8054 14.4178 25.7112 14.349 25.6658L14.3251 25.6501C13.828 25.2773 13.7273 24.5721 14.1001 24.0751Z" fill="#1B8354"/>
<path d="M4.62969 16.2129C4.26478 16.2723 3.90585 16.3779 3.56252 16.5761C3.04946 16.8723 2.6234 17.2984 2.32718 17.8114C2.06113 18.2722 1.96205 18.7612 1.91729 19.2549C1.87497 19.7219 1.87499 20.3876 1.87502 21.0473C1.87499 21.7069 1.87498 22.276 1.91729 22.7429C1.96205 23.2367 2.06113 23.7256 2.32718 24.1864C2.6234 24.6995 3.04946 25.1255 3.56252 25.4218C3.90535 25.6197 4.26373 25.7252 4.6281 25.7847C4.49985 24.4665 4.49993 22.9066 4.50002 21.1951C4.49993 19.4765 4.49984 17.6083 4.62969 16.2129Z" fill="#1B8354"/>
<path d="M32.4383 25.4217C32.0954 25.6197 31.7371 25.7252 31.3727 25.7847C31.5009 24.4665 31.5009 22.9066 31.5008 21.1951C31.5009 19.4765 31.501 17.6083 31.3711 16.2129C31.736 16.2723 32.0949 16.3779 32.4383 16.5761C32.9513 16.8723 33.3774 17.2984 33.6736 17.8114C33.9396 18.2722 34.0387 18.7612 34.0835 19.2549C34.1258 19.7219 34.1258 20.3876 34.1258 21.0473C34.1258 21.7069 34.1258 22.276 34.0835 22.7429C34.0387 23.2367 33.9396 23.7256 33.6736 24.1864C33.3774 24.6995 32.9513 25.1255 32.4383 25.4217Z" fill="#1B8354"/>
</svg>
