<svg width="20" height="20" viewBox="0 0 20 20" fill="none" xmlns="http://www.w3.org/2000/svg">
<path d="M11.8532 4.97894C11.8503 4.65091 11.5943 4.38095 11.2668 4.36067C10.9394 4.34039 10.652 4.5767 10.6087 4.90187C10.5905 5.03829 10.5899 5.1848 10.6063 5.33769L10.6675 12.256C10.4089 13.0967 10.1833 13.5029 10.0158 13.7154C9.88093 13.8865 9.78026 13.9458 9.6139 14.0439C9.58473 14.0611 9.55353 14.0795 9.51977 14.0998C8.89553 14.4769 8.30662 14.4713 7.81082 14.3217C7.29846 14.1672 6.90094 13.8607 6.72967 13.6749C6.5459 13.4589 6.28667 13.04 6.15723 12.534C6.02927 12.0338 6.03489 11.4819 6.32486 10.9457C6.91031 9.86321 8.13347 9.71266 8.69245 9.79167C9.03423 9.83999 9.35046 9.60208 9.39877 9.2603C9.44708 8.91852 9.20918 8.60229 8.8674 8.55398C8.05967 8.4398 6.16751 8.60902 5.22536 10.3511C4.75154 11.2272 4.76016 12.1164 4.94623 12.8438C5.1295 13.5603 5.49135 14.1522 5.78766 14.4966L5.79877 14.5092C6.10498 14.8464 6.69546 15.2909 7.44983 15.5185C8.22632 15.7527 9.19094 15.7588 10.166 15.1698C10.1865 15.1574 10.2094 15.1442 10.2344 15.1297C10.4166 15.0242 10.7095 14.8546 10.9976 14.489C11.3104 14.0921 11.6018 13.4946 11.8921 12.5253C11.91 12.4654 11.9189 12.4031 11.9183 12.3405L11.8757 7.51894C12.5048 8.04294 13.375 8.44378 14.5101 8.54393C14.8539 8.57427 15.1572 8.32012 15.1876 7.97628C15.2179 7.63244 14.9638 7.32911 14.6199 7.29877C13.5035 7.20026 12.7919 6.74283 12.3704 6.26104C12.0319 5.87399 11.8931 5.49132 11.8556 5.25101L11.8532 4.97894Z" fill="white"/>
<path fill-rule="evenodd" clip-rule="evenodd" d="M10.0477 1.45825H9.95236C8.12679 1.45824 6.69287 1.45823 5.57336 1.60875C4.42615 1.76299 3.51594 2.08551 2.80077 2.80068C2.08561 3.51584 1.76308 4.42606 1.60884 5.57327C1.45832 6.69279 1.45833 8.12668 1.45834 9.95227V10.0476C1.45833 11.8732 1.45832 13.307 1.60884 14.4266C1.76308 15.5738 2.08561 16.484 2.80077 17.1992C3.51594 17.9143 4.42615 18.2368 5.57336 18.3911C6.69287 18.5416 8.12676 18.5416 9.95234 18.5416H10.0476C11.8732 18.5416 13.3071 18.5416 14.4267 18.3911C15.5739 18.2368 16.4841 17.9143 17.1993 17.1992C17.9144 16.484 18.2369 15.5738 18.3912 14.4266C18.5417 13.3071 18.5417 11.8732 18.5417 10.0476V9.95228C18.5417 8.1267 18.5417 6.69278 18.3912 5.57327C18.2369 4.42606 17.9144 3.51584 17.1993 2.80068C16.4841 2.08551 15.5739 1.76299 14.4267 1.60875C13.3071 1.45823 11.8733 1.45824 10.0477 1.45825ZM3.68465 3.68456C4.12886 3.24036 4.73132 2.9832 5.73992 2.8476C6.76651 2.70958 8.11637 2.70825 10 2.70825C11.8837 2.70825 13.2335 2.70958 14.2601 2.8476C15.2687 2.9832 15.8712 3.24036 16.3154 3.68456C16.7596 4.12877 17.0167 4.73123 17.1523 5.73983C17.2903 6.76641 17.2917 8.11627 17.2917 9.99992C17.2917 11.8836 17.2903 13.2334 17.1523 14.26C17.0167 15.2686 16.7596 15.8711 16.3154 16.3153C15.8712 16.7595 15.2687 17.0166 14.2601 17.1522C13.2335 17.2903 11.8837 17.2916 10 17.2916C8.11637 17.2916 6.76651 17.2903 5.73992 17.1522C4.73132 17.0166 4.12886 16.7595 3.68465 16.3153C3.24045 15.8711 2.9833 15.2686 2.84769 14.26C2.70967 13.2334 2.70834 11.8836 2.70834 9.99992C2.70834 8.11627 2.70967 6.76641 2.84769 5.73983C2.9833 4.73123 3.24045 4.12877 3.68465 3.68456Z" fill="white"/>
</svg>
