<svg width="56" height="56" viewBox="0 0 56 56" fill="none" xmlns="http://www.w3.org/2000/svg">
<path d="M52 28C52 31.1517 51.3792 34.2726 50.1731 37.1844C48.967 40.0962 47.1992 42.742 44.9706 44.9706C42.742 47.1992 40.0962 48.967 37.1844 50.1731C34.2726 51.3792 31.1517 52 28 52C24.8483 52 21.7274 51.3792 18.8156 50.1731C15.9038 48.967 13.258 47.1992 11.0294 44.9706C8.80083 42.742 7.033 40.0962 5.82689 37.1844C4.62078 34.2726 4 31.1517 4 28C4 24.8483 4.62078 21.7274 5.82689 18.8156C7.03301 15.9038 8.80083 13.258 11.0294 11.0294C13.258 8.80083 15.9038 7.033 18.8156 5.82689C21.7274 4.62078 24.8483 4 28 4C31.1517 4 34.2726 4.62078 37.1844 5.82689C40.0962 7.03301 42.742 8.80083 44.9706 11.0294C47.1992 13.258 48.967 15.9038 50.1731 18.8156C51.3792 21.7274 52 24.8483 52 28L52 28Z" stroke="white" stroke-width="8"/>
<path d="M28.4189 4.00366C32.2057 4.06976 35.9232 5.03116 39.2673 6.80926C42.6114 8.58736 45.4873 11.1317 47.6596 14.2342C49.832 17.3367 51.2393 20.9093 51.7664 24.6598C52.2935 28.4104 51.9255 32.2325 50.6924 35.8136C49.4594 39.3947 47.3963 42.6332 44.6718 45.2641C41.9473 47.8951 38.6389 49.844 35.0169 50.9513C31.395 52.0587 27.5624 52.2931 23.8325 51.6354C20.1025 50.9777 16.5812 49.4466 13.5564 47.1673" stroke="#1B8354" stroke-width="8"/>
<path d="M29.0607 15.9393C28.4749 15.3536 27.5251 15.3536 26.9393 15.9393L17.3934 25.4853C16.8076 26.0711 16.8076 27.0208 17.3934 27.6066C17.9792 28.1924 18.9289 28.1924 19.5147 27.6066L28 19.1213L36.4853 27.6066C37.0711 28.1924 38.0208 28.1924 38.6066 27.6066C39.1924 27.0208 39.1924 26.0711 38.6066 25.4853L29.0607 15.9393ZM28 39L29.5 39L29.5 17L28 17L26.5 17L26.5 39L28 39Z" fill="#1B8354"/>
</svg>
