<svg width="24" height="24" viewBox="0 0 24 24" fill="none" xmlns="http://www.w3.org/2000/svg">
<path fill-rule="evenodd" clip-rule="evenodd" d="M12.9998 1.25085C16.1608 1.25085 17.903 1.25085 19.23 2.18585C19.611 2.45385 19.95 2.77385 20.24 3.13685C21.251 4.40785 21.251 6.03485 21.251 9.27385V11.8189C21.251 14.8738 21.251 16.4069 20.729 17.7229C19.895 19.8279 18.139 21.4849 15.911 22.2669C14.7097 22.6876 13.3248 22.7418 10.8533 22.7488C10.841 22.7499 10.8287 22.7509 10.8163 22.7518C10.8019 22.753 10.7878 22.7518 10.7741 22.749C10.4315 22.7499 10.0683 22.7499 9.68208 22.7499C7.80016 22.7499 6.85498 22.7499 6.01699 22.4559C4.65599 21.9779 3.582 20.9639 3.071 19.6749C2.75 18.8659 2.75 17.9689 2.75 16.1829V11.6703C2.75 11.2563 3.086 10.9203 3.5 10.9203C3.914 10.9203 4.25 11.2563 4.25 11.6703V16.1828C4.25 17.7787 4.25 18.5799 4.46499 19.1229C4.81599 20.0079 5.56301 20.7079 6.51301 21.0419C7.11001 21.2519 7.96899 21.2519 9.68096 21.2519C10.0634 21.2519 10.4221 21.2519 10.7591 21.2511C12.0619 21.1207 13.083 20.0176 13.083 18.681C13.083 18.5211 13.075 18.3488 13.0666 18.1666L13.0647 18.1261C13.0398 17.5815 13.0115 16.9649 13.165 16.389C13.388 15.557 14.043 14.902 14.875 14.679C15.4506 14.5256 16.0659 14.5537 16.6112 14.5787L16.6511 14.5805C16.8339 14.589 17.0067 14.597 17.167 14.597C18.5666 14.597 19.7102 13.4773 19.749 12.0869C19.749 11.9993 19.749 11.9104 19.749 11.82V9.27485C19.749 6.38385 19.749 4.93285 19.064 4.07185C18.864 3.82085 18.629 3.59885 18.364 3.41385C17.465 2.78085 15.9868 2.75286 12.9978 2.75286C12.5838 2.75286 12.2478 2.41686 12.2478 2.00286C12.2478 1.58886 12.5838 1.25286 12.9978 1.25286L12.9998 1.25085ZM19.6944 15.2184C18.9986 15.7683 18.1204 16.097 17.167 16.097C16.9762 16.097 16.7811 16.0883 16.5905 16.0799C16.5763 16.0792 16.5621 16.0786 16.548 16.078L16.5321 16.0772C16.0781 16.0565 15.6109 16.0351 15.263 16.129C14.948 16.213 14.699 16.462 14.615 16.777C14.5212 17.1291 14.5429 17.6017 14.5638 18.0587L14.564 18.062C14.574 18.266 14.583 18.476 14.583 18.681C14.583 19.617 14.2663 20.4805 13.7344 21.17C14.4126 21.1131 14.9462 21.0165 15.413 20.8529C17.23 20.2149 18.659 18.8729 19.333 17.1719C19.5375 16.6556 19.6415 16.0456 19.6944 15.2184Z" fill="#161616"/>
<path d="M5.58933 4.36016C5.39711 4.60489 5.19487 4.86201 5.03781 5.0236C4.74911 5.32062 4.27428 5.32737 3.97726 5.03867C3.68023 4.74996 3.67349 4.27514 3.96219 3.97811C4.05089 3.88685 4.19651 3.70504 4.40971 3.43362L4.45675 3.37369C4.64683 3.13155 4.8698 2.84749 5.09954 2.57636C5.34574 2.28581 5.62131 1.98401 5.89679 1.74939C6.03484 1.63182 6.19043 1.51585 6.35782 1.42627C6.51926 1.33987 6.74172 1.25085 7 1.25085C7.25829 1.25085 7.48074 1.33987 7.64218 1.42627C7.80957 1.51585 7.96517 1.63182 8.10321 1.74939C8.37869 1.98401 8.65426 2.28581 8.90047 2.57636C9.1302 2.84748 9.35317 3.13154 9.54324 3.37368L9.59029 3.43362C9.80349 3.70504 9.94911 3.88685 10.0378 3.97811C10.3265 4.27514 10.3198 4.74996 10.0227 5.03867C9.72572 5.32737 9.25089 5.32062 8.96219 5.0236C8.80513 4.86201 8.6029 4.60489 8.41067 4.36016L8.36595 4.30321C8.17304 4.05748 7.96675 3.79471 7.75606 3.54607L7.75 3.53893V10.0009C7.75 10.4151 7.41421 10.7509 7 10.7509C6.58579 10.7509 6.25 10.4151 6.25 10.0009V3.53893L6.24394 3.54607C6.03326 3.7947 5.82698 4.05746 5.63408 4.30318L5.58933 4.36016Z" fill="#161616"/>
</svg>
