<svg width="20" height="20" viewBox="0 0 20 20" fill="none" xmlns="http://www.w3.org/2000/svg">
<path fill-rule="evenodd" clip-rule="evenodd" d="M1.04166 3.54163C1.04166 2.16091 2.16094 1.04163 3.54166 1.04163C4.92237 1.04163 6.04166 2.16091 6.04166 3.54163C6.04166 4.92234 4.92237 6.04163 3.54166 6.04163C2.16094 6.04163 1.04166 4.92234 1.04166 3.54163ZM3.54166 2.29163C2.8513 2.29163 2.29166 2.85127 2.29166 3.54163C2.29166 4.23198 2.8513 4.79163 3.54166 4.79163C4.23201 4.79163 4.79166 4.23198 4.79166 3.54163C4.79166 2.85127 4.23201 2.29163 3.54166 2.29163Z" fill="white"/>
<path fill-rule="evenodd" clip-rule="evenodd" d="M3.29604 7.29163H3.78729C4.14797 7.29159 4.47866 7.29155 4.74767 7.32771C5.0439 7.36754 5.35701 7.46125 5.61453 7.71877C5.87205 7.97629 5.96575 8.28939 6.00558 8.58563C6.04175 8.85463 6.04171 9.18532 6.04167 9.546L6.04167 16.7039C6.04171 17.0646 6.04175 17.3953 6.00558 17.6643C5.96575 17.9605 5.87205 18.2736 5.61453 18.5312C5.35701 18.7887 5.0439 18.8824 4.74767 18.9222C4.47866 18.9584 4.14796 18.9583 3.78728 18.9583H3.29604C2.93536 18.9583 2.60467 18.9584 2.33566 18.9222C2.03942 18.8824 1.72632 18.7887 1.4688 18.5312C1.21128 18.2736 1.11757 17.9605 1.07775 17.6643C1.04158 17.3953 1.04162 17.0646 1.04166 16.7039L1.04166 9.54601C1.04162 9.18533 1.04158 8.85464 1.07775 8.58563C1.11757 8.28939 1.21128 7.97629 1.4688 7.71877C1.72632 7.46125 2.03942 7.36754 2.33566 7.32771C2.60467 7.29155 2.93536 7.29159 3.29604 7.29163ZM2.35269 8.60266L2.35472 8.60152C2.35633 8.60067 2.3591 8.59933 2.3633 8.5976C2.38145 8.59013 2.42175 8.57739 2.50222 8.56657C2.67782 8.54296 2.92282 8.54163 3.33333 8.54163H3.75C4.1605 8.54163 4.40551 8.54296 4.58111 8.56657C4.66157 8.57739 4.70188 8.59013 4.72003 8.5976C4.72423 8.59933 4.72699 8.60067 4.7286 8.60152L4.73063 8.60266L4.73178 8.60469C4.73262 8.6063 4.73397 8.60907 4.7357 8.61327C4.74316 8.63142 4.75591 8.67172 4.76673 8.75219C4.79033 8.92779 4.79166 9.17279 4.79166 9.5833L4.79166 16.6666C4.79166 17.0771 4.79033 17.3221 4.76673 17.4977C4.75591 17.5782 4.74316 17.6185 4.7357 17.6367C4.73397 17.6409 4.73262 17.6436 4.73178 17.6452L4.73063 17.6473L4.7286 17.6484C4.72699 17.6493 4.72423 17.6506 4.72003 17.6523C4.70188 17.6598 4.66157 17.6725 4.58111 17.6834C4.40551 17.707 4.1605 17.7083 3.75 17.7083H3.33333C2.92282 17.7083 2.67782 17.707 2.50222 17.6834C2.42175 17.6725 2.38145 17.6598 2.3633 17.6523C2.3591 17.6506 2.35633 17.6493 2.35472 17.6484L2.35269 17.6473L2.35155 17.6452C2.3507 17.6436 2.34936 17.6409 2.34763 17.6367C2.34016 17.6185 2.32742 17.5782 2.3166 17.4977C2.29299 17.3221 2.29166 17.0771 2.29166 16.6666L2.29166 9.5833C2.29166 9.17279 2.29299 8.92779 2.3166 8.75219C2.32742 8.67172 2.34016 8.63142 2.34763 8.61327C2.34936 8.60906 2.3507 8.6063 2.35155 8.60469L2.35269 8.60266Z" fill="white"/>
<path fill-rule="evenodd" clip-rule="evenodd" d="M9.54604 7.29163C9.78736 7.29161 10.7592 7.29159 10.9437 7.30849C11.1432 7.32677 11.3605 7.36878 11.5698 7.49123C11.7858 7.61762 11.9657 7.79748 12.0921 8.0135L12.1021 8.03091C12.7602 7.56621 13.5546 7.29183 14.414 7.29183C16.66 7.29183 18.9584 9.20368 18.9584 11.6668L18.9573 16.2879C18.9572 16.6485 18.9572 16.9791 18.921 17.2481C18.8811 17.5443 18.7873 17.8573 18.5298 18.1147C18.2723 18.3722 17.9593 18.4658 17.6631 18.5057C17.3941 18.5418 17.0635 18.5418 16.7029 18.5417H16.2127C15.852 18.5418 15.5213 18.5418 15.2523 18.5056C14.9561 18.4658 14.643 18.3721 14.3854 18.1146C14.1279 17.8571 14.0342 17.544 13.9944 17.2477C13.9582 16.9787 13.9583 16.648 13.9583 16.2874L13.9583 12.5001C13.9583 12.1188 13.6763 11.8751 13.4066 11.8751C12.9755 11.8751 12.7439 12.0403 12.5846 12.3048C12.3974 12.6156 12.2917 13.1073 12.2917 13.7501L12.2917 16.704C12.2917 17.0646 12.2918 17.3953 12.2556 17.6643C12.2158 17.9605 12.122 18.2737 11.8645 18.5312C11.607 18.7887 11.2939 18.8824 10.9977 18.9222C10.7287 18.9584 10.398 18.9583 10.0373 18.9583H9.54602C9.18535 18.9583 8.85466 18.9584 8.58566 18.9222C8.28942 18.8824 7.97632 18.7887 7.7188 18.5312C7.46128 18.2736 7.36757 17.9605 7.32775 17.6643C7.29158 17.3953 7.29162 17.0646 7.29166 16.7039L7.29166 9.54601C7.29162 9.18533 7.29158 8.85464 7.32775 8.58563C7.36757 8.28939 7.46128 7.97629 7.7188 7.71877C7.97632 7.46125 8.28942 7.36754 8.58566 7.32771C8.85467 7.29155 9.18536 7.29159 9.54604 7.29163ZM9.58332 8.54163C9.17282 8.54163 8.92781 8.54295 8.75221 8.56656C8.69583 8.56437 8.57976 8.59842 8.56659 8.75218C8.54298 8.92778 8.54166 9.17279 8.54166 9.58329L8.54166 16.6666C8.54166 17.0771 8.54298 17.3221 8.56659 17.4977C8.57665 17.5994 8.69453 17.6638 8.75221 17.6834C8.92781 17.707 9.17282 17.7083 9.58332 17.7083H10C10.4105 17.7083 10.6555 17.707 10.8311 17.6834C10.8885 17.6689 11.0059 17.6115 11.0167 17.4977C11.0403 17.3221 11.0417 17.0771 11.0417 16.6666L11.0417 13.7501C11.0417 13.0121 11.1561 12.2538 11.5138 11.6598C11.8995 11.0194 12.5378 10.6251 13.4065 10.6251C14.4366 10.6251 15.2083 11.5006 15.2083 12.5001V16.2501C15.2083 16.6606 15.2096 16.9056 15.2332 17.0812C15.2332 17.2129 15.3128 17.235 15.375 17.2522C15.3914 17.2567 15.4066 17.261 15.4188 17.2668C15.5944 17.2904 15.8395 17.2917 16.25 17.2917L16.6656 17.2917C17.076 17.2917 17.321 17.2904 17.4965 17.2668C17.5543 17.2454 17.6724 17.1782 17.6821 17.0812C17.7058 16.9057 17.7072 16.6607 17.7073 16.2503L17.7084 11.6667C17.7083 9.98776 16.0673 8.54182 14.414 8.54182C13.516 8.54182 12.7036 8.98085 12.1641 9.68999C12.0017 9.90347 11.7212 9.98952 11.467 9.90384C11.2129 9.81815 11.0417 9.57983 11.0417 9.31161C11.0417 9.03747 11.0411 8.87411 11.03 8.75362C11.0232 8.62758 10.8936 8.56754 10.8297 8.55328C10.7092 8.54224 10.5458 8.54163 10.2717 8.54163L9.58332 8.54163Z" fill="white"/>
</svg>
