<svg width="36" height="36" viewBox="0 0 36 36" fill="none" xmlns="http://www.w3.org/2000/svg">
<path d="M18 6.74995C19.5533 6.74995 20.8125 5.49075 20.8125 3.93745C20.8125 2.38415 19.5533 1.12495 18 1.12495C16.4467 1.12495 15.1875 2.38415 15.1875 3.93745C15.1875 5.49075 16.4467 6.74995 18 6.74995Z" fill="#1B8354" stroke="#1B8354" stroke-width="1.475" stroke-linejoin="round"/>
<path d="M14.3589 19.2966C14.5628 18.0267 14.6542 16.7991 14.3237 15.9504C14.0425 15.2205 13.4307 14.812 12.6925 14.5336L6.18644 12.4284C5.34269 12.1472 4.55449 11.6761 4.49894 10.7452C4.42863 9.54985 5.48332 8.77641 6.538 9.05766C6.538 9.05766 12.7255 11.2472 17.9989 11.2472C23.2724 11.2472 29.3896 9.0675 29.3896 9.0675C30.6552 8.71594 31.4989 9.70032 31.4989 10.7402C31.4989 11.7394 30.7255 12.0909 29.8114 12.4235L23.6239 14.6672C23.0614 14.8781 22.1474 15.3 21.7958 15.9455C21.3739 16.7013 21.4442 18.0218 21.6482 19.2916L22.063 21.375L24.6934 32.8992C24.8903 33.8238 24.2504 34.688 23.3293 34.8497C22.4082 35.0114 21.6552 34.3828 21.3824 33.4884L18.7414 25.3371C18.6144 24.9462 18.5019 24.5508 18.4039 24.1509L17.9989 22.5L17.6263 24.0223C17.5082 24.5074 17.3722 24.9874 17.2185 25.4623L14.6239 33.4814C14.3427 34.3849 13.6044 35.0107 12.6833 34.8497C11.7622 34.6887 11.1083 33.7535 11.315 32.8992L13.944 21.3799L14.3589 19.2966Z" fill="#1B8354" stroke="#1B8354" stroke-width="0.7375" stroke-linejoin="round"/>
</svg>
