<svg width="20" height="20" viewBox="0 0 20 20" fill="none" xmlns="http://www.w3.org/2000/svg">
<path fill-rule="evenodd" clip-rule="evenodd" d="M6.49622 6.29638C6.49622 3.35856 9.01758 1.04175 12.0455 1.04175L14.8485 1.04175C15.0648 1.04175 15.2789 1.05162 15.4725 1.09162C15.6712 1.13265 15.8901 1.21366 16.0746 1.38709C16.4377 1.72853 16.4583 2.23185 16.4583 2.59267V4.44453C16.4583 4.80535 16.4377 5.30867 16.0746 5.65011C15.8901 5.82354 15.6712 5.90455 15.4725 5.94558C15.2789 5.98558 15.0648 5.99545 14.8485 5.99545L12.0455 5.99545C11.8098 5.99545 11.6856 6.16595 11.6856 6.29638V7.98619L13.6944 7.98619C13.9716 7.98619 14.2363 7.9999 14.4657 8.051C14.6948 8.10203 14.9654 8.20712 15.1614 8.45137C15.3625 8.70203 15.4008 8.99323 15.3892 9.23369C15.3778 9.46789 15.3161 9.72065 15.2393 9.97322L14.8172 11.3621C14.7304 11.6479 14.6005 12.0049 14.2754 12.2355C13.9597 12.4593 13.5796 12.4769 13.2723 12.4769H11.6856V17.4075C11.6856 17.7683 11.665 18.2716 11.3018 18.6131C11.1174 18.7865 10.8985 18.8675 10.6998 18.9085C10.5062 18.9485 10.2921 18.9584 10.0758 18.9584H8.10607C7.88974 18.9584 7.67567 18.9485 7.48202 18.9085C7.28336 18.8675 7.06445 18.7865 6.87998 18.6131C6.51681 18.2716 6.49622 17.7683 6.49622 17.4075L6.49622 12.4769H5.15152C4.93519 12.4769 4.72113 12.4671 4.52748 12.4271C4.32881 12.386 4.1099 12.305 3.92544 12.1316C3.56227 11.7902 3.54167 11.2868 3.54167 10.926V9.53712C3.54167 9.1763 3.56227 8.67297 3.92544 8.33153C4.1099 8.1581 4.32881 8.07709 4.52748 8.03606C4.72113 7.99607 4.93519 7.98619 5.15152 7.98619L6.49622 7.98619V6.29638ZM12.0455 2.29175C9.63417 2.29175 7.74622 4.12045 7.74622 6.29638L7.74622 8.61119C7.74622 8.95637 7.46639 9.23619 7.12122 9.23619H5.15152C4.98326 9.23619 4.87575 9.24403 4.80645 9.25541C4.798 9.31275 4.79167 9.40122 4.79167 9.53712L4.79167 10.926C4.79167 11.0619 4.798 11.1504 4.80645 11.2077C4.87575 11.2191 4.98326 11.2269 5.15152 11.2269H7.12122C7.46639 11.2269 7.74622 11.5068 7.74622 11.8519L7.74622 17.4075C7.74622 17.5434 7.75256 17.6319 7.761 17.6892C7.8303 17.7006 7.93782 17.7084 8.10607 17.7084H10.0758C10.244 17.7084 10.3515 17.7006 10.4208 17.6892C10.4293 17.6319 10.4356 17.5434 10.4356 17.4075V11.8519C10.4356 11.5068 10.7154 11.2269 11.0606 11.2269H13.2723C13.4135 11.2269 13.4948 11.22 13.5434 11.211C13.5617 11.1745 13.5871 11.1109 13.6212 10.9987L14.0433 9.60976C14.0912 9.4523 14.1178 9.33948 14.1308 9.25956C14.0356 9.24531 13.8962 9.23619 13.6944 9.23619H11.0606C10.7154 9.23619 10.4356 8.95637 10.4356 8.61119L10.4356 6.29638C10.4356 5.40406 11.1932 4.74545 12.0455 4.74545L14.8485 4.74545C15.0167 4.74545 15.1243 4.73761 15.1936 4.72623C15.202 4.6689 15.2083 4.58043 15.2083 4.44453V2.59267C15.2083 2.45677 15.202 2.3683 15.1936 2.31097C15.1243 2.29959 15.0167 2.29175 14.8485 2.29175L12.0455 2.29175Z" fill="white"/>
</svg>
