<svg width="20" height="20" viewBox="0 0 20 20" fill="none" xmlns="http://www.w3.org/2000/svg">
<path d="M11.8531 4.97894C11.8502 4.65091 11.5942 4.38095 11.2667 4.36067C10.9393 4.34039 10.652 4.5767 10.6086 4.90187C10.5904 5.03829 10.5898 5.1848 10.6062 5.33769L10.6674 12.256C10.4088 13.0967 10.1832 13.5029 10.0157 13.7154C9.88084 13.8865 9.78017 13.9458 9.61381 14.0439C9.58463 14.0611 9.55344 14.0795 9.51968 14.0998C8.89544 14.4769 8.30653 14.4713 7.81073 14.3217C7.29837 14.1672 6.90085 13.8607 6.72958 13.6749C6.54581 13.4589 6.28658 13.04 6.15714 12.534C6.02917 12.0338 6.0348 11.4819 6.32477 10.9457C6.91022 9.86321 8.13338 9.71266 8.69236 9.79167C9.03414 9.83999 9.35037 9.60208 9.39868 9.2603C9.44699 8.91852 9.20909 8.60229 8.86731 8.55398C8.05958 8.4398 6.16742 8.60902 5.22527 10.3511C4.75145 11.2272 4.76007 12.1164 4.94614 12.8438C5.12941 13.5603 5.49126 14.1522 5.78757 14.4966L5.79868 14.5092C6.10489 14.8464 6.69537 15.2909 7.44974 15.5185C8.22623 15.7527 9.19085 15.7588 10.1659 15.1698C10.1864 15.1574 10.2093 15.1442 10.2343 15.1297C10.4165 15.0242 10.7094 14.8546 10.9975 14.489C11.3103 14.0921 11.6018 13.4946 11.892 12.5253C11.9099 12.4654 11.9188 12.4031 11.9182 12.3405L11.8756 7.51894C12.5047 8.04294 13.3749 8.44378 14.51 8.54393C14.8538 8.57427 15.1571 8.32012 15.1875 7.97628C15.2178 7.63244 14.9637 7.32911 14.6198 7.29877C13.5034 7.20026 12.7918 6.74283 12.3703 6.26104C12.0318 5.87399 11.893 5.49132 11.8555 5.25101L11.8531 4.97894Z" fill="white"/>
<path fill-rule="evenodd" clip-rule="evenodd" d="M10.0476 1.45825H9.95227C8.1267 1.45824 6.69278 1.45823 5.57327 1.60875C4.42606 1.76299 3.51584 2.08551 2.80068 2.80068C2.08551 3.51584 1.76299 4.42606 1.60875 5.57327C1.45823 6.69279 1.45824 8.12668 1.45825 9.95227V10.0476C1.45824 11.8732 1.45823 13.307 1.60875 14.4266C1.76299 15.5738 2.08551 16.484 2.80068 17.1992C3.51584 17.9143 4.42606 18.2368 5.57327 18.3911C6.69278 18.5416 8.12667 18.5416 9.95225 18.5416H10.0476C11.8731 18.5416 13.3071 18.5416 14.4266 18.3911C15.5738 18.2368 16.484 17.9143 17.1992 17.1992C17.9143 16.484 18.2369 15.5738 18.3911 14.4266C18.5416 13.3071 18.5416 11.8732 18.5416 10.0476V9.95228C18.5416 8.1267 18.5416 6.69278 18.3911 5.57327C18.2369 4.42606 17.9143 3.51584 17.1992 2.80068C16.484 2.08551 15.5738 1.76299 14.4266 1.60875C13.3071 1.45823 11.8732 1.45824 10.0476 1.45825ZM3.68456 3.68456C4.12877 3.24036 4.73123 2.9832 5.73983 2.8476C6.76642 2.70958 8.11627 2.70825 9.99992 2.70825C11.8836 2.70825 13.2334 2.70958 14.26 2.8476C15.2686 2.9832 15.8711 3.24036 16.3153 3.68456C16.7595 4.12877 17.0166 4.73123 17.1522 5.73983C17.2903 6.76641 17.2916 8.11627 17.2916 9.99992C17.2916 11.8836 17.2903 13.2334 17.1522 14.26C17.0166 15.2686 16.7595 15.8711 16.3153 16.3153C15.8711 16.7595 15.2686 17.0166 14.26 17.1522C13.2334 17.2903 11.8836 17.2916 9.99992 17.2916C8.11627 17.2916 6.76642 17.2903 5.73983 17.1522C4.73123 17.0166 4.12877 16.7595 3.68456 16.3153C3.24036 15.8711 2.9832 15.2686 2.8476 14.26C2.70958 13.2334 2.70825 11.8836 2.70825 9.99992C2.70825 8.11627 2.70958 6.76641 2.8476 5.73983C2.9832 4.73123 3.24036 4.12877 3.68456 3.68456Z" fill="white"/>
</svg>
