<svg width="20" height="20" viewBox="0 0 20 20" fill="none" xmlns="http://www.w3.org/2000/svg">
<path fill-rule="evenodd" clip-rule="evenodd" d="M11.5402 7.61835L11.472 7.58079C10.7849 7.20218 10.223 6.89251 9.76039 6.70094C9.29076 6.50646 8.80914 6.38247 8.31882 6.51098C8.04027 6.58398 7.77878 6.71357 7.55533 6.89423C7.14507 7.2259 7.00006 7.70081 6.93643 8.17939C6.87489 8.6423 6.87491 9.24109 6.87494 9.95557V10.0446C6.87491 10.7591 6.87489 11.3579 6.93643 11.8208C7.00006 12.2994 7.14507 12.7743 7.55533 13.106C7.77878 13.2866 8.04027 13.4162 8.31882 13.4892C8.80914 13.6178 9.29076 13.4938 9.76039 13.2993C10.223 13.1077 10.7849 12.798 11.472 12.4194L11.5402 12.3819C12.1688 12.0355 12.688 11.7494 13.0617 11.4843C13.436 11.2187 13.7912 10.8895 13.9088 10.4095C13.9748 10.1401 13.9748 9.86015 13.9088 9.59069C13.7912 9.11069 13.436 8.78155 13.0617 8.51594C12.688 8.25083 12.1688 7.96474 11.5402 7.61835ZM8.63573 7.72014C8.72511 7.69671 8.89118 7.69393 9.28214 7.85583C9.6726 8.01753 10.1734 8.29243 10.9024 8.69411C11.5742 9.06434 12.0299 9.31653 12.3383 9.5354C12.6529 9.75861 12.6886 9.8632 12.6947 9.88807C12.7128 9.96217 12.7128 10.0381 12.6947 10.1122C12.6886 10.137 12.6529 10.2416 12.3383 10.4648C12.0299 10.6837 11.5742 10.9359 10.9024 11.3061C10.1734 11.7078 9.6726 11.9827 9.28214 12.1444C8.89118 12.3063 8.72511 12.3035 8.63573 12.2801C8.52161 12.2502 8.42144 12.1988 8.3412 12.1339C8.30313 12.1032 8.22399 12.0206 8.17553 11.6561C8.12626 11.2855 8.12494 10.7709 8.12494 10.0001C8.12494 9.22933 8.12626 8.7147 8.17553 8.34412C8.22399 7.97962 8.30313 7.89707 8.3412 7.86629C8.42144 7.80142 8.52161 7.75005 8.63573 7.72014Z" fill="white"/>
<path fill-rule="evenodd" clip-rule="evenodd" d="M9.99993 2.29175C8.45109 2.29175 6.96304 2.44472 5.58056 2.72653L5.47449 2.74813C3.89563 3.06949 2.84363 3.28362 1.93709 4.44918C1.04027 5.60223 1.04077 6.93941 1.04155 9.01041L1.04155 10.9898C1.04077 13.0607 1.04027 14.3979 1.93709 15.551C2.84363 16.7165 3.89563 16.9307 5.47449 17.252L5.58056 17.2736C6.96304 17.5554 8.45109 17.7084 9.99993 17.7084C11.5488 17.7084 13.0368 17.5554 14.4193 17.2736L14.5254 17.252C16.1042 16.9307 17.1562 16.7165 18.0628 15.551C18.9596 14.3979 18.9591 13.0608 18.9583 10.9898L18.9583 9.01041C18.9591 6.93941 18.9596 5.60223 18.0628 4.44918C17.1562 3.28362 16.1042 3.06949 14.5254 2.74813L14.4193 2.72653C13.0368 2.44472 11.5488 2.29175 9.99993 2.29175ZM5.83023 3.95134C7.1283 3.68674 8.53262 3.54175 9.99993 3.54175C11.4672 3.54175 12.8716 3.68674 14.1696 3.95134C15.8797 4.29993 16.4751 4.44391 17.0761 5.2166C17.6803 5.99342 17.7083 6.86561 17.7083 9.19713L17.7083 10.803C17.7083 13.1346 17.6803 14.0067 17.0761 14.7836C16.4751 15.5562 15.8797 15.7002 14.1696 16.0488C12.8716 16.3134 11.4672 16.4584 9.99993 16.4584C8.53262 16.4584 7.1283 16.3134 5.83023 16.0488C4.12015 15.7002 3.52476 15.5562 2.92378 14.7836C2.31959 14.0067 2.2916 13.1346 2.2916 10.803V9.19713C2.2916 6.86561 2.31959 5.99342 2.92378 5.2166C3.52476 4.44391 4.12015 4.29993 5.83023 3.95134Z" fill="white"/>
</svg>
